<?xml version="1.0" encoding="UTF-8"?>
<svg id="_レイヤー_2" data-name="レイヤー 2" xmlns="http://www.w3.org/2000/svg" viewBox="0 0 420 720">
  <defs>
    <style>
      .cls-1 {
        fill: none;
      }

      .cls-2 {
        fill: #fff;
        fill-rule: evenodd;
      }
    </style>
  </defs>
  <g id="_レイヤー_2-2" data-name="レイヤー 2">
    <g>
      <path class="cls-2" d="M314.3,88.24c-.68,2.93-1.11,3.27-4,4v-1h-7l-1-2-6-1v-1h-2v-1h-3v-1l-6,1c-.1-.02-.39-1.5-2-1l-1,2-9,1v1l-4,1v1h-3l-1,2h-2v1l-4,3v2l-2,1-1,3c-4.17,3.48-8.59,6.81-11,12-3.02-1.25-4.94-2.78-6,0-2.76.32-2.75,1.5-5,0l-1-2c-1.78-.74-1.55.75-2,1h-1v-1h-6l-1-2h-2v1h-11v1h-10v1h-2v1l-3-1v1l-6,1-2,3h-4v1l-4,1c-1,1.33-2,2.67-3,4h-2l-1,2h-2l-2,3h-3v1c-2.13,1.64-2.99,3.17-6,4l-1,5h-2l-3,4h-1v5l-5,3,1,3h-1v2h-1v6h-1v7h-1c.33,3.67.67,7.33,1,11l2,1v1h-1v3h-1c.67,3,1.33,6,2,9h-1c-1.51,2.55-1.73,1.79-2,6h-11c-1.52-2.46-1.22-.62-3-2l-1-2h-1v-2l-2-1-1-3h-2c.22-3.73,1.46-4.34,0-8h-1v-2h-1c.33-2.33.67-4.67,1-7h-1v-9h1c-.33-2.67-.67-5.33-1-8h1l1-6h1c-.1-1.15-1.94-1.92-1-4l3-2v-2h1v-2h1v-4l4-3v-2l2-1v-3h1c1.4-1.86,2.27-2.34,3-5h2l4-5h2l1-3,2-1v-2c1.06-1.2,2.77-.88,5-1,.72-2.48.51-1.62,2-3v-1h2l2-3h2l1-2h3l1-2c3.24-1.83,2.53,1.75,4-3,4.67-.07,4.28-.43,7-2v-1c.73-.29,2.89,1.9,5,1l1-2,12-2v-1h3v-1l10,1,2-3c7.67.67,15.33,1.33,23,2l8-10h2l1-2h2v-1h1v-2c1.01-1.1,2.01-.73,4-1v-2l8-2,1-2,6-1,1-2h4v-1h4v-1h12v1h1v-1l10,1v1c2,.67,4,1.33,6,2v1h5c.33,1,.67,2,1,3,1.2,1.48,4.11,2.2,6,3,.31,5.49.98,8.71,0,14-1.13.84-.15-.13-1,1h-3Z"/>
      <path class="cls-2" d="M144.3,439.24l-6,1c-.64,2.87-1.15,3.47-3,5v1h-3l-1,2h-2c-.67,1-1.33,2-2,3h-1v2l-3,2c-.33,1.67-.67,3.33-1,5-1,.67-2,1.33-3,2v2h-1v3h-1v3h-1v2h-1v3h-1l1,3h-1v14l2,1v3l2,1v2l3,2v2h1c.31,1.12-1.84,1.78-1,4l2,1c1.07,3.33-1.61,3.11-2,4v4h-1c-1.27,3.81.79,5.62,0,8h-1c-.33,1.33-.67,2.67-1,4h-1c-.33,2.67-.67,5.33-1,8h1v1h-1v4c-.36.87-2.6.09-2,3l2,1-1,3h-1c-.35,1.64.97,1.82,1,2,.46,2.42-.82,2.55-1,4h1c-.33,3.67-.67,7.33-1,11l2,1c.45,1.49-2.19,5.12-1,8l2,1v6l3,2-1,4c1,.67,2,1.33,3,2v4l2,1c1.37,2.54.13,2.71,0,6,3.37.98,1.91,1.21,4,3v1h2c.14,1.45,1.45,7.08,2,8h1c2.13,2.68,3.86,2.1,5,6h2c.64,2.74,1.31,2.28,2,5l4,1,1,3c3.87.13,5.01.26,7,2,.33.67.67,1.33,1,2,1.67.33,3.33.67,5,1v1l4,1v1h3v1h3l1,2c2.8,1.21,7.82-1.3,9-1l1,2,5-1v1h2v1h2l1,2c2.93.89,3.95-2.97,8-2v1h12l1-2h1v1l12-1,1-2h6l1-2c3.33-1,6.67-2,10-3v-2l9-1v-3h1v-1h4v-3c3.04-.41,3.2-.64,5-2v-1l4-1v-1c1,.33,2,.67,3,1v-1h5v1h3v1c2,.67,4,1.33,6,2v1c2.16.78,3-1.36,4-1l1,2,6,1v1l5-1v1h2v1h5l1,2,4-1c.7.24.82,3.09,5,2v-1h6v-1c1.4-.18-.39.72,1,1h7l1-2c3-.91,3.98,3.42,8,2v-1h2l1-2h2v-1l3,1,2-4h6v-1c1-.67,2-1.33,3-2l1-3,5-1,2-3h1v-2h1v-2h1c2.67-3.19,5.93-4.07,7-9,3.33-.33,6.67-.67,10-1l1,3h4c2.31,5.53,3.03,6.55,3,15l-4,2c.33,1,.67,2,1,3-1.67,1-3.33,2-5,3v3c-1,.33-2,.67-3,1-2.53,1.91-1.95,3.91-6,5v3h-1v1h-4v2c-2,.67-4,1.33-6,2-.94,1.8-1.38,1.57-2,4h-5v1h-2v1c-.65.44-3.92,2.38-5,2v-1h-2v2c-2.67.33-5.33.67-8,1-.33.67-.67,1.33-1,2-1.49.46-5.08-2.16-8-1l-1,2c-2.02.71-3-1-3-1h-10v1h-4v-1h-2v-1c-3.33.33-6.67.67-10,1v-1h-3v-1c-2.33-.33-4.67-.67-7-1v-1h-2v-1c-2.84-.98-6.92,1.35-8,1l-1-2h-2v-1c-1.26-.96-1.82-2.02-4-2l-1,1c-.6-.3-.08-1.49-2-1v1c-1.67.33-3.33.67-5,1l-2,3h-3l-1,2c-2,.67-4,1.33-6,2v2c-3.33.33-6.67.67-10,1l-1,3c-3.02.03-4.93.03-7,1v1h-3l-1,2h-5v1h-5v1c-1.45.83-1.71.68-4,1-1.17-1.36-1.82-1.53-4-2v2h-2v1c-1.74.38-1.67-.92-2-1h-21c-.24.05-.32,1.34-2,1v-1c-2-.33-4-.67-6-1-.33-.67-.67-1.33-1-2-1.43-.49-1.44,1.81-2,2-3.33-.33-6.67-.67-10-1l-1-2h-4v-1c-2-.33-4-.67-6-1l-1-2-3,1v-1h-2l-1-2h-2v-1h-5c-1.29-.77-.02-3.05-1-4-.33-.32-2.34,1.82-4,1l-1-2-3-1c-1-1.33-2-2.67-3-4-2-.67-4-1.33-6-2v-1h-1v-2c-1.01-1.11-2.01-.73-4-1l-1-3h-1v-3l-2-1c-.33-1-.67-2-1-3-1.11-.84-4.18-.76-5-2v-3h-1v-2h-1c-1.86-3.9.65-4.32-5-5-.28-1.88-.99-1.96-1-2v-5h-1c-1.14-1.14,0-.4-2-1-.05-2.87.01-5.11-1-7l-2-1,1-3h-2v-2h-2c-.33-4-.67-8-1-12l-2-1v-4h-1v-6s-1.27.1-1-2c0,0,1.67-1.11,1-3l-2-1v-6h1c.08-1.19-2.04-7.89-1-11h1v-2h1c.56-2.82-2.21-1.98-2-4h1v-2h1v-6h1v-3h1v-1h-1v-5l2-1v-6h1v-1s-1.61-.5-1-2l3-2c1.52-3.74-2.29-5.29-3-7l-1-6-2-1-1-7h1v-4l-2-1c.33-1.67.67-3.33,1-5h-1c-.62-2.8.8-2.61,1-3-.08-1.38-1.49-2.44-1-5h1c.08-1.23-1.95-1.81-1-4,1-.67,2-1.33,3-2v-2h1v-9l4-3v-3h1v-2h1c.9-1.38.71-1.74,1-4h2l1-3h1c1.76-3.14-1.7-2.69,3-4,.86-3.98,5.04-10.02,9-11v-1h3c.68-2.93,1.11-3.27,4-4v-2h5v-1l2,1,10-1c1,1.33,2,2.67,3,4h1v3c1.62,4.27.46,7.56,0,12Z"/>
      <rect class="cls-1" width="420" height="720"/>
    </g>
  </g>
</svg>