<?xml version="1.0" encoding="UTF-8"?>
<svg id="_レイヤー_2" data-name="レイヤー 2" xmlns="http://www.w3.org/2000/svg" viewBox="0 0 420 720">
  <defs>
    <style>
      .cls-1 {
        fill: none;
      }

      .cls-2 {
        fill: #fff;
        fill-rule: evenodd;
      }
    </style>
  </defs>
  <g id="_レイヤー_2-2" data-name="レイヤー 2">
    <g>
      <path class="cls-2" d="M314.41,74.46v2c3.54.38,3.04,1.24,6,2v2c2.89,1.58,4.57,4.08,8,5v2h3c2.32,3.46,3.65.94,4,7h3l1,3h1v2l2,1v2c1,.67,2,1.33,3,2v3c1,.67,2,1.33,3,2v2l2,1c.33,2,.67,4,1,6h1l1,4h1v2h1v4h1v2h1c.51,1.58-.99,1.94-1,2v1h1v4h1v2h1c.29,1.15-1.9,1.79-1,4l2,1v2h1v1h-1v13h-1c-.27,1.39.78-.4,1,1,.26,1.72-.92,1.67-1,2,.33,2.33.67,4.67,1,7h-1c-.67,2-1.33,4-2,6h1c-.67,2-1.33,4-2,6h1c1.44,2.23,2.21,1.5,4,3l1,2h3c.67,1,1.33,2,2,3l4,1v1c2.05,1.66,3.04,3.2,6,4v2h3v1c1.42,1.3,3.2,6.51,4,7h2c.5,4,1.28,3.47,3,6h1c1,2.08-1.39,3.03-1,4,1,.67,2,1.33,3,2v5c1.33.67,2.67,1.33,4,2v3l2,1v5h1v3h1v3l2,1v6h1v3h1c-.33,2.67-.67,5.33-1,8,.05.23,1.27.34,1,2h-1v5l2,1c-.67,2-1.33,4-2,6h1c-.33,4.33-.67,8.67-1,13h-1v3h-1v2h-1v4l-2,1v8h-2c-.58,2.72-1.48,4.28-3,6l-2,1c-.95,1.53.37,3.02-1,4h-3c-2.17,1.42-1.43,5.88-3,7h-3l-1,2-4,1-1,2h-2v1h-2v1c-2.6,1.39-5.14,2.06-8,3v1s-2.6-.92-4-1v3h-1v1h-3v-1c-1.61-.65-1.89.98-2,1h-10v-3h-1v-1l-5-1v-7l3-1c-1.01-3.13-.56-1.52,0-5l3-1c.72-2.76.28-2.24,3-3v-1h3l1-2,4-1v1h1v-1h2l1-3c3.08-.36,3.16-.69,5-2v-1h3v-1l3-1v-3c5.45-1.43,2.13-1.61,4-5l2-1v-2h1v-4l2-1-1-4h1v-2h1c.69-2.33-.9-2.64-1-4h1v-4c.29-.8,2.06-.39,2-2-.05-1.32-1.74.53-2-2,.54-.84,1.34,0,1-3h-1c-.15-1.46,2.4-2.76,2-5h-1v-3h-1v-8h-1v-2h-1v-5c-1.67-1.33-3.33-2.67-5-4-.33-2.33-.67-4.67-1-7h-1c-1.14-1.14,0-.4-2-1l-1-5s1.57-.46,1-2h-1c-1.67-2.67-2.44-1.89-3-6h-2v-2c-5.82-1.34-7.91-7.02-13-9h-5c-3.15-1.01-6.23-1.3-8-4h-1v-3h-3v-1h-1v-6l-2-1c1-3,2-6,3-9h1v-4h1v-6h1v-4h1v-2h1c.13-1.41-.78.4-1-1v-10h1v-7l-2-1v-9h-1c-.67-3-1.33-6-2-9h-1c-1.14-1.14,0-.4-2-1-.31-3.73-1.34-6.42-3-9l-2-1v-3c-.67-.33-1.33-.67-2-1v-1h-2l-2-2v-2c-1.67-1.33-3.33-2.67-5-4l-1-3h-4l-1-3c-1.38-1.71-4.41-2.51-7-3-.61-2.39-.32-1.86-2-3v-1l-2,1-1-2h-6v-1l-4-1-1-2h-2v-1h-5l-1-2h-3l-1-2h-4v-1h-2v-1l-8,1c-3.57-.66-13.96-3.5-19-2v1h-5c-.32.08-.28,1.28-2,1v-1h-7v1h-5v1c-3.3,1.44-3.37.58-6,0-1,1.33-2,2.67-3,4-2.02.95-2.89-.87-4-1v1h-2v1h-4l-1,2h-2v1h-2l-2,2h-2l-1,2h-3v1h-2v1h-2c-.67,1-1.33,2-2,3-2.17,2.1-7.77,6.19-11,7v4c-2.76.72-2.24.28-3,3h-2c-.25,1.97.1,3.03-1,4h-2c-.67,1-1.33,2-2,3h-1v2h-1c-.15,1.19,2,1.84,1,4-1.33,1-2.67,2-4,3-1.29,2.02.19,4.5-1,7-.67.33-1.33.67-2,1l-1,3h-1v4h-1v2h-1v3h-1l-1,3-3-1v1c-1.14,1.14-.4,0-1,2-2.11.15-3.39,1.01-4,1v-1h-5c-.05,0-.43,1.68-2,1v-1c-3.12-2.07-.46-1.36-2-4h-1c-1.13-1.55-1.42-1.72-2-4h1l-1-4h1v-4h1v-4h1v-3h1l-1-3c2.27-4.66,6.62-6.3,7-13h2c.33-2.33.67-4.67,1-7l2-1,1-3h2c1.67-3,3.33-6,5-9,3.23-2.63,3.68-.37,5-6h3v-2c1.99-3.05,4.95,1.52,6-6l7-2c.67-1,1.33-2,2-3l5-1c1-1.33,2-2.67,3-4l6-1c.67-1,1.33-2,2-3h3v-1h2v-1l5-1v-1h4c.67-1,1.33-2,2-3l4,1v-1l3-1c.25.1.78,1.75,3,1v-1h2l1-2,6,1v-1h4v-1l7,1v-1h4c1.4-.21-.4-.84,1-1,.84.39.36,2.05,2,2v-1h3v-1l6,1v-1h1c2.19.14,4.65,4.09,8,3l1-2,5,1v1l5-1v1h2l1,2,9,1c.67,1,1.33,2,2,3h2v1l6-1v1l3,1,1,2h4v1l4,1v1h3l1,2h2v1c1,.33,2,.67,3,1Z"/>
      <path class="cls-2" d="M281.41,507.46l-1,3c6.75.11,4.18.47,7,4l2,1-1,5c1,.67,2,1.33,3,2v4h-1v6h1v7h-1v2l-2,1-1,5h-1c-1.71,2.42-1.63,1.97-2,6-4.76,1.26-4.22,4.67-9,6v2l-2,1-1,3h-3c-.67,1-1.33,2-2,3l-4,1v1h-5l-1,2h-2v1l-4-1-1,2c-2.73.66-2.64-1.92-3-2-2.88-.63-2.15,1.64-3,2h-5v1h-1v3c-1,.67-2,1.33-3,2v2h-1v2l-2,1v3l-2,1v2c-1,.67-2,1.33-3,2v2l-2,1v3c-1,.67-2,1.33-3,2v1h-2l-7,9h-3l-1,3c-2,1.67-4,3.33-6,5-.67,1-1.33,2-2,3h-2c-1,1.33-2,2.67-3,4h-3c-.67,1-1.33,2-2,3h-2c-.19.13-1.17,1.41-2,2v1l-6,1c-1,1.33-2,2.67-3,4h-6c-.75-.57.33-1.48-1-1-.67,1-1.33,2-2,3l-8-1v1h-2v1l-7,1v1h-1v-1l-3-1v-1h-1v1c-6-.67-12-1.33-18-2v-1h-2v-1l-8-1v-1l-4-1v-1h-5v-1c-4-1.88-6.35-1.68-7-7l-3-1,1-3h-1l-1-5,2-1,1-6,6-1v-1c2.2-.63,5.67.42,7,1v1l7,1v1l6,1,1,2,10,1v1l14,1c.94.67-.36,1.4,1,1l1-2h4v-1h1v1l9-1c1-1.33,2-2.67,3-4h4v-1c1.89-1.3,1.9-1.6,5-2,1.46-5.61,3.48-2.47,7-5v-1h1c1.95-2.22-1.09-1.86,3-3l1-4h2c.95-1.25,2.24-1.06,3-2l1-3,3-1v-2h1c.67-1,1.33-2,2-3,1.33-1,2.67-2,4-3v-3h1v-2h1v-3c1-.67,2-1.33,3-2v-3h1v-2l2-1v-7l2-1v-2h1v-2l3-1v-1c1.43-.99,2.49-.87,5-1v-1l5,1v-1c1.73-.27,2,1,2,1l4-1v1l6,1,1-2,9-1,1-3h1c1.58-1.77,1.16-2.23,4-3v-2h3v-1c1.13-1.28,3.42-10.5,2-14l-2-1v-6s-1.65-.92-1-3h1v-2l2-1v-4c.4-.62,5.02-2.71,7-2l1,2c1.62.51,1.89-.98,2-1l5,1Z"/>
      <rect class="cls-1" width="420" height="720"/>
    </g>
  </g>
</svg>