<?xml version="1.0" encoding="UTF-8"?>
<svg id="_レイヤー_2" data-name="レイヤー 2" xmlns="http://www.w3.org/2000/svg" viewBox="0 0 318.44 627">
  <defs>
    <style>
      .cls-1 {
        fill: #fff;
        fill-rule: evenodd;
      }
    </style>
  </defs>
  <g id="_レイヤー_2-2" data-name="レイヤー 2">
    <g>
      <path class="cls-1" d="M138.44,2h6c.14-.05.48-1.74,2-2v1h2v1h11v1l11,1,1-1v1h2l1,2h5v1h2v1h4v1l6,2,1-1,7,5,1,2h6l1,1,1,3h4c1.6,3.67,3.58,6.09,8,7,1.01,3.86,2.93,3.14,4,7,2.93.68,3.27,1.11,4,4,4.97,1.41,2.71,2.62,5,6l4,3v3l4,2,1,5,2,1v3l2,1v4l2,1v5h1v2h1c.4,1.61-.98,1.88-1,2l1,8h1v3l2,1-1,6h1l-1,4s1.24.4,1,2c0,0-1.53.9-1,3h1v3h1c-1,5-2,10-3,15h6l1,2c1.13-.27,4.63-2.16,7-1l3,4h4v1h2v1c4.15,2.19,7.71,1.93,9,7,1.73.32,6.18,1.98,7,3v2h1c1.43,1.69,2.36,2.43,3,5,3.72,1.05,2.7,2.06,5,4v1h3l1,5h1v2l2,1v5h1v1c1.53.58,1.64.76,4,1,.11,4.81.84,4.05,0,8h1c.95,1.49,1.92,1.65,2,4l-1,1,2,1c1.73,3.98-1.61,10.19,1,13,1.14,1.14,0,.4,2,1-.27,2.31-.21,2.54-1,4h-1v4h1l-1,6h2v2h-2v6h-1v1h1v1h-1l1,9h-1l-1,6h-1v6l-3,2v4h-1v2l-3,2-1,6h-3v4c-1.8.94-1.57,1.38-4,2-.79,3.95-2.51,4.88-5,7v1h-2c-2.53,1.82-1.93,3.97-6,5-.69,2.8-1.18,2.54-3,4v1h-3l-1,2c-2.94,2.68-4.02,4.04-10,4v-1l-7-1v-1h-1v-3c-2.76-.72-2.24-.28-3-3h-1v-4c1.18-.97,4.21-4.69,5-6v-2l5-3v-2c.99-1.18,3.93-1.24,5-2l6-8,3-1v-3l4-3,1-3,2-1v-4l3-2v-4h1v-3h1v-6h1v-8s1.47-.82,1-3h-1l1-8h-1v-3h-1l1-5h-1l-1-5h-1l-1-10-2-1v-2l-2-1v-2l-2-2v-2h-1c-1.43-1.79-2.27-2.39-3-5-3.56-.8-5.59-2.95-6-7-3.65-.72-5.75-1.98-8-4l-1-2-6-1-1-2-8-1s-.91,1.44-3,1v-1h-5v1l-9-1c-1.47-2.63-4.39-5.51-7-7l1-3h-1v-8h1v-3h1v-3h1l1-20h-1c-1.16-4.5,2.56-5.07,2-8h-1v-2h-1v-3l-2-1c-.7-1.92,1-3,1-3l-1-9h-1c-1.36-1.94-2.26-2.29-3-5h-2v-6c-2.21-1.19-2.99-2.33-6-3l-1-4h-2l-2-6-4-1v-3c-3.78-.79-5.61-2.85-8-5l-1-2h-4l-1-2c-.68-.35-3.14-.63-4-1v-3h-5l-1-2-6-1-1-2h-7v-1h-6v-1h-2v-1l-7,1v-1h-1v1h-4v-1h-4v-1h-1v1l-3,1v-1h-4v-1h-1v1h-2v1c-2.49.74-1.55-1.71-5,0l-1,2h-1v-1l-6-1v1c-1.14,1.14-.4,0-1,2-8.53-.3-11.44,1.89-17,4h-3v1h-1c-.42-.26-.27-1.81-2-1l-4,5-2-1-2,2h-2v1h-2v1h-2v1h-2l-1,2-4,1-2,3c-2.86,1.71-1.19-1.48-4,2h-1l1,2c-2.87,3.2-5.27.85-6,7h-2l-3,6h-2l-1,2h-1v3h-1v2h-1v3c-1.33,1-2.67,2-4,3-.35.86,1.63,1.92,1,4h-1c-.67,3-1.33,6-2,9l1,1h-1c-1.12,2.69-1.7,4.75-2,8-3.17.8-4.73,3.18-7,4h-7v-2c-1.17-.57-1.6-1.77-2-2-3.33-1.9-3.57,1.5-5-4h1c1.48-2.86-2.25-5.69-2-7h1l1-6h1l-1-4h-1c-.52-2.96,1.65-2.11,2-3v-3h2c0-2.66-.36-5.71,1-7l3-1-1-3h1c.64-2.27.34-3.31,1-5,1.8-.94,1.57-1.38,4-2v-4c1.33-1,2.67-2,4-3v-2l7-6v-2l7-6,1-3h2l2-3h4l1-3c3.74-1.66,6.86-3.49,12-4l1-3c3-1,6-2,9-3v-1l6-2v-1c5.67-1,11.33-2,17-3v-1c2.86-.92,4.82.21,7-1l1-2c1.95-.76,3,1,3,1l12-1v-1l3,1v-1h2l1-2h1v2Z"/>
      <path class="cls-1" d="M213.44,487h2v7l3,1-2,6,3,1c-.36,2.25-1.69,3.86-1,7,0,0,1.49.9,1,3h-1v5l-2,1,1,6h-1l-1,5h-1l-1,4h-1v4h-1c-1.61,2.22-3.14,2.94-4,6-2.5.27-4.76.55-6,2l-1,3h-2v1l-3,2-1,2h-5v1h-3v1h-2v1h-6c-7.14,2.13-11.16,1.66-19,1-.84,1.13.13.15-1,1,.03,3.29.04,5.79-1,8h-1v3l-2,1v2h-1v4h-1v2h-1v2l-2,1-1,4-2,1v4l-5,3-1,3h-2v1c-2.78,2.51-3.46,5.05-8,6v2l-3,1-5,6h-5c-1.65,6.32-2.86,2.19-8,4v1l-4,1v2l-6,1s-1.05-1.61-3-1v1l-4,1v1h-3v1h-6v1h-5v1l-3-1v1l-13-1c-.17.06-.42,1.78-2,2v-1l-3-1v-1s-4.22,1.62-6,1v-1h-2v-1h-4v-1h-2v-1h-2v-1l-5,1v-1c-1.14-1.14-.4,0-1-2-8.46.03-11.02-4.02-18-5v-2h-2l-2-3h-2l-2-3h-1l1-2-3-1-1-2h-2v-5c-.73-1.59-4.75-2.05-3-7h1c1.48-3.19,2.45-3.05,3-7,3.67-.33,7.33-.67,11-1l3,4h2l2,3h3c1.33,1.67,2.67,3.33,4,5l3,1,1,2c2.1.98,3-1.38,4-1v1l3,1,1,2h4v1l6,1v1l3-1v1h6v1c1.33-.33,2.67-.67,4-1v1h3v1h2v1c2.05.7,5.77-.48,7-1v-1h6v-1h4v-1h3v-1h3v-1h4v-1h4v-1h2l1-2h2l2-3,5-1,2-3h3c1.24-.85,1.15-3.88,2-5l3-1,2-4,3-1,1-7,3-2v-4l2-1,1-5h1l1-4h1c1.38-3.86-2.16-8.13-2-9h1l1-4,2-1c1.54-1.72,2.4-3.29,3-6h6v-1c1-.55,3.8-1.89,6-1l1,2,14,1v1l7-1v-1h2v-1l2,1v-1h2l1-2h3v-1l5-4v-2l2-1v-3h1v-4h1c.83-1.43.74-1.71,1-4h-1v-5l-2-1,1-6-2-1v-3l-2-1c.05-1.41.73.39,1-1v-3h1l-1-6,3-1c.68-.76,1.8-1.87,3-2v1h2c.66-.23.78-3.13,4-2l1,2h7v1c1.36,1.17,1.53,1.82,2,4Z"/>
    </g>
  </g>
</svg>