<?xml version="1.0" encoding="UTF-8"?>
<svg id="_レイヤー_2" data-name="レイヤー 2" xmlns="http://www.w3.org/2000/svg" viewBox="0 0 420 720">
  <defs>
    <style>
      .cls-1 {
        fill: none;
      }

      .cls-2 {
        fill: #fff;
        fill-rule: evenodd;
      }
    </style>
  </defs>
  <g id="_レイヤー_2-2" data-name="レイヤー 2">
    <g>
      <path class="cls-2" d="M286.69,68.66v2c3.1,1.64,1.8,1.9,7,2v9c.01.07,1.68.42,1,2h-1c-1.41,2.57-3.41,5.63-6,7h-2v1h-5v-1h-1v1h-11v1h-2l-1,2c-2.67,1.29-5.62-.19-8,2-1.14,1.14-.4,0-1,2-2.93.64-3.37,1.25-5,3h-1l-1,3h-2v3c-2.47,1.44-2.79,3.14-6,4l-1,4c-3.98.52-3.47,1.26-6,3v1h-4c-3.56-4.93-2.57-.17-6-1v-1l-3-1-2,1-1-2h-7v-1h-4v-1l-5,1v1h-2v1h-1v-1l-10,1v1h-2v1h-3v1h-6l-2,4c-1.92,2.06-9.99,7.2-13,8l-1,4h-2c-.53,1.03-1.86,1.75-2,2v3h-1v2h-1v2l-2,1-1,4-2,1v7h-1l-1,18c.04,2.09,1.06,3.27,1,4h-1v2h-1l1,4-2,1v2h-1l-1,3c-3,.58-4.01,1.31-7,0v-1h-4v-1c-1.14-1.14-.4,0-1-2h-3l-1-2h-1v-3h-1l-1-3s1.28-1.01,1-2h-1l-1-5h1l1-6h-1l-1-4,2-1-1-4h1v-8h1v-2h1v-4l2-1v-4h1v-2l2-1v-4h1l1-3h2l2-6h2c1.6-2.91,3.47-3.82,4-8h3l6-7h2l1-2h3l1-2h2v-1h3l3-5,12-2v-1h2v-1h6v-1h2v-1l5,1v-1h24v1c2.23.93,3.85.9,7,1v-2h2c.24-.99,2.47-6.57,3-7h2v-1l3-1,2-4,5-1,1-2h3l2-3,5-1s.58,1.37,2,1v-1l5-1v-1h2v-1l8,1v-1c4.54-1.19,10.03-.2,13,0Z"/>
      <path class="cls-2" d="M128.69,463.66h3v1c4.26,3.66,3.62,12.13,3,18h-2c-1.34,2.52-1.99,3.5-2,8h-1l1,3-2,1v2l-2,1v2l-2,1v2h-1l1,3c-1,.67-2,1.33-3,2-.28.78,1.88,2.85,1,5l-2,1v5l-3,2,1,5h-1v3h-1c-.37,1.68.95,1.76,1,2v4h-1c-.47,2.02,1,3,1,3l-1,4h1v4h-1c-.93,3.38,1.27,5.94,1,8,0,0-1.5.97-1,3h1v5l3,2,1,7h1c1.3,2.79,1.77,4.19,2,8h2c.64.39,3.71,6.53,4,8l4,1v3c6.61,3.88,8.92,11.49,19,12v2l7,1,2,3h6s.05.62,2,1c.78,3,.62,2.63,4,3,2.91-3.92,3.79-1.05,7,0h5v1l8-1v1h11v-1h2l1-2h5s-.11-.63,2-1c1.48-4.78,1.17-.89,4-3v-1h1v-2c4.63-.46,4.58-2.38,9-3,1.11-4.63,6.18-6.95,9-10l2-4h5v1h6v1c1.44.81,1.7.74,4,1l1,3,6,1,2,3,6-1c2.36.63,6.72,3.49,11,2v-1h2v-1c3-.33,6-.67,9-1v-1l6-1,1-2c2-.33,4-.67,6-1v-2l3-1c2.34-1.5,4.14-2.88,5-6h2c.64-2.74,1.31-2.28,2-5h2c.72-1.36,2.81-2.64,3-3v-4l4-3v-3c.93-1.89,3.15-3.93,5-5v-1c3.33-.67,6.67-1.33,10-2l1,1v-1h3l2,3-1,1c1.33,1,2.67,2,4,3-.33,4-.67,8-1,12l-3,2v3l-4,3c-2.43,2.73-4.12,6.84-5,11-2.76.72-2.24.28-3,3-3.22.74-3.64,1.36-4,5-3.38.72-4.79,2.2-7,4v1h-2l-1,2c-2,.67-4,1.33-6,2l-1,2h-2v1h-3l-1,2h-2v1h-5l-2,3c-2.09.98-6.59-1.02-7-1v1h-4v1c-1-.33-2-.67-3-1l-1,2h-4v1c-1.16.2-1.75-1.36-4-1-.11.02-.39,1.48-2,1l-1-2-7,1v-1c-1.33-.33-2.67-.67-4-1v-1h-6v-1h-3v-1c-1.42-.85-1.72-.71-4-1-1.53,2.43-.73.71-3,2v1h-3l-1,3-2,1v1c-2.04,1.58-2.42.39-5,0-.64,2.74-1.31,2.28-2,5h-5l-1,3c-1.67.33-3.33.67-5,1v1h-2l-1,2h-4v1h-3v1c-2.67.33-5.33.67-8,1v1c-5-.33-10-.67-15-1v1h-1v-1h-4v-1h-6v-1c-1.19-.08-2.6,1.83-5,1v-1l-4-1v-1c-2.25-.78-2.85,1.29-4,1v-1h-2l-2-3c-2,.33-4,.67-6,1v-1c-1.14-1.14-.4,0-1-2l-4,1-1-2h-5l-2-4c-1.67-.33-3.33-.67-5-1v-1h-2l-1-2h-2v-1c-1.37-.93-1.76-.68-4-1v-2c-2.38-1.08-6.63-3.03-8-5-2.7-3.88.42-4.51-6-6-.73-3.4-2.21-4.77-4-7h-1l-1-4c-1.33-1-2.67-2-4-3v-3l-2-1v-2h-1v-4l-2-1-1-6h-1v-2h-1v-3h-1v-8c-.52-1.71-2.74-5-2-8h1v-4h-1c-.28-1.48,1-2,1-2l-1-2h1v-4h-1l1-6c.03-1.98-1-8-1-8l2-1v-9l2-1-1-4h1v-2l2-1-1-3h1v-2h1v-7l3-2v-3l3-2v-4l2-1c.9-2.12-1.29-4.25-1-5h1c1.18-2.02,1.59-1.82,2-5l-4-3v-2l-2-1v-5l-3-2v-5h-1v-2h-1v-10l-2-1c-.88-2.13,1.02-6.83,1-7h-1l-1-6h1v-2h1c1.11-3.33-1.83-2.71,0-6l2-1v-2h1l-2-6,3-2c4.04-6.47.59-13,10-15,1.4-6.03,6.27-6.29,14-6v1c2.48-1.01,2.4-1.2,4,1h1c-.09,1.21-1.9,2.65-1,5l2,1c.48,1.7-.95,1.76-1,2v6h-1v2l-2,1v3l-2,1-1,4h-1l1,5-3,2v6h-1l1,4h-1v7l2,1v9l2,1v2c1.62,2.94,3.51,4.58,4,9Z"/>
      <rect class="cls-1" width="420" height="720"/>
    </g>
  </g>
</svg>