<?xml version="1.0" encoding="UTF-8"?>
<svg id="_レイヤー_2" data-name="レイヤー 2" xmlns="http://www.w3.org/2000/svg" viewBox="0 0 420 720">
  <defs>
    <style>
      .cls-1 {
        fill: none;
      }

      .cls-2 {
        fill: #fff;
        fill-rule: evenodd;
      }
    </style>
  </defs>
  <g id="_レイヤー_2-2" data-name="レイヤー 2">
    <g>
      <g>
        <path class="cls-2" d="M295.3,80.44l1,3c6.93.26,8.46,4.5,14,6v2c1.21.67,1.39,1.59,2,2h2l2,3h3v2c5,1.38,2.34,3.59,7,5v3c3.88,1.06,2.98,2.27,5,5l3,2v1h2c.63,3.08,1.6,3.46,2,7l4,1v4h2l1,3h1v2h1c.18.93-2.14,2.88-1,5l4,2v3c.68,1.29,2.61-.14,2,4-.01.07-1.52.41-1,2l2,1v3c2.39.61,1.86.32,3,2h1c-.24,1.4-1.94,4.3-1,7h1v2h1v4h1c.09,1.2-1.77,2.57-1,5h1v2h1l-1,6h1l1,3h-1v3h-1v7l7,5c2.62,3.55-.69,5.4,5,7,.85,3.4,2.82,3.49,4,6v3h1v2h1v2l2,1v2h1v4l3,2s-1.49,3.33-1,5h1v4h1v4h1v2h1c1.91,5.35-.81,12.58-1,17l3,1-1,3c.03.16,1.55.35,1,2h-1v2l-2,1v3h-1l1,6h-1l-1,4-5,4-2,9h-2c-3.01,5.2-9.56,8.66-11,15l-6,2c-.61,2.39-.32,1.86-2,3v1h-5v1c-1.52.87-2.43.88-5,1v-1h-3l-6-7h-1v-2c2.89-2.88.83-4.4,0-8,2.89-1.58,4.57-4.08,8-5,.72-2.76.28-2.24,3-3v-3h2l7-8,2-1v-2h1v-2h1v-3l2-1v-2h1l-1-5,2-1-1-9-1-13h-1v-5h-1v-2l-2-1v-2l-2-1v-5l-2-1-1-3h-2l-1-3h-1v-3l-3-2-1-3c-2.48-1.67-1.17,1.46-4-2h-1s-.87-3.69-1-4h-3l-1-10h1v-9h1c.13-1.41-.85.41-1-1-.17-1.66,1-2,1-2l-1-3v-8h-1c-.61-2.25,1.27-2.87,1-4h-1v-2l-2-1v-2h-1v-6h-1v-2l-2-1v-3l-2-1v-4l-2-1-1-4h-2c-1.06-5.09-3.89-9.83-7-13l-4-3c-.96-1.56.3-2.93-1-4h-2l-1-2c-3.99-2.73-6.66-2.34-8-8-4.21-.52-3.51-1.66-7-3v-1h-1v1l-4-1-1-3c-3.65-.23-3.91-.59-6-2v-1l-7-1-1-2-3,1v-1l-4-1v-1l-10-1s-.89,1.54-3,1v-1h-3v-1l-10,1v-1c-4.38-1.26-7.77,1.28-10,2-3.35,1.08-7.05-1.68-9-1l-2,3-5-1v1h-3v1l-7,1v1h-2v1h-3l-1,2c-4.08,2.46-6.41-.02-8,6-3.12.65-7.43,2.89-9,5v2h-1c-1.38,1.49-.52,1.28-3,2-.68,2.93-1.11,3.27-4,4-1.04,4.12-3.05,3.89-6,6l-3,4h-5v1c-1.43.82-1.7.75-4,1-1.41-2.5-3.32-3.76-6-5l1-4h-1l-1-4h1l1-3h1v-3l2-1v-3l3-2v-3h1c1.34-1.86,1.55-1.93,2-5,3.22-.77,2.15-1.51,6-2v-2l5-4v-2h1v-1h4c1.17-3.96.28-1.27,3-3v-1h2l3-4h2l1-2h3l2-3h6v-1h2l1-2h6v-2l10,1,1-2,8-1,1-2c.65-.14,4.98,3.06,9,2v-1h16v1h1l4-1v1h3v1l19,2v1h3v1l6,2v1l7,1v1l3,1Z"/>
        <path class="cls-2" d="M257.3,512.44v4l5,3c-1.2,6.47-5.16,10.56-6,18h-2v3l-2,1v2l-5,7-3,2v3l-2,1c-1.15,1.43-1.5,2.9-2,5h-2c-.7,1.39-1.45,1.24-2,2-1.84,2.55,1.09,1.88-3,3-.64,2.74-1.31,2.28-2,5h-3c-1.09,2.08-1.61,1.77-2,5l-5,1-1,3c-3.45.74-6.69,2.98-9,5l-1,2-3-1-1,2-3,1v1l-5,1-1,3-6-1s-.08.99-2,1l-1-1v1l-4,1v1c-2,.62-3-1-3-1l-6,1v1c-1.23.21-1.69-1.58-4-1-2.27.57-15.56,2.49-19,1l-1-2c-.73-.37-3.12-.63-4-1-2.17-4.77-3.02-6.37-3-14l3-1c1.14-1.14,0-.4,2-1v-4c1.72-.65,3.14-.95,6-1,2.74,2.4,4.16-.96,8,0v1h3v1l3-1v-1h2v-1l6,1v-1h3v-1c1.3.14,1.74,1.75,4,1v-1h2v-1h4v-1l4-1,1-3h3v-1l2,1,1-3c1.28-1.45,3.48-1.72,6-2v-3h1c1-1.2,4.67-4.19,6-5h2l5-7v-2l2-1c2.19-2.35,4.16-4.26,5-8h2l1-4,2-1v-3l3-2,2-10h2l2-3h1v-2c1.21-1.37,4.4-1.04,7-1,1.5,2.58,3.57,3.37,7,4Z"/>
      </g>
      <rect class="cls-1" width="420" height="720"/>
    </g>
  </g>
</svg>