<?xml version="1.0" encoding="UTF-8"?>
<svg id="_レイヤー_2" data-name="レイヤー 2" xmlns="http://www.w3.org/2000/svg" viewBox="0 0 420 720">
  <defs>
    <style>
      .cls-1 {
        fill: none;
      }

      .cls-2 {
        fill: #fff;
        fill-rule: evenodd;
      }
    </style>
  </defs>
  <g id="_レイヤー_2-2" data-name="レイヤー 2">
    <g>
      <g>
        <path class="cls-2" d="M250.28,97.01c5.06,1.48,2.33,2.55,5,5v1h4c.09,3.21-.55,7.27,1,9v1l-2,1v4l-2,1v3h-1c-2.67,2.39-4.18-1.69-7,2h-1v-1l-7-4v-2l-2-2h-2l-1-2h-1l-2-4h-3l-4-5h-5v-1h-2v-1h-3v-1l-8,1v-1c-3.81-.87-6.78,1.29-9,2h-5v1h-2v1l-5,1v1c-1.91,1.47-3.17,2.35-6,3v2h-1l-5,6h-2c.22,2.97,1.23,2.08,0,5h-1v3h-1v2h-1c-.42,1.66.96,1.8,1,2l-1,9h-2v3c-1.82,1-5.91,4.29-7,6-13.99-2.36-31.19,2.5-43,8v3h-2c-.48.85-3.39,5.49-4,6-1.62,1.34-1.04-1.02-3,2h-1v1h1v1h-1v3h-1v4h-1v2l-2,1,1,6c-1.76,9.78.72,20.12-1,26l-3,1-1,3c-1.62.06-7,1-7,1l-1-2h-2v-1h-2v-1l-3-1-1-6h-1v-5h-1v-2h-1l1-5h-1v-2h-1l3-10h-1v-2h-1c-.9-3.75,1.62-3.15,2-4v-4h1v-6l2-1,1-5h1v-2l2-1v-2h1l1-5,8-6v-3l6-2v-2l2-1v-1h3l1-2h5l2-3,4,1,2-3c2.04-.93,6.76,1.05,7,1v-1l4-1v-1l3,1v-1h2v-1h7c.13-2.57.11-3.48,1-5h1v-4l2-1,1-7c.19-.45,8.64-10.78,9-11h3c1.37-.96.03-2.51,1-4l2-1v-1l6-1,2-3h3l2-3,9-1v-2l7-1c.14.02.37,1.5,2,1l1-2c4.15-1.94,5.61.47,10,0v-1h1v1h4v1h4v1h1v-1l8,1,1,2h3l1,2,7,1v1h2l2,3h2v1l5,4v3Z"/>
        <path class="cls-2" d="M93.28,550.01h-2l1,2h1c-1.33,4-2.67,8-4,12,1.62,3.6-2.11,4.52-1,9h1v8h1l-1,7h1v2h1v11h1v2h1l1,6,2,1v3l4,3v4l2,1,2,6,7,5,1,4,3,1v1l3,2v2l2,1v1l4,1,1,2h2l2,3h2v1h3l2,4,6,1v1h2v1h3v1l4,1v1h4v1h2v1s2.57-.93,4-1v2h6c.26-.06.31-1.3,2-1v1h3v1c1.43.29,2-1,2-1,2.14-.21,4.59,1.92,8,1v-1l13,1,1-2,7-1,1-2h2v-1h2v-1h4l1-2h2v-1h2v-1h3v-1l2-1c.95-1.47-.4-3.09,1-4h4l1-2c3.11-2.06,4.41-1.22,5-6,2.28-.61,2.43-.87,4-2v-1h3l1-2h7v-1h5v1h3v1h3l2,3,6,1,2,3,3-1v-1h1v1h3v1h10v1h1v-1l3,1s8.55-.87,9-1v-1c2.12-.58,3.08,1.33,4,1l3-4,4,1v-1c1.14-1.14.4,0,1-2l9-3,1-3h2c1-1.26,2.38-1.2,3-2v-2l2-1v-1l2-1v-2l5-4v-2h1c1.44-1.74,2.3-2.41,3-5h2v-4c3.45-1.91,7.06-5.55,8-10,3.6-.88,4.42-3.05,8-4,2.19,3.43,3.36,2.28,8,2l2,6h1l-1,5h1v5h-1v2h-1v3l-3,2v2l-2,1v2l-2,1v2l-2,1v2l-5,4v2l-3,2-1,2h-2l-3,5-3,1c-.99,1.45.3,2.97-1,4-3.15,2.5-4.5-.19-6,5-3.87.12-5.02.27-7,2l-1,2-5,1-1,2h-2v1h-2v1h-5v1h-2v1h-3v1l-6-1-1,2c-2.34.93-3.83-1.02-5-1v1h-5v-1l-13,2v-1h-2v-1l-7-1v-1c-1.06-.19-2.66,1.8-5,1v-1h-2v-1l-6-1v-1c-1.53-.89-2.43-.83-5-1-1.46,2.45-3.64,3.21-5,5l-1,3-5,1-2,3h-2l-1,2h-3l-1,2h-2v1c-1.49,1.37-1.32.51-2,3-8.52.1-13.06,3.72-19,6h-5l-2,3c-1.43-.12-1.59-1.51-4-1,0,0,0,1.28-2,1v-1h-1v1h-1v-1h-4v1h-9v1l-4-1v-1l-4,1v-1h-9v-1h-2v-1h-9v-1h-2l-1-2c-2.12-1.26-4.29.05-7-1v-1l-6-2v-1h-5l-2-3h-2l-1-2h-2l-2-3h-3v-1c-1.51-.63-2.75-.49-4-1v-3l-3-1v-1h-2l-1-2c-1.52-.9-3.14.42-4-1v-2c-4.78-1.47-1.07-.89-3-4l-4-3v-1l-2-1-1-2h-3v-1c-3.42-2.88-.36-.67-2-4h-1v-2l-4-3v-3l-3-2v-2h-1v-2h-1c-.9-1.37-.72-1.75-1-4h-2l-1-5h-1c-1.05-2.71.23-4.87-1-7l-2-1,1-2-3-2v-7h-1v-2h-1c-.3-1.38.63.37,1-1v-3h1c.56-2.88-1.8-2.34-2-3-.64-2.12,1.68-3.43,2-5l-3-2v-6h-1v-2h1v-2h1l1-11h-1l-1-3h1v-2h1l1-8h2c-.05-1.76-1-7-1-7l2-1v-6l2-1v-2l3-1c-.39-1.18-1.65-1.87-1-4h1v-2l2-1v-6l3-2v-2l2-1,1-4h1c.62-1.94-1-3-1-3l1-4-2-1v-2h-1v-4h-1c-.62-1.1-1.61-2.76-1-5h1l1-5h-1v-14h1v-3l2-1-1-7,2-1-1-3,3-2v-2h1l-1-3,2-1v-3h1v-2h1v-2l10-9,5,1c.1-.02.39-1.59,2-1l1,2,3,1v1h1v3h1l1,6h-1l-1,5-2,1v9l-2,1-3,9h1v1h-1v7l-2,1,1,3h1l-1,9h1l-1,3h1v2h1v2h1v3h1v2h1c.92,2.55-.97,6.14-1,7l1,3h-1v3l-2,1v2l-3,2v5l-2,1v2h-1v4l-4,3v6h-1c-1.76,2.64-1.83,2.46-2,7Z"/>
      </g>
      <rect class="cls-1" width="420" height="720"/>
    </g>
  </g>
</svg>