<?xml version="1.0" encoding="UTF-8"?>
<svg id="_レイヤー_2" data-name="レイヤー 2" xmlns="http://www.w3.org/2000/svg" viewBox="0 0 420 720">
  <defs>
    <style>
      .cls-1 {
        fill: none;
      }

      .cls-2 {
        fill: #fff;
        fill-rule: evenodd;
      }
    </style>
  </defs>
  <g id="_レイヤー_2-2" data-name="レイヤー 2">
    <g>
      <path class="cls-2" d="M326.3,82.24c1.44.33,4.39,1.11,5,2v3l3,2v6l4,3v4h1c2.39,3.29,2.84,2.01,2,6l3,2c.36.97-1.73,1.86-1,4h1l1,4h1v7h1v6h1v4h1v13c.06.26,1.31.31,1,2h-1v4h-1l1,3,3,1v2l3,1v1h3l1,2h3l3,4h1c.81,1.18.78,4.23,2,5h2v2h2l5,7,3,1,1,5,3,2v4h1v2l2,1v4l2,1,1,8h1v2h1v4h1v21h-1l-1,4h1l1,3h-1v2h-1l-1,5-2,1c-.33,2.33-.67,4.67-1,7h-1v2c-1.86,2.9-3.2.39-4,6h-2c.05,2.87.17,5.43-1,7l-2,1v4h-1c-.55.65-7.27,5.01-8,5v-1l-3-1v1c-1.5.7-1.65.76-4,1v-2h-3v-1c-2.18-1.85-2.85-5.15-5-7l1-3h1v-2h1l-1-5h1v-2l5-4,1-6,2-1,2-6,2-1v-1h-1c-.41-3.32,1.38-6.82,2-9l-1-6,2-1c.73-2.78-1.68-2.23-2-3l-1-12-2-1-1-5h1v-1l-4-2v-4l-4-2v-2l-2-1,1-2h-2v-1l-2-1-1-3-5-1-1-3h-1c-1.63-1.76-2.07-2.34-5-3v-2c-6.32,2.1-8.99-2.68-12-7h-1c-1.16-1.47-1.46-1.76-2-4l2-1v-1h-1v-10c-.08-.33-1.31-.27-1-2h1c1.18-4.63.28-19.79-1-23h-1v-2h-1l-1-7h-1v-6l-2-1-1-5-3-2v-3h-1v-2l-2-1v-4h-1v-1c-1.88-.82-2.62-1.48-5-2v-2c-3.02-1.98-.52-1.08-2-3l-2-2h-2v-1c-1.84-1.49-3.21-2.38-6-3-.57-3.41-1.7-6.12-5-7v-1h-5v-1h-2v-1l-6-1-1-2-4-1c-.72-2.76-.28-2.24-3-3-2.29-1.79-6.7.59-11-1v-1l-4-1v-1h-4v-1h-16v-1h-5s.04-.62-2-1v2l-3-1v1h-2v-1h-4v-1h-1v1h-2v1l-3-1c-1.41.03.35.58-1,1h-3v1h-7v1l-5,1-1,2h-4l-2,3-6,1-4,5-4,1-2,3h-2l-1,2-6,5v2l-6,3,1,3-5,4v4l-5,4-1,3-2,1c-2.06,3.56,1.53,4.32-4,6v2h-4v1l-3,1-1-2-4-1-1-5-2-1,1-12,2-1,1-6,2-1,1-4,2-1v-3l4-3,2-6h3v-4l3-1c1.14-1.14,0-.4,2-1l1-4h3c1.97-3,2.83-.94,4-5h2c1.47-5.45,3.42-3.58,7-6l3-4h5v-1c1.14-1.14.4,0,1-2l4-1s.59,1.64,2,1l3-5h5l1-2h2v-1c.4-.09,2.82,1.59,5,1v-1l12-1v-1h14v-1h8v1h1v-1h4v1h3v1c1.97.31,1.21-2.56,4-2v1h2v1l4-1v1l4,1v1l6-1v1h2v1l8,1v1h2v1l3-1v1h2l1,2h2v1h3l1,2h4v1l4,1v1l6,1,3,4h3l2,4h2l3,4h2l2,4c2.92,2.59,1.29-1.4,4,0v1h1v1h1v2h1v3l3,1,1,3,2,1v2Z"/>
      <path class="cls-2" d="M304.3,499.24c6.55.06,7.03,2.81,12,4,.26,4.42,1.24,4.46,3,7h1v3h-2c.47,2.59.96,4.42,1,8l-3,1c-.05.29-.93,8.85-1,9l-3,2-1,3h-1l-1,4-3,2-1,3-3,1-1,4c-2.33,1.67-4.67,3.33-7,5v1h-3v1l-3,1-1,2c-2.33.33-4.67.67-7,1l-1,2-4-1v1h-3v1l-3-1v1c-1.33.33-2.67.67-4,1v1c-1.91.67-3.37-1.37-4-1v1c-3.09,2.73-.49,2.98-1,4-.51,1.02-1.3-.13-2,3h-2l-2,8-2,1v2h-1l-1,4-2,1v2l-2,1v1h-2l1,2-7,6v2l-3,1-2,4h-3c-1.51,5.4-4.22,3.47-8,6l-3,4h-3l-2,3h-4v1l-7,2-1,3-3-1v1l-5,1c-1.17.05-4-1-4-1v2l-6-1v2l-3,1v-1l-5-1v1h-2v1l-3-1v-1c-1.72-.47-1.72.93-2,1-1.77.42-1.64-.9-2-1h-5l-1-2c-1.59-.63-1.92.99-2,1h-1v-1h-4l-1-2c-1.73-.61-1.71.92-2,1l-7-1-1-2-5-1-3-4h-3v-1c-3.29-2.58-5.52-5.57-6-11,2.51-1.42,2.87-2.05,3-6,1.67-.33,3.33-.67,5-1,.05,0,.44,1.45,2,1l1-2c1.71-.49,1.74.94,2,1h6v1h2v1h2l1,2c1.57.58,1.95-.99,2-1,1.74-.24,1.63.9,2,1h5v1h3v1h5v1h9s.86,1.55,3,1v-1l8-1v-1h7l1-2c2.33-.33,4.67-.67,7-1l1-2,3-1c.33-1,.67-2,1-3l5-1,1-2h2v-1c1.49-1.17,1.77-1.4,4-2,.72-2.76.28-2.24,3-3v-2h2c.61-1.6.88-2.37,1-5h2l1-3,3-2,1-5h2c.56-3.14.97-4.19,4-5,.16-5.67,2-10.09,3-15h2l1-5,10-1s.09,1.31,2,1v-1h8l1-2,5-1,1,1,1-2h5l3-4h2l3-4h1v-2l3-2v-3h1l1-3h2c.21-2.3.17-2.59,1-4h1v-4l2-1v-2h1v-5h1v-1h4c.33-1.67.67-3.33,1-5Z"/>
      <rect class="cls-1" width="420" height="720"/>
    </g>
  </g>
</svg>