<?xml version="1.0" encoding="UTF-8"?>
<svg id="_レイヤー_2" data-name="レイヤー 2" xmlns="http://www.w3.org/2000/svg" viewBox="0 0 420 720">
  <defs>
    <style>
      .cls-1 {
        fill: none;
      }

      .cls-2 {
        fill: #fff;
        fill-rule: evenodd;
      }
    </style>
  </defs>
  <g id="_レイヤー_2-2" data-name="レイヤー 2">
    <g>
      <path class="cls-2" d="M158.3,464.44c.33,4.25.51,3.39,2,6h1l-1,4h-1c-.33,3.33-.67,6.67-1,10l1,1h-1v3h-1v5h-1c-1.43,4.94,2.52,10.7,2,14h-1v8h-1c-1.09,1.65-1.38,1.67-2,4h-2c-.4,3.51-1.21,5.01-3,7l-2,1v2h-1v2l-2,1-1,4c-1,.67-2,1.33-3,2-.67,3.33-1.33,6.67-2,10l-3,2v12h-1v16h1c.1,1.41-.81-.4-1,1l1,7,2,1v4h-1l1,5h1c.65,2.16-1.33,3.01-1,4l2,1v2h1v2h1v3l2,1,1,4,2,1,1,4h3v1c1.36,1.17,1.53,1.82,2,4h2c.64,2.74,1.31,2.28,2,5h4c.84,1.13-.13.15,1,1v3c2.68-.35,2.84-1.54,5,0l1,2h2l1,2,6,1v1h2v1h3l1,2h3v1h4v1h2v1h2l1,2c1.48.49,4.01-1.81,7-1v1h7v1l3-1v1h7s-.14-1.22,2-1c0,0,.53,1.32,2,1v-1h3v-1h9l1-2h3l1-2c1.1.11,2.79,2.01,5,1l2-3h5l1-2,3,1v-1c4.19-1.36,4.97-2.72,10-3,1.42-5.72,10.08-4.26,17-4,3.37,3.02,14.44.61,20,2v1c2.18.54,3.97-.28,5-1l1-2c1.58-.63,1.94.99,2,1,1.73.27,1.66-.91,2-1h9v-1h2l1-2h2v-1l3-1v-2h4c1.67-2,3.33-4,5-6h2c2.55-1.84,1.69-3.87,6-5v-3c1.86-1.01,3.08-4.04,5-2v-5l1-1,4,1v-1l4-1,1,2h1v-1l7,1v1h1v6l2,1c.42,1.98-.51,1.28-1,2-.63,3.67-3.14,9.36-5,12l-5,4v3l-3,1v1c-1.8,1.49-3.23,2.43-6,3v2c-6.08,1.12-6.09,2.83-8,8-3.83.36-4.58,1.87-7,3h-3c-.33.67-.67,1.33-1,2h-3v1l-6,1v1l-3-1v1h-3v1h-2v1c-1.58.45-1.94-.99-2-1-2.13-.3-2,1-2,1l-9-1v1l-5,1v-1l-5-1v1l-4,1v-1h-5v-1h-2v-1h-6v2c-4.87.22-3.9.62-8,0-.7,2.83-1.78,2.89-3,5-2.48-.44-3.67-.92-7-1v2l-3,1v1l-5,1c-1.14-.79.38-1.3-1-1v1l-5,1v1h-9v1h-2l-1,2c-1.76.7-3-1-3-1-3.01-.32-2.26,1.77-3,2l-5-1-1,2h-1v-1h-9v-1h-3v-1c-1.13-.08-7.95,2.05-11,1v-1h-2v-1l-6,1-1-2h-5v-1h-2l-1-2h-6v-1l-5-1v-1l-3-1v-2c-1.72.65-3.14.95-6,1-1.67-5.59-1.5-.9-5-3l-1-3c-1.12-1.26-2.38-.06-4-1v-1c-1.55-1.13-1.71-1.42-4-2v-2c-2.93-.68-3.27-1.11-4-4h-4c-1.41-2.25-3.19-1.81-4-3v-3l-3-1c-.92-.76-.78-2.04-2-3v-4c-5.47-.72-4.11-2.01-6-6h-1v-4h-1v-2l-3-2v-3h-1v-3h-1v-5h-1v-3h-1v-7l-2-1v-5h-1v-6h-1c-.29-1.65.95-1.78,1-2,.5-2.41-.99-2.59-1-4h1v-9l-1-6h1l1-4h1v-1h-1c.33-3.33.67-6.67,1-10h1v-2h1l1-5h1c.64-1.99-1-3-1-3-.43-3.04,1.53-1.98,2-3v-4l3-2,1-5,2-1v-4l5-4v-2s1.82-1.79,2-2l2-1v-4c.17-.41,1.79-.33,2-2l-2-1c-.72-2.28,2.43-11.27,3-13,.33-3.33.67-6.67,1-10h1c2.25-5.98,4.7-13.36,11-15,2.66-2.49,7.07.32,10,1Z"/>
      <rect class="cls-1" width="420" height="720"/>
    </g>
  </g>
</svg>