<?xml version="1.0" encoding="UTF-8"?>
<svg id="_レイヤー_2" data-name="レイヤー 2" xmlns="http://www.w3.org/2000/svg" viewBox="0 0 420 720">
  <defs>
    <style>
      .cls-1 {
        fill: none;
      }

      .cls-2 {
        fill: #fff;
        fill-rule: evenodd;
      }
    </style>
  </defs>
  <g id="_レイヤー_2-2" data-name="レイヤー 2">
    <g>
      <path class="cls-2" d="M290.69,34.66c3.61.5,5.86.3,7,5h4c1.59,2.87,7.56,9.11,11,10,.79,3.08,1.88,3.38,5,4l1,3h1v3l3,1c1.69,1.47,1.8,3.94,2,7h3v1c1.78,1.58.88,1.93,2,4h1v2h1v3l5,3v5h1l1,4h1v3h1v2h1v3l3,2v8l2,1,1,13h1c.68,2.48-1.02,3.73-1,5h1v3h1v10h-1v2h-1v1h1v11h2v2l6,4v3c1.75,4.03,3.12,6.91,8,8l3,10,2,1v3h1v3h1v7l2,1,1,16c-.05.24-1.36.32-1,2h1v2h1c.1.52-1.56,2.73-1,5h1v4h-1l1,5h-1v2h-1v4h-1v3h-1v3h-1l-1,3-3,2v4l-2,1v3h-1l-2,3-3,1c-2.08,2.2-1.01,3.78-4,6v1s-2.49-1.15-4,0c-.67,1.67-1.33,3.33-2,5-1.82,1.41-10.11,3.5-13,4-.64-2.74-1.31-2.28-2-5h-5l-1-6h1l1-8c3.33-3,6.67-6,10-9l1-2h2l5-7,2-10,3-2v-1h-1v-5s-1.3.11-1-2h1v-4h-1c-.11-.73,1.66-2.62,1-5h-1v-5h-1l1-4-3-2v-1h1s-1.79-7.63-2-8l-3-2-1-4-2-1-1-3h-1v-3c-1.6-2.42-3.56.12-5-5l-4-1c-.72-2.76-.28-2.24-3-3l-1-5h-1l-2-4h1v-2h1c.18-.56,1-9,1-9l-1-1h1l1-6h-1v-2h-1c-1.32-4.01,2.08-5.76,2-8h-1v-2h-1c-.47-1.61.98-1.89,1-2v-1h-1v-5h-1v-5l-2-1v-7h-1l-1-5-3-2,1-5h-1c-1.14-1.14,0-.4-2-1l-1-3h-1v-2l-2-1v-2l-2-1-1-4-5-4,1-3h-1c-2.12-2.98-4.48-4.43-8-6v-3h-3l-3-4h-2l-2-3h-3l-3-4h-3v-1h-2v-1h-2l-2-3c-1.09,0-2.77,2.03-5,1l-2-3-2,1v-1l-4-1v-1l-9-1v1h-4l-1-2h-5v1l-14-1c-.73-.27-.42-2.24-2-2v1h-2v1h-6v1h-4v1h-8v1h-2v1h-4v1h-3v1h-5v1h-1l-1,3-9,2v1h-3v1c-1.14,1.14-.4,0-1,2-2.27.19-2.63.14-4,1v1h-3v1c-1.14,1.14-.4,0-1,2-3.52.91-2.85,2.43-7,3v2l-5,4-1,3h-2c-1.14,1.14,0,.4-2,1-.6,4.5-.86,2.54-3,5h-1l-1,5-3,2v5l-2,1v3h-1v2h-1v6h-1v8h-1c-.94,2.25-.87,3.84-1,7l-3,2v1h-3l-1,2h-5c-1.74-2.54-3.13-1.91-6-3v-1h-1v-4l-3-2,1-4h-1v-4h1c.87-3.22-1.32-6.5-1-8h1c1.22-3.79,1.82-4.27,2-9h2l1-10,2-1v-4l6-5v-4h1c1.31-1.9,1.55-1.91,2-5h2c.99-1.23,2.39-1.23,3-2v-2l5-4v-1l3-1v-2c2.26-.55,2.5-.85,4-2v-1h2v-1h2v-1l3-2,2-3h5v-1c1.14-1.14.4,0,1-2h2v-2c3.11-.36,3.11-.72,5-2v-1h4v-1h2v-1l6-1,1-3h6v-1h2v-1c1.67-.58,6,1,6,1l2-3h3v-1l14-1v-1h2v-1l7,1,1-2,2,1h3v1l10-1,1,2,6-2v1l3,1v1l6-2,1,2h3l1,2c1.82-.18,5.07-1.35,8,0l1,2h4l1,2h3v1h5l1,2h2l1,2h5v1c1.14,1.14.4,0,1,2Z"/>
      <path class="cls-2" d="M99.69,101.66h2c.44,2.48.92,3.67,1,7h-2v4l-3,1-1,2h-3v1h-2v1h-5v1h-5l-1,2h-2c-1.12,4.09-.46,1.16-3,3l-1,2-3,1-1,3-2,1v2l-3,2c-1.61,1.8-.65,2.23-3,4v1h-4v1h-6l-1-2h-4v-1h-1v-5h-2l1-8,3-2v-2h1v-5l4-2c.98-1.44-.37-3.05,1-4h3l1-2h1l4-6,9-2,1-3h1c.85-.66-.05-1.21,2-1v1l7-2v-1l6,1v1l4-1v1c1.36.68,1.29,1.51,2,2h2v1c1.48,1.36,1.35.49,2,3Z"/>
      <path class="cls-2" d="M287.69,475.66c.67,3.67,1.33,7.33,2,11h-1v11h-1l1,3h-1l1,5h-1v2l-2,1v8l-2,1-1,5h-1l-1,4h-1l1,3-3,2c-1.47,2.16-2.37,4.24-3,7h-2c-.27.17-3.1,5.22-4,6h-2l1,3-4,3v1h-3l-1,5c-3.68.28-4.79,1.39-7,3v1h-3l-2,3c-3.24,1.93-3.56-1.58-5,4l-5,1v1l-3-1v1c-1.72,1.13-1.36.63-2,3h-5c-.24-.05-.32-1.33-2-1v1l-8,1v1h-3v1l-4-1-1,2h-2v3c-2.52,1.73-2.86,4.96-5,7-1.33.67-2.67,1.33-4,2v3c-.96,1.25-2.85.86-5,1v3c-2.21,1.19-2.99,2.33-6,3v2c-3.16.68-4.24,1.75-7,3v1c-1.63.61-1.86-.97-2-1-1.56-.3-1.28,1.64-2,2h-3l-1,2c-4.33.67-8.67,1.33-13,2l-2,3c-3.33-.67-6.67-1.33-10-2v1h-5v1l-5-1s-.53,1.29-2,1v-1h-10l-1-2-8,1v-1h-6v-1l-3,1-1-2h-2v-1h-2l-2-3c-3.31-2.36-4.73-1.33-5-7h-1l-1-5h1l1-3h1c1.78-2.57-1.08-1.91,3-3,.65-.57,6.69-2.44,8-2l1,2c2-.33,4-.67,6-1v1h3l1,2h10s-.02,1.29,2,1v-1c2,.33,4,.67,6,1v1l4-1v-1h1v1h5v-1c3.25-.88,6.43,1.31,8,1v-1h3v-1h2v-1c3.33-.67,6.67-1.33,10-2l2-3h2v-1l3-1,1-2h2c1-1.67,2-3.33,3-5l5-3,1-6h1c1.44-2.05,1.77-2.37,2-6,2.93-.68,3.27-1.11,4-4,1.67-.33,3.33-.67,5-1v1h9v-1h2v-1l3,1v-1h3v-1h8l2-3h3v-1l4-1,2-3c2-.67,4-1.33,6-2l6-8,4-3,1-4,2-1-1-2,3-2c.67-2,1.33-4,2-6l2-1v-4h1v-2h1v-4h1v-2h1v-1h-1c-.69-3.29,1.36-5.03,1-7h-1v-5h-1v-1h1v-9l3-2c.2-.35.75-3.4,1-4,4.67-.33,9.33-.67,14-1l2,5h3Z"/>
      <rect class="cls-1" width="420" height="720"/>
    </g>
  </g>
</svg>