<?xml version="1.0" encoding="UTF-8"?>
<svg id="_レイヤー_2" data-name="レイヤー 2" xmlns="http://www.w3.org/2000/svg" viewBox="0 0 420 720">
  <defs>
    <style>
      .cls-1 {
        fill: none;
      }

      .cls-2 {
        fill: #fff;
        fill-rule: evenodd;
      }
    </style>
  </defs>
  <g id="_レイヤー_2-2" data-name="レイヤー 2">
    <g>
      <path class="cls-2" d="M208.41,134.46l1,3h1c1.32,2.26,1.68,5.06,2,8h-2c-.39,2.42-1.19,5.91-2,8l-10,1-1,2-7-1v1c-3.48,1.1-3.03.28-6,0v2h-7c-3.63,1.16-2.69,2.28-7,1l-2,4h-7l-1,2h-2l-2,3h-2l-1,2h-2l-1,2h-2v1c-1.49,1.17-1.78,1.38-4,2-.62,4.53-.88,2.52-3,5h-1v2h-2c-1.38,2.61-1.77,1.69-2,6h-2c-1.06,2.5-2.77,4.86-4,7v2c-1.33,1-2.67,2-4,3v3h-1v2h-1v3c-3.33,1.67-6.67,3.33-10,5v1h-5v-2h-4c-.31-2.3-.18-2.55-1-4h-1v-8c-.04-.2-1.41-.33-1-2h1v-2l2-1v-6l2-1c.33-1.33.67-2.67,1-4h1l1-3,2-1-1-3,2-1v-2h1l1-2h2l2-3c3.22-3.17,6.28-4.1,7-10h2l2-4c2.92-2.06,2.52,1.78,4-3,2.25-.59,2.49-.84,4-2v-1l4-1,2-3h4c1.01-4.33,3.62-4.22,9-4v-1h3l1-3c4.33-.33,8.67-.67,13-1v-1h2l1-2,9-1,1-2,5,1v1l6-1c1.49.2,1.56,1.29,4,1,0,0,.46-1.55,2-1v1c1.72,1.03,1.62,1.39,4,2Z"/>
      <path class="cls-2" d="M167.41,415.46l1,9h-1c-.57,2.23-.83,2.52-2,4h-1l-1,3-2,1-1,4-5,4v5c-.04.08-1.56.87-2,2l1,1c-1.33,1-2.67,2-4,3,0,0,1.59,3.23,1,5h-1v2h-1c.33,2.67.67,5.33,1,8-.16,1.4-.61-.36-1,1v7h1l1,4h1l1,7,2,1,1,4,2,1v2h1c1.68,2.94,1.92,4.34,2,9h-1l1,2h-1v2h-1v3l-2,1v2h-1l-1,2h-2l-3,4h-2c-1.7,5.58-2.38.96-5,3l1,2s-.65.03-1,2h-2c-.33,1.33-.67,2.67-1,4l-4,1-3,5-2,1v5l-2,1-1,4-2,1v3h-1v3h-1v2h-1v6c-.08.33-1.26.28-1,2,0,0,1.58,1.13,1,3h-1v2h-1v3h-1c-.7,2.32,1.18,2.73,1,4h-1c.33,3.33.67,6.67,1,10-.06.26-1.4.3-1,2h1v2h1c.24,1.39-.81-.4-1,1-.31,2.22,1,3,1,3l-1,2h1v2h1c.33,3,.67,6,1,9h1v2l2,1v2h1v4h1v2l2,1v3c1.33,1,2.67,2,4,3v2l2,2,3,1v4l5,2c.99,1.36-.4,3.11,1,4h4v1h2l5,6h4l4,5,7,2v1l4-1,2,3c3.33.67,6.67,1.33,10,2v-1h1v1h16l1-2h1v1c2.18-.15,1.95-.98,2-1h5l1-2,9-1v-1l4-1v-1h2l1-2h2v-1l2,1,2-3c1.86-1.63,6.23-4.38,9-5,.65-2.6,1.59-3.26,3-5h1v-2l2-1v-2l3-2v-3l4-3-1-2h1v-1l13-1v1l4-1,2,3h3l1,2h5v1c1.14,1.14.4,0,1,2,1.81-.07,3.61-1.05,4-1v1l3,1,3-1v1h2v1c1.31.14,1.65-1.64,4-1v1l6,1,1-2,5,1,1-2h4l2-3h2v-1l3-1v-2h2c1.77-3.02,4.54-2.92,6-5l1-4,2-1v-3l2-1c.67-2,1.33-4,2-6l2-1v-2l2-1c1.36-2.98-1.66-4.98-1-7l2-1v-3h1v-4h-1c-1.01-2.89-1.68-9.42,0-12l2-1c1.35-1.34.94-2.65,3-1,2.23-3.4-.69-4.32,5-5v2c4.93-.45,4.67-.77,9,1,.63,1.09,1.69,1.51,2,2v2h1v2l2,1c.91,2.22-1.08,2.75-1,4h1v3h1v1h-1v8h-1c-.33,3.67-.67,7.33-1,11l-2,1v5l-2,1v4h-1l-1,5-2,1v2h-1v3l-3,2-1,4-4,2c-2.39,3.16.1,4.66-5,6-1.6,6.07-2.02,1.79-6,4v1c-3.03,2.36-3.31,5.01-8,6v2l-12,2v1l-4,1v1l-6-1v1h-2v1c-1.3.36-8.99-1.71-10-2h-7l-1-2-6,1v-1h-3l-1-2c-3.33-.67-6.67-1.33-10-2-.72,2.76-.28,2.24-3,3-1.14,1.14,0,.4-2,1-1.44,5.57-5.55,6.6-9,10l-3,4-4,1-3,4h-3v1h-2l-1,2h-3l-2,3-2-1-1,2-4,1-1,2s-5.23-1.77-7-1l-1,2h-2v1l-5,1s-.57-1.33-2-1v1h-3l-1,2h-10v-1l-3,1v-1l-4,1s-.39-1.14-2-1c0,0-.51,1.55-2,1-.67-1-1.33-2-2-3l-8,1-1-2h-4l-1-2h-6l-1-2h-4l-1-2-4-1-1-2h-3l-1-2-6-1-3-4-9-5c-.64-2.74-1.31-2.28-2-5l-6-2v-3h-1c-1.59-2.26-3.13-2.92-4-6-4.09-1.12-1.2-.43-3-3l-2-1v-3h-1c-1.81-2.42-2.8-2.66-3-7h-3v-1h-1v-6l-3-2c-1.28-2.07.13-4.39-1-7l-2-1v-9h-1c-1.11-3.11-.95-5.14-2-8h-1c-.4-1.67.96-1.79,1-2,.66-3.32-1.33-4.98-1-7h1v-13h-1c-.26-1.31,1-2,1-2l-1-3h1l1-4h1c-.09-1.2-1.91-2.66-1-5l2-1-1-6,3-2v-5h1v-3h1l1-4h1l1-7c1.67-1.33,3.33-2.67,5-4l1-6c2.67-1.67,5.33-3.33,8-5v-2h1v-4c.79-1.45,4.8-3.52,7-4v-2c2.76-.72,2.24-.28,3-3-1.01-.87-2.6-2.65-3-4,.24-.45,1.75-.23,1-2l-2-1v-3h-1v-3h-1v-6h-1c-1.4-4.3-2.28-18.51-1-23h1c.74-2.59-1.04-5.31-1-6h1v-2h1c-.33-1.67-.67-3.33-1-5h1v-2l2-1c1.58-2.55,2.64-7.42,3-11h2c.53-1.06,1.85-1.73,2-2,.33-1.67.67-3.33,1-5,2.67-2.33,5.33-4.67,8-7l2-3,4-1v-1l3,1v-1h2c.92-.47.58-2.83,3-2v1c3.99.8,5.34,3.02,9,4Z"/>
      <rect class="cls-1" width="420" height="720"/>
    </g>
  </g>
</svg>