<?xml version="1.0" encoding="UTF-8"?>
<svg id="_レイヤー_1" data-name="レイヤー 1" xmlns="http://www.w3.org/2000/svg" viewBox="0 0 480 480">
  <defs>
    <style>
      .cls-1 {
        fill: #fff;
        fill-rule: evenodd;
      }
    </style>
  </defs>
  <path class="cls-1" d="M414.4,67.44c1.72.47,2.83.52,3.08,2.87l1.94.25c.59,1.49,3.1,4.91,4.71,5.56.19,1.55.7,1.76,2.18,2.26l.3,1.52.49.06-.19,1.46,1.39.68c.73.82.63,2.03.53,3.53l1.46.19-.06.49c.77.88.31,1,.72,2.07l.49.06-.13.97.49.06-.19,1.46c.75.59,1.49,1.18,2.24,1.77-.11.81-.21,1.62-.32,2.43l.49.06c.08.67.15,1.34.23,2.01l.49.06-.19,1.46.49.06-.13.97.49.06-.19,1.46,1.33,1.16c-.17,1.3-.34,2.59-.51,3.89l.91.61c-.11,2.13-.23,4.25-.34,6.38l.49.06c.17,1.25-.73,1.75-.8,2.37l.49.06c-.06.49-.13.97-.19,1.46l.49.06-.63,4.86-.49-.06-.13.97-.49-.06-.06.49.49.06c-.23,1.78-.46,3.56-.7,5.34l.97.13-.13.97c.89.77,1.77,1.55,2.66,2.32l-.19,1.46c.59,2.07,1.08,3.56,3.38,4.39.27,1.68.55,3.37.82,5.05l.91.61c-.06.49-.13.97-.19,1.46l.49.06c-.06.49-.13.97-.19,1.46l.49.06-.44,3.4.91.61c-.18,2.61-.35,5.23-.53,7.84-.04.11-.68.07-.61.91l.49.06-.13.97.49.06c.02.26-.93,1.23-.8,2.37l.49.06c-.08.65-.17,1.3-.25,1.94l-.49-.06c.06.83.11,1.66.17,2.49l-.49-.06-.13.97-.49-.06c-.08.65-.17,1.3-.25,1.94l-.49-.06-.19,1.46-.49-.06-.19,1.46-.49-.06-.68,1.39-1.58.78c-.08.65-.17,1.3-.25,1.94l-1.04.36-.19,1.46-.49-.06-1.16,1.33-1.52.3c-1.15.94-.73,1.77-2.32,2.66l-.06.49s-1.14-.72-1.94-.25c-.43.77-.86,1.54-1.29,2.3-.97.57-5.14,1.06-6.57,1.12-.14-1.37-.49-1.19-.65-2.56l-2.43-.32c-.04-.99-.07-1.99-.11-2.98l.49.06c.33-1.27.66-2.55.99-3.82,1.81-1.25,3.62-2.49,5.43-3.74l.61-.91.97.13,2.87-3.08c.54-1.58,1.07-3.15,1.61-4.73l1.58-.78.06-.49-.49-.06c.11-.81.21-1.62.32-2.43,0,0-.64-.03-.36-1.04l.49.06c.08-.65.17-1.3.25-1.94l-.49-.06c0-.36.97-1.17.8-2.37l-.49-.06c.11-.81.21-1.62.32-2.43l-.49-.06c.25-.63.49-1.25.74-1.88l-1.33-1.16.06-.49.49.06s-.39-3.82-.46-4.01l-1.33-1.16c-.08-.67-.15-1.34-.23-2.01l-.91-.61-.3-1.52-.49-.06.19-1.46c-.62-1.28-1.74-.17-2.11-2.75l-1.88-.74c-.18-1.39,0-1.1-1.27-1.65-.06-.83-.11-1.66-.17-2.49l-.49-.06-.72-2.07.49.06.13-.97.49.06c.12-.26,1.06-4.31,1.06-4.31l-.42-.55.49.06c.29-.95.58-1.9.87-2.85l-.49-.06.13-.97-.49-.06c-.39-2.03,1.37-2.67,1.48-3.76l-.49-.06.13-.97-.49-.06c-.12-.81.6-.86.61-.91l.06-.49-.49-.06c.11-.81.21-1.62.32-2.43l-.49-.06c.11-.81.21-1.62.32-2.43l-.91-.61c.15-1.13.3-2.27.44-3.4l-.49-.06c-.06-.83-.11-1.66-.17-2.49-.44-.39-.89-.77-1.33-1.16.27-.79.54-1.58.8-2.37l-.49-.06c-.48-.63.02-.19-.91-.61l-.3-1.52-.49-.06.13-.97-.91-.61.13-.97-.91-.61c-.08-.67-.15-1.34-.23-2.01l-2.18-2.26.68-1.39-.49-.06c-.84-1.58-1.9-2.44-3.51-3.42l.19-1.46-1.46-.19-1.2-2.13-.97-.13-.78-1.58-1.46-.19c-.4-.71-.8-1.42-1.2-2.13l-1.46-.19.06-.49-.97-.13.06-.49-.97-.13-.78-1.58c-.53-.07-1.47.81-2.49.17l-.78-1.58-1.04.36.06-.49-1.88-.74.06-.49-4.31-1.06-.06.49-1.94-.25-.36-1.04-2.43-.32-.06.49-6.74-1.37c-.34-.18-.06-1.12-.84-1.1l-.06.49-.97-.13-.06.49-2.92-.38-.06.49-1.94-.25-.06.49-3.89-.51-.06.49-.97-.13-.06.49-1.94-.25-.06.49-1.46-.19-.06.49-2.43-.32-.06.49-.49-.06-.68,1.39-4.5.4-.06.49-1.46-.19-.06.49c-.63.48-.19-.02-.61.91-1.12-.05-1.29-.1-2.01.23l-.06.49-1.46-.19-.06.49c-.63.48-.19-.02-.61.91-1.77.22-1.54,1-3.59,1.01l-.13.97-2.68,1.63-.68,1.39-.97-.13c-.63.48-.03.19-1.04.36-.58,2.15-.58,1.18-1.77,2.24l-.49-.06c-.27.79-.54,1.58-.8,2.37l-1.58.78-.32,2.43-1.04.36-.19,1.46-.49-.06-.13.97-.49-.06-.38,2.92-.49-.06c-.17,1.3-.34,2.59-.51,3.89l-.49-.06c-.6,1.03-.66,1.81-.93,3.34l-1.58.78-.06.49-1.46-.19-.61.91-2.43-.32c-.68-1.35-1.4-1.12-2.73-1.84l.06-.49-.49-.06.25-1.94-1.33-1.16.74-1.88-.49-.06c.08-.65.17-1.3.25-1.94l.49.06c.63-1.51-.23-3.24.02-3.95l.49.06c.83-1.76,1.15-1.96,1.54-4.25l.97.13c.37-1.6.75-3.2,1.12-4.8l1.04-.36.25-1.94,3.23-2.05.25-1.94.49.06c.76-.84.87-.83,1.29-2.3l.97.13c.56-.53,1.24-.44,1.58-.78l.13-.97,2.68-1.63.06-.49,1.52-.3.13-.97c1.13-.12,1.27-.25,2.07-.72l.06-.49.97.13.06-.49.97.13.06-.49,1.58-.78,1.16-1.33,2.43.32.06-.49c.63-.48.19.02.61-.91l.97.13.13-.97c1.53.02,1.56-.15,2.56-.65l.06-.49,1.94.25.06-.49.97.13.06-.49,2.98-.11.68-1.39,2.92.38.06-.49.97.13.06-.49c.85-.18,2.85.87,2.85.87l1.16-1.33,1.46.19.06-.49,6.87.4.06-.49.97.13.06-.49,3.34.93.61-.91.91.61,1.46.19-.06.49,4.92.15.36,1.04,3.04-.59-.06.49,1.39.68-.06.49,3.04-.59.36,1.04,1.46.19.36,1.04c.9.03,2.55-.34,3.89.51l.36,1.04,1.94.25.36,1.04,1.46.19-.06.49,2.43.32.36,1.04.97.13.36,1.04,2.43.32-.06.49c.48.63.19.03.36,1.04ZM135.12,93.98l.06.98c1.56.71.93.88,3.48.78.09,1.47.17,2.94.26,4.4,0,.03.83.16.55.95l-.49.03c-.62,1.3-1.5,2.85-2.73,3.6l-.98.06.03.49-2.45.14-.03-.49-.49.03.03.49-5.38.32.03.49-.98.06-.43,1.01c-1.27.71-2.76.07-3.86,1.21-.52.59-.19.01-.43,1.01-1.42.4-1.61.71-2.36,1.61l-.49.03-.4,1.5-.98.06.09,1.47c-1.16.78-1.27,1.62-2.82,2.13-.12.66-.25,1.32-.37,1.99-1.93.37-1.66.72-2.85,1.64l.03.49-1.96.12c-1.89-2.31-1.26-.01-2.96-.32l-.03-.49-1.5-.4-.95.55-.55-.95-3.42.2-.03-.49-1.96.12-.03-.49-2.42.63.03.49-.98.06.03.49-.49.03-.03-.49-4.86.78.03.49-.98.06.03.49-1.47.09.03.49-2.93.17-.86,2.01c-.88,1.06-4.68,3.81-6.13,4.29l-.37,1.99-.98.06c-.23.52-.86.91-.92,1.04l.09,1.47-.49.03.06.98-.49.03.06.98-.95.55-.37,1.99-.95.55c.07,1.14.13,2.28.2,3.42l-.49.03c0,2.94.02,5.89.03,8.83.08,1.02.61,1.57.6,1.93l-.49.03.06.98-.49.03.6,1.93-.95.55.06.98-.49.03-.4,1.5c-1.45.37-1.92.76-3.42.2l-.03-.49-1.96.12-.03-.49c-.59-.52-.19,0-.55-.95l-1.47.09-.55-.95-.49.03c-.03-.49-.06-.98-.09-1.47l-.49.03-.58-1.44s.6-.53.43-1.01l-.49.03-.63-2.42.49-.03.32-2.96-.49.03-.6-1.93.95-.55-.6-1.93.49-.03-.23-3.91.49-.03-.06-.98.49-.03-.12-1.96.95-.55-.12-1.96.49-.03-.06-.98.95-.55-.12-1.96.49-.03.4-1.5.98-.06.81-2.99.98-.06c.7-1.47,1.59-1.97,1.73-4.03l1.47-.09c.91-1.2,1.82-2.4,2.73-3.6l.98-.06.43-1.01,1.47-.09.43-1.01.98-.06-.03-.49,1.47-.09c.44-.84.88-1.69,1.32-2.53l5.81-1.32-.03-.49.98-.06-.03-.49,2.93-.17-.03-.49.98-.06-.03-.49,2.47.35-.03-.49,5.87-.35,5.87-.35.03.49c1.12.39,1.91.33,3.45.29l-.06-.98.98-.06c.09-.49,1.02-3.29,1.27-3.51l.98-.06-.03-.49,1.44-.58.86-2.01,2.42-.63.43-1.01,1.47-.09.89-1.53,2.42-.63s.32.65,1.01.43l-.03-.49,2.42-.63-.03-.49.98-.06-.03-.49,3.94.26-.03-.49c2.19-.71,4.9-.38,6.36-.37ZM317.35,87.89l.97.13c.06,1.23.21,1.84.04,3.46l-.97-.13-.25,1.94-1.52.3-.61.91-1.46-.19-.06.49-.97-.13-.06.49-2.43-.32-.06.49-2.43-.32-.61.91-.97-.13c-.81,1.92-.29.53-1.65,1.27l-.61.91-1.52.3-.68,1.39-1.04.36-.13.97-1.58.78c-.9.77-.46,1.04-1.71,1.75l-.06.49-1.94-.25-.06.49-2.92-.38-.36-1.04-1.94-.25.06-.49-.49-.06.32-2.43-.97-.13c.33-1.27.66-2.55.99-3.82l1.58-.78.13-.97.49.06c.11-.81.21-1.62.32-2.43l2.07-.72c.57-.64.01-1.5.74-1.88l1.46.19.61-.91.49.06c.77-.89,1.55-1.77,2.32-2.66l4.5-.4.68-1.39.49.06c.45-.27.05-.59,1.04-.36l-.06.49,3.53-.53.06-.49,2.85.87-.06.49,2.01-.23-.06.49c.62.42.53.82.84,1.1l.97.13-.06.49c.63.75.63.33.78,1.58ZM71.05,329.98h1.47v.49c2.09,1.79,1.77,5.94,1.47,8.82h-.98c-.66,1.24-.98,1.72-.98,3.92h-.49l.49,1.47-.98.49v.98l-.98.49v.98l-.98.49v.98h-.49l.49,1.47-1.47.98c-.14.38.92,1.4.49,2.45l-.98.49v2.45l-1.47.98.49,2.45h-.49v1.47h-.49c-.18.82.47.86.49.98v1.96h-.49c-.23.99.49,1.47.49,1.47-.16.65-.33,1.31-.49,1.96h.49v1.96h-.49c-.46,1.66.62,2.91.49,3.92,0,0-.74.48-.49,1.47h.49v2.45l1.47.98c.16,1.14.33,2.29.49,3.43h.49c.64,1.37.87,2.05.98,3.92h.98c.31.19,1.82,3.2,1.96,3.92l1.96.49v1.47c3.24,1.9,4.37,5.63,9.31,5.88v.98l3.43.49.98,1.47h2.94s.02.3.98.49c.38,1.47.3,1.29,1.96,1.47,1.42-1.92,1.86-.51,3.43,0h2.45v.49l3.92-.49v.49h5.39v-.49h.98l.49-.98h2.45s-.06-.31.98-.49c.73-2.34.57-.44,1.96-1.47v-.49h.49v-.98c2.27-.23,2.24-1.17,4.41-1.47.54-2.27,3.03-3.41,4.41-4.9l.98-1.96h2.45v.49h2.94v.49c.71.4.83.36,1.96.49l.49,1.47,2.94.49c.33.49.65.98.98,1.47l2.94-.49c1.15.31,3.29,1.71,5.39.98v-.49h.98v-.49l4.41-.49v-.49l2.94-.49.49-.98,2.94-.49v-.98l1.47-.49c1.15-.73,2.03-1.41,2.45-2.94h.98c.32-1.34.64-1.12.98-2.45h.98c.35-.66,1.38-1.29,1.47-1.47v-1.96l1.96-1.47v-1.47c.46-.92,1.54-1.92,2.45-2.45v-.49l4.9-.98.49.49v-.49h1.47l.98,1.47-.49.49c.65.49,1.31.98,1.96,1.47-.16,1.96-.33,3.92-.49,5.88l-1.47.98v1.47l-1.96,1.47c-1.19,1.34-2.02,3.35-2.45,5.39-1.35.35-1.1.14-1.47,1.47-1.58.36-1.78.67-1.96,2.45-1.66.35-2.35,1.08-3.43,1.96v.49h-.98l-.49.98-2.94.98-.49.98h-.98v.49h-1.47l-.49.98h-.98v.49h-2.45c-.33.49-.65.98-.98,1.47-1.03.48-3.23-.5-3.43-.49v.49h-1.96v.49l-1.47-.49-.49.98h-1.96v.49c-.57.1-.86-.67-1.96-.49-.05,0-.19.73-.98.49l-.49-.98-3.43.49v-.49l-1.96-.49v-.49h-2.94v-.49h-1.47v-.49c-.7-.42-.84-.35-1.96-.49-.75,1.19-.36.35-1.47.98v.49h-1.47l-.49,1.47-.98.49v.49c-1,.77-1.18.19-2.45,0-.32,1.34-.64,1.12-.98,2.45h-2.45l-.49,1.47-2.45.49v.49h-.98l-.49.98h-1.96v.49h-1.47v.49l-3.92.49v.49l-7.35-.49v.49h-.49v-.49h-1.96v-.49h-2.94v-.49c-.58-.04-1.27.9-2.45.49v-.49l-1.96-.49v-.49c-1.1-.38-1.4.63-1.96.49v-.49h-.98l-.98-1.47-2.94.49v-.49c-.56-.56-.2,0-.49-.98l-1.96.49-.49-.98h-2.45c-.33-.65-.65-1.31-.98-1.96l-2.45-.49v-.49h-.98l-.49-.98h-.98v-.49c-.67-.45-.86-.33-1.96-.49v-.98c-1.17-.53-3.25-1.49-3.92-2.45-1.32-1.9.21-2.21-2.94-2.94-.36-1.66-1.08-2.34-1.96-3.43h-.49l-.49-1.96-1.96-1.47v-1.47l-.98-.49v-.98h-.49v-1.96l-.98-.49c-.16-.98-.33-1.96-.49-2.94h-.49v-.98h-.49v-1.47h-.49v-3.92c-.25-.84-1.34-2.45-.98-3.92h.49v-1.96h-.49c-.14-.73.49-.98.49-.98l-.49-.98h.49v-1.96h-.49c.16-.98.33-1.96.49-2.94.01-.97-.49-3.92-.49-3.92l.98-.49v-4.41l.98-.49-.49-1.96h.49v-.98l.98-.49-.49-1.47h.49v-.98h.49v-3.43l1.47-.98v-1.47l1.47-.98v-1.96l.98-.49c.44-1.04-.63-2.08-.49-2.45h.49c.58-.99.78-.89.98-2.45l-1.96-1.47v-.98l-.98-.49v-2.45l-1.47-.98v-2.45h-.49v-.98h-.49v-4.9l-.98-.49c-.43-1.04.5-3.34.49-3.43h-.49c-.16-.98-.33-1.96-.49-2.94h.49v-.98h.49c.54-1.63-.9-1.33,0-2.94l.98-.49v-.98h.49l-.98-2.94,1.47-.98c1.98-3.17.29-6.37,4.9-7.35.68-2.95,3.07-3.08,6.86-2.94v.49c1.21-.5,1.17-.59,1.96.49h.49c-.04.59-.93,1.3-.49,2.45l.98.49c.24.83-.46.86-.49.98v2.94h-.49v.98l-.98.49v1.47l-.98.49c-.16.65-.33,1.31-.49,1.96h-.49l.49,2.45-1.47.98v2.94h-.49l.49,1.96h-.49v3.43l.98.49v4.41l.98.49v.98c.8,1.44,1.72,2.24,1.96,4.41ZM433.67,313.15l.98,5.39h-.49v5.39h-.49l.49,1.47h-.49l.49,2.45h-.49v.98l-.98.49v3.92l-.98.49-.49,2.45h-.49l-.49,1.96h-.49l.49,1.47-1.47.98c-.72,1.06-1.16,2.08-1.47,3.43h-.98c-.13.08-1.52,2.56-1.96,2.94h-.98l.49,1.47-1.96,1.47v.49h-1.47l-.49,2.45c-1.8.14-2.35.68-3.43,1.47v.49h-1.47l-.98,1.47c-1.59.95-1.74-.77-2.45,1.96l-2.45.49v.49l-1.47-.49v.49c-.84.55-.66.31-.98,1.47h-2.45c-.12-.03-.16-.65-.98-.49v.49l-3.92.49v.49h-1.47v.49l-1.96-.49-.49.98h-.98v1.47c-1.23.85-1.4,2.43-2.45,3.43l-1.96.98v1.47c-.47.61-1.39.42-2.45.49v1.47c-1.08.58-1.46,1.14-2.94,1.47v.98c-1.55.33-2.08.86-3.43,1.47v.49c-.8.3-.91-.48-.98-.49-.76-.15-.63.8-.98.98h-1.47l-.49.98c-2.12.33-4.25.65-6.37.98l-.98,1.47-4.9-.98v.49h-2.45v.49l-2.45-.49s-.26.63-.98.49v-.49h-4.9l-.49-.98-3.92.49v-.49h-2.94v-.49l-1.47.49-.49-.98h-.98v-.49h-.98l-.98-1.47c-1.62-1.16-2.32-.65-2.45-3.43h-.49l-.49-2.45h.49l.49-1.47h.49c.87-1.26-.53-.94,1.47-1.47.32-.28,3.28-1.19,3.92-.98l.49.98c.98-.16,1.96-.33,2.94-.49v.49h1.47l.49.98h4.9s0,.63.98.49v-.49l2.94.49v.49l1.96-.49v-.49h.49v.49h2.45v-.49c1.59-.43,3.15.64,3.92.49v-.49h1.47v-.49h.98v-.49c1.63-.33,3.27-.65,4.9-.98l.98-1.47h.98v-.49l1.47-.49.49-.98h.98l1.47-2.45,2.45-1.47.49-2.94h.49c.71-1.01.87-1.16.98-2.94,1.43-.34,1.6-.55,1.96-1.96.82-.16,1.63-.33,2.45-.49v.49h4.41v-.49h.98v-.49l1.47.49v-.49h1.47v-.49h3.92l.98-1.47h1.47v-.49l1.96-.49.98-1.47,2.94-.98,2.94-3.92,1.96-1.47.49-1.96.98-.49-.49-.98,1.47-.98.98-2.94.98-.49v-1.96h.49v-.98h.49v-1.96h.49v-.98h.49v-.49h-.49c-.34-1.61.66-2.46.49-3.43h-.49v-2.45h-.49v-.49h.49v-4.41l1.47-.98c.1-.17.37-1.66.49-1.96l6.86-.49.98,2.45h1.47Z"/>
</svg>