<?xml version="1.0" encoding="UTF-8"?>
<svg id="_レイヤー_1" data-name="レイヤー 1" xmlns="http://www.w3.org/2000/svg" viewBox="0 0 480 480">
  <defs>
    <style>
      .cls-1 {
        fill: #fff;
        fill-rule: evenodd;
      }
    </style>
  </defs>
  <path class="cls-1" d="M381.75,53.86l.85,1.3c3.32-.73,4.57,1.09,7.38,1.11l.25.95c.66.17.85.58,1.2.7l.95-.25,1.32,1.17,1.42-.37.25.95c2.54.03,1.55,1.41,3.94,1.5l.37,1.42c1.97.02,1.69.71,2.99,1.75l1.67.58.12.47.95-.25c.68,1.38,1.19,1.44,1.81,3.07l2.02-.02.49,1.9.95-.25.85,1.3.47-.12.25.95.47-.12c.2.42-.66,1.63.14,2.49l2.14.45.37,1.42c.48.53,1.22-.39,1.44,1.65,0,.03-.67.38-.23,1.07l1.07.23.37,1.42c1.21,0,.92-.08,1.67.58l.47-.12c.06.69-.39,2.28.39,3.44l.47-.12.25.95.47-.12.49,1.9.47-.12c.19.56-.52,1.44.14,2.49l.47-.12.25.95.47-.12.27,2.97.47-.12.85,1.3-.47.12.37,1.42-.47.12.87,3.32,3.94,1.5c1.68,1.36.34,2.64,3.24,2.7.82,1.51,1.77,1.31,2.64,2.35l.37,1.42.47-.12.25.95.47-.12.25.95,1.07.23.25.95.47-.12.49,1.9,1.67.58s-.3,1.76.14,2.49l.47-.12.49,1.9.47-.12.49,1.9.47-.12.25.95.47-.12c1.57,2.3,1.17,6.06,1.63,8.18l1.55.1-.1,1.55c.03.07.78-.02.72.82l-.47.12.25.95-.82.72.37,1.42-.47.12,1.22,2.72-.47.12.02,2.02-1.88,2.52.17,4.51-.95.25c-.78,2.84-3.46,5.29-3.36,8.47l-2.6,1.69c0,1.21.08.92-.58,1.67l.12.47-2.37.62.12.47c-.62.6-1.04.72-2.25,1.09l-.12-.47-1.42.37-3.71-2.58-.47.12-.25-.95c1.01-1.72-.15-2.19-.99-3.79,1.18-1.11,1.66-2.5,3.17-3.36,0-1.4-.14-1.1,1.05-1.79l-.37-1.42.95-.25,2.33-4.66.82-.72-.25-.95.47-.12-.25-.95.47-.12-.37-1.42.82-.72-.25-.95.47-.12-1.09-2.25.82-.72-1.59-4.14-2.08-6.04-.47.12-.62-2.37-.47.12-.25-.95-1.07-.23-.25-.95-1.07-.23-.62-2.37-1.07-.23-.85-1.3-.95.25-.85-1.3-.47.12-.37-1.42-1.67-.58-.85-1.3c-1.38-.49-.37.84-2.14-.45l-.47.12s-.87-1.64-.97-1.77l-1.42.37-1.71-4.62.47-.12-1.11-4.27.47-.12c-.11-.68-.35.3-.6-.35-.29-.77.23-1.07.23-1.07l-.85-1.3-.99-3.79-.47.12c-.57-.99.25-1.52-.02-2.02l-.47.12-.25-.95-1.07-.23-.25-.95-.47.12-.74-2.84-.47.12-.25-.95-1.07-.23-.37-1.42-1.07-.23-.49-1.9-1.07-.23-.97-1.77-.95.25c-1.13-2.28-3.06-4.18-4.93-5.3l-2.27-.93c-.65-.62-.22-1.43-.97-1.77l-.95.25-.72-.82c-2.23-.8-3.45-.28-4.78-2.8-2.06.28-1.87-.35-3.69-.56l-.12-.47-.47.12.12.47-2.02.02-.85-1.3c-1.76.34-1.93.21-3.09-.21l-.12-.47-3.44.39-.72-.82-1.3.85-.12-.47-2.02.02-.12-.47-4.86.76s-.23.84-1.3.85l-.12-.47-1.42.37-.12-.47-4.62,1.71-.12-.47c-2.23-.06-3.53,1.57-4.49,2.19-1.46.93-3.55.08-4.39.64l-.58,1.67-2.49.14.12.47-1.42.37.12.47-3.2,1.34.12.47-.95.25.12.47-1.42.37-.23,1.07c-1.63,1.67-3.04.78-3.05,3.83-1.4.7-3.17,2.29-3.65,3.48l.25.95-.47.12c-.47.88-.09.67-1.17,1.32.04,1.47-.12,1.69-1.4,2.39.01,2.08-.96,2.22-2.1,3.59l-.93,2.27-2.37.62.12.47c-.58.57-.71.57-1.77.97-.98-1.01-2.04-1.37-3.46-1.63l-.02-2.02-.47.12-.97-1.77.47-.12.1-1.55.47-.12-.37-1.42.82-.72-.37-1.42,1.17-1.32-.37-1.42.47-.12c.4-1.05.5-1.11.33-2.62,1.43-.76.84-.98,2.6-1.69l-.25-.95,1.88-2.52-.12-.47-.12-.47.47-.12-.12-.47,1.9-.49c.07-2.02-.03-.63,1.05-1.79l-.12-.47.95-.25.93-2.27.95-.25.23-1.07,1.42-.37.58-1.67,2.84-.74-.12-.47.95-.25.23-1.07,2.84-.74-.25-.95,4.86-.76.23-1.07,3.67-1.46.23-1.07c.29-.15,2.74.84,4.51-.17l-.12-.47,7.59-1.98.12.47.47-.12,1.77-.97.12.47,1.42-.37.12.47,9.26-1.4.12.47,1.42-.37.12.47,3.09.21.12.47,3.44-.39.12.47,1.55.1Z"/>
  <path class="cls-1" d="M63.79,324.52c.16,2.08.25,1.66.98,2.94h.49l-.49,1.96h-.49l-.49,4.9.49.49h-.49v1.47h-.49v2.45h-.49c-.7,2.42,1.24,5.25.98,6.86h-.49v3.92h-.49c-.53.81-.67.82-.98,1.96h-.98c-.2,1.72-.59,2.45-1.47,3.43l-.98.49v.98h-.49v.98l-.98.49-.49,1.96-1.47.98-.98,4.9-1.47.98v5.88h-.49v7.84h.49c.05.69-.4-.2-.49.49l.49,3.43.98.49v1.96h-.49l.49,2.45h.49c.32,1.06-.65,1.47-.49,1.96l.98.49v.98h.49v.98h.49v1.47l.98.49.49,1.96.98.49.49,1.96h1.47v.49c.67.57.75.89.98,1.96h.98c.32,1.34.64,1.12.98,2.45h1.96c.41.56-.06.07.49.49v1.47c1.31-.17,1.39-.76,2.45,0l.49.98h.98l.49.98,2.94.49v.49h.98v.49h1.47l.49.98h1.47v.49h1.96v.49h.98v.49h.98l.49.98c.72.24,1.97-.89,3.43-.49v.49h3.43v.49l1.47-.49v.49h3.43s-.07-.6.98-.49c0,0,.26.65.98.49v-.49h1.47v-.49h4.41l.49-.98h1.47l.49-.98c.54.05,1.37.98,2.45.49l.98-1.47h2.45l.49-.98,1.47.49v-.49c2.05-.67,2.44-1.33,4.9-1.47.7-2.8,4.94-2.09,8.33-1.96,1.65,1.48,7.07.3,9.8.98v.49c1.07.27,1.95-.14,2.45-.49l.49-.98c.77-.31.95.49.98.49.85.13.81-.45.98-.49h4.41v-.49h.98l.49-.98h.98v-.49l1.47-.49v-.98h1.96c.82-.98,1.63-1.96,2.45-2.94h.98c1.25-.9.83-1.9,2.94-2.45v-1.47c.91-.5,1.51-1.98,2.45-.98v-2.45l.49-.49,1.96.49v-.49l1.96-.49.49.98h.49v-.49l3.43.49v.49h.49v2.94l.98.49c.21.97-.25.63-.49.98-.31,1.8-1.54,4.59-2.45,5.88l-2.45,1.96v1.47l-1.47.49v.49c-.88.73-1.58,1.19-2.94,1.47v.98c-2.98.55-2.98,1.39-3.92,3.92-1.87.17-2.24.92-3.43,1.47h-1.47l-.49.98h-1.47v.49l-2.94.49v.49l-1.47-.49v.49h-1.47v.49h-.98v.49c-.77.22-.95-.49-.98-.49-1.05-.15-.98.49-.98.49l-4.41-.49v.49l-2.45.49v-.49l-2.45-.49v.49l-1.96.49v-.49h-2.45v-.49h-.98v-.49h-2.94v.98c-2.39.11-1.91.31-3.92,0-.34,1.39-.87,1.41-1.47,2.45-1.21-.22-1.8-.45-3.43-.49v.98l-1.47.49v.49l-2.45.49c-.56-.39.19-.64-.49-.49v.49l-2.45.49v.49h-4.41v.49h-.98l-.49.98c-.86.34-1.47-.49-1.47-.49-1.48-.16-1.11.87-1.47.98l-2.45-.49-.49.98h-.49v-.49h-4.41v-.49h-1.47v-.49c-.56-.04-3.89,1.01-5.39.49v-.49h-.98v-.49l-2.94.49-.49-.98h-2.45v-.49h-.98l-.49-.98h-2.94v-.49l-2.45-.49v-.49l-1.47-.49v-.98c-.84.32-1.54.47-2.94.49-.82-2.74-.73-.44-2.45-1.47l-.49-1.47c-.55-.62-1.17-.03-1.96-.49v-.49c-.76-.56-.84-.7-1.96-.98v-.98c-1.43-.34-1.6-.55-1.96-1.96h-1.96c-.69-1.1-1.56-.89-1.96-1.47v-1.47l-1.47-.49c-.45-.37-.38-1-.98-1.47v-1.96c-2.68-.35-2.01-.99-2.94-2.94h-.49v-1.96h-.49v-.98l-1.47-.98v-1.47h-.49v-1.47h-.49v-2.45h-.49v-1.47h-.49v-3.43l-.98-.49v-2.45h-.49v-2.94h-.49c-.14-.81.47-.87.49-.98.24-1.18-.48-1.27-.49-1.96h.49v-4.41l-.49-2.94h.49l.49-1.96h.49v-.49h-.49l.49-4.9h.49v-.98h.49l.49-2.45h.49c.31-.97-.49-1.47-.49-1.47-.21-1.49.75-.97.98-1.47v-1.96l1.47-.98.49-2.45.98-.49v-1.96l2.45-1.96v-.98s.89-.88.98-.98l.98-.49v-1.96c.08-.2.88-.16.98-.98l-.98-.49c-.35-1.12,1.19-5.52,1.47-6.37l.49-4.9h.49c1.1-2.93,2.3-6.55,5.39-7.35,1.3-1.22,3.47.16,4.9.49Z"/>
  <path class="cls-1" d="M416.47,331.43v1.96l2.45,1.47c-.59,3.17-2.53,5.18-2.94,8.82h-.98v1.47l-.98.49v.98l-2.45,3.43-1.47.98v1.47l-.98.49c-.56.7-.74,1.42-.98,2.45h-.98c-.34.68-.71.61-.98.98-.9,1.25.53.92-1.47,1.47-.32,1.34-.64,1.12-.98,2.45h-1.47c-.54,1.02-.79.87-.98,2.45l-2.45.49-.49,1.47c-1.69.36-3.28,1.46-4.41,2.45l-.49.98-1.47-.49-.49.98-1.47.49v.49l-2.45.49-.49,1.47-2.94-.49s-.04.48-.98.49l-.49-.49v.49l-1.96.49v.49c-.98.3-1.47-.49-1.47-.49l-2.94.49v.49c-.6.1-.83-.77-1.96-.49-1.11.28-7.62,1.22-9.31.49l-.49-.98c-.36-.18-1.53-.31-1.96-.49-1.06-2.34-1.48-3.12-1.47-6.86l1.47-.49c.56-.56,0-.2.98-.49v-1.96c.84-.32,1.54-.47,2.94-.49,1.34,1.18,2.04-.47,3.92,0v.49h1.47v.49l1.47-.49v-.49h.98v-.49l2.94.49v-.49h1.47v-.49c.64.07.85.86,1.96.49v-.49h.98v-.49h1.96v-.49l1.96-.49.49-1.47h1.47v-.49l.98.49.49-1.47c.63-.71,1.7-.84,2.94-.98v-1.47h.49c.49-.59,2.29-2.05,2.94-2.45h.98l2.45-3.43v-.98l.98-.49c1.07-1.15,2.04-2.09,2.45-3.92h.98l.49-1.96.98-.49v-1.47l1.47-.98.98-4.9h.98l.98-1.47h.49v-.98c.59-.67,2.16-.51,3.43-.49.73,1.26,1.75,1.65,3.43,1.96Z"/>
</svg>