<?xml version="1.0" encoding="UTF-8"?>
<svg id="_レイヤー_1" data-name="レイヤー 1" xmlns="http://www.w3.org/2000/svg" viewBox="0 0 480 480">
  <defs>
    <style>
      .cls-1 {
        fill: #fff;
        fill-rule: evenodd;
      }
    </style>
  </defs>
  <path class="cls-1" d="M413.53,91.66c.71.16,2.15.55,2.45.98v1.47l1.47.98v2.94l1.96,1.47v1.96h.49c1.17,1.61,1.39.98.98,2.94l1.47.98c.18.47-.85.91-.49,1.96h.49l.49,1.96h.49v3.43h.49v2.94h.49v1.96h.49v6.37c.03.13.64.15.49.98h-.49v1.96h-.49l.49,1.47,1.47.49v.98l1.47.49v.49h1.47l.49.98h1.47l1.47,1.96h.49c.4.58.38,2.07.98,2.45h.98v.98h.98l2.45,3.43,1.47.49.49,2.45,1.47.98v1.96h.49v.98l.98.49v1.96l.98.49.49,3.92h.49v.98h.49v1.96h.49v10.29h-.49l-.49,1.96h.49l.49,1.47h-.49v.98h-.49l-.49,2.45-.98.49-.49,3.43h-.49v.98c-.91,1.42-1.57.19-1.96,2.94h-.98c.03,1.41.08,2.66-.49,3.43l-.98.49v1.96h-.49c-.27.32-3.56,2.45-3.92,2.45v-.49l-1.47-.49v.49c-.74.34-.81.37-1.96.49v-.98h-1.47v-.49c-1.07-.91-1.4-2.52-2.45-3.43l.49-1.47h.49v-.98h.49l-.49-2.45h.49v-.98l2.45-1.96.49-2.94.98-.49.98-2.94.98-.49v-.49h-.49c-.2-1.63.67-3.34.98-4.41l-.49-2.94.98-.49c.36-1.36-.83-1.09-.98-1.47l-.49-5.88-.98-.49-.49-2.45h.49v-.49l-1.96-.98v-1.96l-1.96-.98v-.98l-.98-.49.49-.98h-.98v-.49l-.98-.49-.49-1.47-2.45-.49-.49-1.47h-.49c-.8-.86-1.01-1.15-2.45-1.47v-.98c-3.1,1.03-4.41-1.31-5.88-3.43h-.49c-.57-.72-.71-.86-.98-1.96l.98-.49v-.49h-.49v-4.9c-.04-.16-.64-.13-.49-.98h.49c.58-2.27.14-9.7-.49-11.27h-.49v-.98h-.49l-.49-3.43h-.49v-2.94l-.98-.49-.49-2.45-1.47-.98v-1.47h-.49v-.98l-.98-.49v-1.96h-.49v-.49c-.92-.4-1.28-.73-2.45-.98v-.98c-1.48-.97-.26-.53-.98-1.47l-.98-.98h-.98v-.49c-.9-.73-1.57-1.16-2.94-1.47-.28-1.67-.83-3-2.45-3.43v-.49h-2.45v-.49h-.98v-.49l-2.94-.49-.49-.98-1.96-.49c-.35-1.35-.14-1.1-1.47-1.47-1.12-.88-3.28.29-5.39-.49v-.49l-1.96-.49v-.49h-1.96v-.49h-7.84v-.49h-2.45s.02-.3-.98-.49v.98l-1.47-.49v.49h-.98v-.49h-1.96v-.49h-.49v.49h-.98v.49l-1.47-.49c-.69.02.17.28-.49.49h-1.47v.49h-3.43v.49l-2.45.49-.49.98h-1.96l-.98,1.47-2.94.49-1.96,2.45-1.96.49-.98,1.47h-.98l-.49.98-2.94,2.45v.98l-2.94,1.47.49,1.47-2.45,1.96v1.96l-2.45,1.96-.49,1.47-.98.49c-1.01,1.75.75,2.12-1.96,2.94v.98h-1.96v.49l-1.47.49-.49-.98-1.96-.49-.49-2.45-.98-.49.49-5.88.98-.49.49-2.94.98-.49.49-1.96.98-.49v-1.47l1.96-1.47.98-2.94h1.47v-1.96l1.47-.49c.56-.56,0-.2.98-.49l.49-1.96h1.47c.97-1.47,1.38-.46,1.96-2.45h.98c.72-2.67,1.67-1.76,3.43-2.94l1.47-1.96h2.45v-.49c.56-.56.2,0,.49-.98l1.96-.49s.29.8.98.49l1.47-2.45h2.45l.49-.98h.98v-.49c.2-.05,1.38.78,2.45.49v-.49l5.88-.49v-.49h6.86v-.49h3.92v.49h.49v-.49h1.96v.49h1.47v.49c.96.15.59-1.25,1.96-.98v.49h.98v.49l1.96-.49v.49l1.96.49v.49l2.94-.49v.49h.98v.49l3.92.49v.49h.98v.49l1.47-.49v.49h.98l.49.98h.98v.49h1.47l.49.98h1.96v.49l1.96.49v.49l2.94.49,1.47,1.96h1.47l.98,1.96h.98l1.47,1.96h.98l.98,1.96c1.43,1.27.63-.69,1.96,0v.49h.49v.49h.49v.98h.49v1.47l1.47.49.49,1.47.98.49v.98ZM145.62,77.25c-.34,1.43-.55,1.6-1.96,1.96v-.49h-3.43l-.49-.98-2.94-.49v-.49h-.98v-.49h-1.47v-.49l-2.94.49c-.05,0-.19-.74-.98-.49l-.49.98-4.41.49v.49l-1.96.49v.49h-1.47l-.49.98h-.98v.49l-1.96,1.47v.98l-.98.49-.49,1.47c-2.04,1.7-4.21,3.34-5.39,5.88-1.48-.61-2.42-1.36-2.94,0-1.35.16-1.35.74-2.45,0l-.49-.98c-.87-.36-.76.37-.98.49h-.49v-.49h-2.94l-.49-.98h-.98v.49h-5.39v.49h-4.9v.49h-.98v.49l-1.47-.49v.49l-2.94.49-.98,1.47h-1.96v.49l-1.96.49-1.47,1.96h-.98l-.49.98h-.98l-.98,1.47h-1.47v.49c-1.05.8-1.46,1.56-2.94,1.96l-.49,2.45h-.98l-1.47,1.96h-.49v2.45l-2.45,1.47.49,1.47h-.49v.98h-.49v2.94h-.49v3.43h-.49l.49,5.39.98.49v.49h-.49v1.47h-.49l.98,4.41h-.49c-.74,1.25-.85.88-.98,2.94h-5.39c-.74-1.21-.6-.31-1.47-.98l-.49-.98h-.49v-.98l-.98-.49-.49-1.47h-.98c.11-1.83.72-2.13,0-3.92h-.49v-.98h-.49l.49-3.43h-.49v-4.41h.49l-.49-3.92h.49l.49-2.94h.49c-.05-.57-.95-.94-.49-1.96l1.47-.98v-.98h.49v-.98h.49v-1.96l1.96-1.47v-.98l.98-.49v-1.47h.49c.68-.91,1.11-1.15,1.47-2.45h.98l1.96-2.45h.98l.49-1.47.98-.49v-.98c.52-.59,1.36-.43,2.45-.49.35-1.21.25-.79.98-1.47v-.49h.98l.98-1.47h.98l.49-.98h1.47l.49-.98c1.59-.9,1.24.86,1.96-1.47,2.29-.04,2.1-.21,3.43-.98v-.49c.36-.14,1.42.93,2.45.49l.49-.98,5.88-.98v-.49h1.47v-.49l4.9.49.98-1.47,11.27.98,3.92-4.9h.98l.49-.98h.98v-.49h.49v-.98c.5-.54.98-.36,1.96-.49v-.98l3.92-.98.49-.98,2.94-.49.49-.98h1.96v-.49h1.96v-.49h5.88v.49h.49v-.49l4.9.49v.49l2.94.98v.49h2.45l.49,1.47c.59.73,2.01,1.08,2.94,1.47.15,2.69.48,4.27,0,6.86-.56.41-.07-.06-.49.49h-1.47ZM67.1,306l-2.82.96c-.08,1.44-.28,1.77-1.05,2.66l.08.48-1.45.24-.32,1.05-.97.16-.73,1.61-.48.08.16.97-1.29,1.21-.09,2.5-1.29,1.21.16.97-.48.08.24,1.45-.48.08.24,1.45-.48.08.16.97-.48.08.24,1.45-.48.08.72,1.37-.48.08,1.11,6.77,1.05.32.24,1.45,1.05.32.16.97,1.61.73.16.97.48-.08c.24.52-.75,1.01-.17,2.01l1.05.32c.78,1.52-.53,1.63-.65,2.09l.32,1.93-.48.08c-.31,1.94.83,2.66.64,3.87l-.48.08-.17,2.01-.48.08.15,3.95.48-.08.08.48-.48.08.32,1.93c-.1.45-1.25.25-.73,1.61l1.05.32-.25,1.53-.48.08c-.04.82.61.8.64.89.41,1.13-.19,1.3-.17,2.01l.48-.08.39,5.4,1.05.32c.34.68-.65,2.65.15,3.95l1.05.32.48,2.9,1.61.73-.17,2.01,1.61.73.32,1.93,1.05.32c.86,1.12.28,1.3.48,2.9,1.71.21,1.02.43,2.17,1.13l.08.48.97-.16c.18.69,1.27,3.31,1.6,3.71l.48-.08c1.24,1.13,2.03.71,2.89,2.5l.97-.16c.53,1.27.81,1,1.36,2.26l2.01.17.72,1.37c1.88-.25,2.44-.27,3.54.41l.64.89,2.5.09.08.48,2.01.17.08.48,1.45-.24.08.48,1.45-.24.64.89c1.45.36,3.68-1.25,4.27-1.2l.64.89,2.34-.88.08.48.97-.16.08.48.97-.16.64.89c1.49.2,1.67-1.75,3.71-1.6l.08.48,5.8-.95.32-1.05.48-.08.08.48,5.72-1.44.32-1.05,2.9-.48.32-1.05,4.6-2.25-.16-.97,4.27-1.2-.24-1.45.48-.08-.08-.48,1.93-.32-.24-1.45c1.44-.44,1.5-.56,2.26-1.36l-.08-.48,1.85-.8-.08-.48,1.53.25-.08-.48,2.42-.4.08.48,1.45-.24.08.48,3.06.49.08.48c1.1.2,1.34-.9,1.85-.8l.64.89h2.98c.03.17.05.33.08.49l2.34-.88.08.48.97-.16.08.48,2.42-.4.64.89,1.85-.8c.36.06.64,1.43,2.58.57l-.08-.48,2.9-.48-.08-.48c.66-.2-.13.38.56.4l3.38-.56.32-1.05c1.38-.68,2.2,1.34,4.03.33l-.08-.48.97-.16.32-1.05.97-.16-.08-.48,1.53.25.65-2.09,2.9-.48-.08-.48,1.29-1.21.25-1.53,2.34-.88.73-1.61.48-.08-.16-.97.48-.08-.16-.97.48-.08c1.04-1.76,2.54-2.44,2.67-4.91,1.59-.43,3.17-.85,4.76-1.28l.72,1.37,1.93-.32c1.56,2.49,1.99,2.93,2.64,7.01l-1.78,1.28.72,1.37-2.18,1.85.24,1.45-1.37.72c-1.07,1.13-.63,2.04-2.5,2.89l.24,1.45-.48.08.08.48-1.93.32.16.97c-.91.48-1.83.96-2.74,1.44-.31.95-.54.87-.65,2.09l-2.42.4.08.48-.97.16.08.48c-.28.26-1.71,1.46-2.26,1.36l-.08-.48-.97.16.16.97c-1.26.37-2.53.75-3.79,1.12l-.32,1.05c-.68.34-2.63-.64-3.95.15l-.32,1.05c-.92.5-1.53-.25-1.53-.25-1.61.26-3.22.53-4.84.79l.08.48-1.93.32-.08-.48-.97.16-.08-.48c-1.59.43-3.17.85-4.76,1.28l-.08-.48-1.45.24-.08-.48c-1.15.02-2.31.05-3.46.07l-.08-.48-.97.16-.08-.48c-1.45-.25-3.24,1.2-3.79,1.12l-.64-.89-.97.16-.08-.48c-.69-.36-1.04-.83-2.09-.65l-.4.56c-.32-.1-.16-.71-1.05-.32l.08.48-2.34.88-.73,1.61-1.45.24-.32,1.05c-.91.48-1.83.96-2.74,1.44l.16.97c-1.59.43-3.17.85-4.76,1.28l-.25,1.53c-1.46.25-2.38.41-3.31,1.04l.08.48-1.45.24-.32,1.05-2.42.4.08.48-2.42.4.08.48c-.63.52-.77.46-1.85.8-.67-.57-1-.59-2.09-.65l.16.97-.97.16.08.48c-.81.32-.88-.31-1.05-.32l-7.74,1.27-2.42.4c-.11.04-.05.67-.89.64l-.08-.48h-2.98c-.21-.3-.43-.6-.64-.89-.73-.12-.55.99-.81,1.13l-4.91.31-.64-.89-1.93.32-.08-.48h-2.98c-.21-.3-.43-.6-.64-.89l-1.37.72-.08-.48-.97.16-.64-.89-.97.16-.08-.48-2.42.4c-.68-.27-.25-1.47-.8-1.85-.19-.13-.99,1.07-1.85.8l-.64-.89-1.53-.25-1.77-1.7-3.06-.49-.08-.48-.48.08-.16-.97c-.57-.45-1.03-.19-2.01-.17l-.72-1.37-.48.08-.24-1.45-1.05-.32-.72-1.37c-.6-.32-2.08-.04-2.58-.57l-.24-1.45-.48.08-.16-.97-.48.08c-1.21-1.74-.03-2.14-2.81-2.02-.28-.89-.63-.87-.64-.89l-.4-2.42-.48.08c-.64-.46-.03-.19-1.05-.32-.25-1.38-.4-2.47-1.04-3.31l-1.05-.32.25-1.53-.97.16-.16-.97-.97.16c-.48-1.91-.96-3.82-1.44-5.72l-1.05-.32-.32-1.93-.48.08-.48-2.9s-.61.15-.64-.89c0,0,.72-.67.25-1.53l-1.05-.32-.48-2.9.48-.08c-.06-.58-1.61-3.65-1.36-5.24l.48-.08-.16-.97.48-.08c.05-1.41-1.22-.78-1.28-1.78l.48-.08-.16-.97.48-.08-.48-2.9.48-.08-.24-1.45.48-.08-.08-.48-.48.08-.4-2.42.89-.64-.48-2.9.48-.08-.08-.48s-.82-.11-.64-.89l1.29-1.21c.44-1.93-1.53-2.37-2.01-3.15l-.96-2.82-1.05-.32-1.04-3.31.48-.08-.32-1.93-1.05-.32.09-2.5-.48.08c-.52-1.31.18-1.32.25-1.53-.15-.66-.91-1.06-.88-2.34l.48-.08c-.06-.6-1.08-.72-.8-1.85l1.29-1.21-.16-.97.48-.08-.72-4.35,1.7-1.77-.24-1.45.48-.08-.16-.97.48-.08c.32-.74.21-.9.17-2.01l.97-.16.25-1.53.48-.08c.6-1.66-1.04-1.17,1.13-2.17.1-1.99,1.64-5.24,3.48-6.03l-.08-.48,1.45-.24c.1-1.47.28-1.67,1.62-2.25l-.16-.97,2.42-.4-.08-.48,1.05.32,4.76-1.28,1.77,1.7.48-.08.24,1.45c1.12,1.94.82,3.62.95,5.8ZM421.18,330.68c3.21.03,3.45,1.38,5.88,1.96.13,2.16.61,2.19,1.47,3.43h.49v1.47h-.98c.23,1.27.47,2.17.49,3.92l-1.47.49c-.02.14-.45,4.34-.49,4.41l-1.47.98-.49,1.47h-.49l-.49,1.96-1.47.98-.49,1.47-1.47.49-.49,1.96-3.43,2.45v.49h-1.47v.49l-1.47.49-.49.98c-1.14.16-2.29.33-3.43.49l-.49.98-1.96-.49v.49h-1.47v.49l-1.47-.49v.49l-1.96.49v.49c-.94.33-1.65-.67-1.96-.49v.49c-1.51,1.34-.24,1.46-.49,1.96-.25.5-.64-.07-.98,1.47h-.98l-.98,3.92-.98.49v.98h-.49l-.49,1.96-.98.49v.98l-.98.49v.49h-.98l.49.98-3.43,2.94v.98l-1.47.49-.98,1.96h-1.47c-.74,2.65-2.07,1.7-3.92,2.94l-1.47,1.96h-1.47l-.98,1.47h-1.96v.49l-3.43.98-.49,1.47-1.47-.49v.49l-2.45.49c-.57.03-1.96-.49-1.96-.49v.98l-2.94-.49v.98l-1.47.49v-.49l-2.45-.49v.49h-.98v.49l-1.47-.49v-.49c-.84-.23-.84.46-.98.49-.87.21-.81-.44-.98-.49h-2.45l-.49-.98c-.78-.31-.94.48-.98.49h-.49v-.49h-1.96l-.49-.98c-.85-.3-.84.45-.98.49l-3.43-.49-.49-.98-2.45-.49-1.47-1.96h-1.47v-.49c-1.61-1.26-2.71-2.73-2.94-5.39,1.23-.69,1.4-1,1.47-2.94l2.45-.49s.21.71.98.49l.49-.98c.84-.24.85.46.98.49h2.94v.49h.98v.49h.98l.49.98c.77.28.96-.49.98-.49.85-.12.8.44.98.49h2.45v.49h1.47v.49h2.45v.49h4.41s.42.76,1.47.49v-.49l3.92-.49v-.49h3.43l.49-.98,3.43-.49.49-.98,1.47-.49.49-1.47,2.45-.49.49-.98h.98v-.49c.73-.57.87-.68,1.96-.98.35-1.35.14-1.1,1.47-1.47v-.98h.98c.3-.79.43-1.16.49-2.45h.98l.49-1.47,1.47-.98.49-2.45h.98c.27-1.54.48-2.05,1.96-2.45.08-2.78.98-4.94,1.47-7.35h.98l.49-2.45,4.9-.49s.04.64.98.49v-.49h3.92l.49-.98,2.45-.49.49.49.49-.98h2.45l1.47-1.96h.98l1.47-1.96h.49v-.98l1.47-.98v-1.47h.49l.49-1.47h.98c.1-1.13.09-1.27.49-1.96h.49v-1.96l.98-.49v-.98h.49v-2.45h.49v-.49h1.96l.49-2.45Z"/>
</svg>