<?xml version="1.0" encoding="UTF-8"?>
<svg id="_レイヤー_1" data-name="レイヤー 1" xmlns="http://www.w3.org/2000/svg" viewBox="0 0 480 480">
  <defs>
    <style>
      .cls-1 {
        fill: #fff;
        fill-rule: evenodd;
      }
    </style>
  </defs>
  <path class="cls-1" d="M366.17,30.14h2.94c.07-.03.24-.85.98-.98v.49h.98v.49h5.39v.49l5.39.49.49-.49v.49h.98l.49.98h2.45v.49h.98v.49h1.96v.49l2.94.98.49-.49,3.43,2.45.49.98h2.94l.49.49.49,1.47h1.96c.78,1.8,1.75,2.99,3.92,3.43.49,1.89,1.44,1.54,1.96,3.43,1.43.34,1.6.55,1.96,1.96,2.44.69,1.33,1.29,2.45,2.94l1.96,1.47v1.47l1.96.98.49,2.45.98.49v1.47l.98.49v1.96l.98.49v2.45h.49v.98h.49c.2.79-.48.92-.49.98l.49,3.92h.49v1.47l.98.49-.49,2.94h.49l-.49,1.96s.61.2.49.98c0,0-.75.44-.49,1.47h.49v1.47h.49l-1.47,7.35h2.94l.49.98c.55-.13,2.27-1.06,3.43-.49l1.47,1.96h1.96v.49h.98v.49c2.03,1.07,3.78.94,4.41,3.43.85.16,3.03.97,3.43,1.47v.98h.49c.7.83,1.16,1.19,1.47,2.45,1.82.51,1.32,1.01,2.45,1.96v.49h1.47l.49,2.45h.49v.98l.98.49v2.45h.49v.49c.75.28.8.37,1.96.49.06,2.36.41,1.98,0,3.92h.49c.47.73.94.81.98,1.96l-.49.49.98.49c.85,1.95-.79,4.99.49,6.37.56.56,0,.2.98.49-.13,1.13-.1,1.24-.49,1.96h-.49v1.96h.49l-.49,2.94h.98v.98h-.98v2.94h-.49v.49h.49v.49h-.49l.49,4.41h-.49l-.49,2.94h-.49v2.94l-1.47.98v1.96h-.49v.98l-1.47.98-.49,2.94h-1.47v1.96c-.88.46-.77.68-1.96.98-.39,1.94-1.23,2.39-2.45,3.43v.49h-.98c-1.24.89-.95,1.94-2.94,2.45-.34,1.37-.58,1.25-1.47,1.96v.49h-1.47l-.49.98c-1.44,1.32-1.97,1.98-4.9,1.96v-.49l-3.43-.49v-.49h-.49v-1.47c-1.35-.35-1.1-.14-1.47-1.47h-.49v-1.96c.58-.47,2.06-2.3,2.45-2.94v-.98l2.45-1.47v-.98c.48-.58,1.93-.61,2.45-.98l2.94-3.92,1.47-.49v-1.47l1.96-1.47.49-1.47.98-.49v-1.96l1.47-.98v-1.96h.49v-1.47h.49v-2.94h.49v-3.92s.72-.4.49-1.47h-.49l.49-3.92h-.49v-1.47h-.49l.49-2.45h-.49l-.49-2.45h-.49l-.49-4.9-.98-.49v-.98l-.98-.49v-.98l-.98-.98v-.98h-.49c-.7-.88-1.11-1.17-1.47-2.45-1.74-.39-2.74-1.45-2.94-3.43-1.79-.35-2.82-.97-3.92-1.96l-.49-.98-2.94-.49-.49-.98-3.92-.49s-.45.71-1.47.49v-.49h-2.45v.49l-4.41-.49c-.72-1.29-2.15-2.7-3.43-3.43l.49-1.47h-.49v-3.92h.49v-1.47h.49v-1.47h.49c.16-3.27.33-6.53.49-9.8h-.49c-.57-2.21,1.25-2.48.98-3.92h-.49v-.98h-.49v-1.47l-.98-.49c-.34-.94.49-1.47.49-1.47l-.49-4.41h-.49c-.66-.95-1.11-1.12-1.47-2.45h-.98v-2.94c-1.08-.58-1.46-1.14-2.94-1.47l-.49-1.96h-.98l-.98-2.94-1.96-.49v-1.47c-1.85-.39-2.75-1.4-3.92-2.45l-.49-.98h-1.96l-.49-.98c-.33-.17-1.54-.31-1.96-.49v-1.47h-2.45l-.49-.98-2.94-.49-.49-.98h-3.43v-.49h-2.94v-.49h-.98v-.49l-3.43.49v-.49h-.49v.49h-1.96v-.49h-1.96v-.49h-.49v.49l-1.47.49v-.49h-1.96v-.49h-.49v.49h-.98v.49c-1.22.36-.76-.84-2.45,0l-.49.98h-.49v-.49l-2.94-.49v.49c-.56.56-.2,0-.49.98-4.18-.15-5.61.93-8.33,1.96h-1.47v.49h-.49c-.21-.13-.13-.89-.98-.49l-1.96,2.45-.98-.49-.98.98h-.98v.49h-.98v.49h-.98v.49h-.98l-.49.98-1.96.49-.98,1.47c-1.4.84-.58-.73-1.96.98h-.49l.49.98c-1.41,1.57-2.58.42-2.94,3.43h-.98l-1.47,2.94h-.98l-.49.98h-.49v1.47h-.49v.98h-.49v1.47l-1.96,1.47c-.17.42.8.94.49,1.96h-.49l-.98,4.41.49.49h-.49c-.55,1.32-.83,2.33-.98,3.92-1.55.39-2.32,1.56-3.43,1.96h-3.43v-.98c-.57-.28-.79-.87-.98-.98-1.63-.93-1.75.73-2.45-1.96h.49c.72-1.4-1.1-2.79-.98-3.43h.49l.49-2.94h.49l-.49-1.96h-.49c-.26-1.45.81-1.04.98-1.47v-1.47h.98c0-1.3-.18-2.8.49-3.43l1.47-.49-.49-1.47h.49c.32-1.11.17-1.62.49-2.45.88-.46.77-.68,1.96-.98v-1.96l1.96-1.47v-.98l3.43-2.94v-.98l3.43-2.94.49-1.47h.98l.98-1.47h1.96l.49-1.47c1.83-.81,3.36-1.71,5.88-1.96l.49-1.47,4.41-1.47v-.49l2.94-.98v-.49l8.33-1.47v-.49c1.4-.45,2.36.1,3.43-.49l.49-.98c.96-.37,1.47.49,1.47.49l5.88-.49v-.49l1.47.49v-.49h.98l.49-.98h.49v.98ZM142.61,100.58c2.48.73,1.14,1.25,2.45,2.45v.49h1.96c.04,1.57-.27,3.56.49,4.41v.49l-.98.49v1.96l-.98.49v1.47h-.49c-1.31,1.17-2.05-.83-3.43.98h-.49v-.49l-3.43-1.96v-.98l-.98-.98h-.98l-.49-.98h-.49l-.98-1.96h-1.47l-1.96-2.45h-2.45v-.49h-.98v-.49h-1.47v-.49l-3.92.49v-.49c-1.87-.43-3.32.63-4.41.98h-2.45v.49h-.98v.49l-2.45.49v.49c-.94.72-1.55,1.15-2.94,1.47v.98h-.49l-2.45,2.94h-.98c.11,1.45.6,1.02,0,2.45h-.49v1.47h-.49v.98h-.49c-.2.82.47.88.49.98-.16,1.47-.33,2.94-.49,4.41h-.98v1.47c-.89.49-2.9,2.1-3.43,2.94-6.86-1.16-15.29,1.23-21.07,3.92v1.47h-.98c-.24.42-1.66,2.69-1.96,2.94-.8.66-.51-.5-1.47.98h-.49v.49h.49v.49h-.49v1.47h-.49v1.96h-.49v.98l-.98.49.49,2.94c-.86,4.79.35,9.86-.49,12.74l-1.47.49-.49,1.47c-.8.03-3.43.49-3.43.49l-.49-.98h-.98v-.49h-.98v-.49l-1.47-.49c-.16-.98-.33-1.96-.49-2.94h-.49v-2.45h-.49v-.98h-.49c.16-.82.33-1.63.49-2.45h-.49v-.98h-.49l1.47-4.9h-.49v-.98h-.49c-.44-1.84.79-1.54.98-1.96v-1.96h.49v-2.94l.98-.49c.16-.82.33-1.63.49-2.45h.49v-.98l.98-.49v-.98h.49l.49-2.45c1.31-.98,2.61-1.96,3.92-2.94v-1.47l2.94-.98v-.98l.98-.49v-.49h1.47l.49-.98h2.45l.98-1.47,1.96.49.98-1.47c1-.46,3.31.51,3.43.49v-.49l1.96-.49v-.49l1.47.49v-.49h.98v-.49h3.43c.06-1.26.06-1.71.49-2.45h.49v-1.96l.98-.49c.16-1.14.33-2.29.49-3.43.09-.22,4.24-5.28,4.41-5.39h1.47c.67-.47.02-1.23.49-1.96l.98-.49v-.49l2.94-.49.98-1.47h1.47l.98-1.47,4.41-.49v-.98l3.43-.49c.07.01.18.73.98.49l.49-.98c2.04-.95,2.75.23,4.9,0v-.49h.49v.49h1.96v.49h1.96v.49h.49v-.49l3.92.49.49.98h1.47l.49.98,3.43.49v.49h.98l.98,1.47h.98v.49c.82.65,1.63,1.31,2.45,1.96v1.47ZM51.41,351.39h-.98l.49.98h.49c-.65,1.96-1.31,3.92-1.96,5.88.79,1.76-1.03,2.22-.49,4.41h.49v3.92h.49c-.16,1.14-.33,2.29-.49,3.43h.49v.98h.49v5.39h.49v.98h.49c.16.98.33,1.96.49,2.94l.98.49v1.47l1.96,1.47v1.96l.98.49.98,2.94,3.43,2.45.49,1.96,1.47.49v.49l1.47.98v.98l.98.49v.49l1.96.49.49.98h.98l.98,1.47h.98v.49h1.47l.98,1.96,2.94.49v.49h.98v.49h1.47v.49l1.96.49v.49h1.96v.49h.98v.49s1.26-.46,1.96-.49v.98h2.94c.13-.03.15-.64.98-.49v.49h1.47v.49c.7.14.98-.49.98-.49,1.05-.1,2.25.94,3.92.49v-.49l6.37.49.49-.98,3.43-.49.49-.98h.98v-.49h.98v-.49h1.96l.49-.98h.98v-.49h.98v-.49h1.47v-.49l.98-.49c.47-.72-.2-1.51.49-1.96h1.96l.49-.98c1.53-1.01,2.16-.6,2.45-2.94,1.12-.3,1.19-.43,1.96-.98v-.49h1.47l.49-.98h3.43v-.49h2.45v.49h1.47v.49h1.47l.98,1.47,2.94.49c.33.49.65.98.98,1.47l1.47-.49v-.49h.49v.49h1.47v.49h4.9v.49h.49v-.49l1.47.49s4.19-.43,4.41-.49v-.49c1.04-.29,1.51.65,1.96.49l1.47-1.96,1.96.49v-.49c.56-.56.2,0,.49-.98l4.41-1.47.49-1.47h.98c.49-.62,1.16-.59,1.47-.98v-.98l.98-.49v-.49l.98-.49v-.98l2.45-1.96v-.98h.49c.7-.85,1.13-1.18,1.47-2.45h.98v-1.96c1.69-.94,3.46-2.72,3.92-4.9,1.76-.43,2.17-1.49,3.92-1.96,1.07,1.68,1.64,1.12,3.92.98l.98,2.94h.49c-.16.82-.33,1.63-.49,2.45h.49v2.45h-.49v.98h-.49v1.47l-1.47.98v.98l-.98.49v.98l-.98.49v.98l-.98.49v.98c-.82.65-1.63,1.31-2.45,1.96v.98l-1.47.98-.49.98h-.98c-.49.82-.98,1.63-1.47,2.45l-1.47.49c-.49.71.15,1.46-.49,1.96-1.54,1.23-2.21-.09-2.94,2.45-1.9.06-2.46.13-3.43.98l-.49.98-2.45.49-.49.98h-.98v.49h-.98v.49h-2.45v.49h-.98v.49h-1.47v.49l-2.94-.49-.49.98c-1.15.46-1.88-.5-2.45-.49v.49h-2.45v-.49l-6.37.98v-.49h-.98v-.49l-3.43-.49v-.49c-.52-.09-1.3.88-2.45.49v-.49h-.98v-.49l-2.94-.49v-.49c-.75-.44-1.19-.41-2.45-.49-.72,1.2-1.78,1.57-2.45,2.45l-.49,1.47-2.45.49-.98,1.47h-.98l-.49.98h-1.47l-.49.98h-.98v.49c-.73.67-.64.25-.98,1.47-4.18.05-6.4,1.82-9.31,2.94h-2.45l-.98,1.47c-.7-.06-.78-.74-1.96-.49,0,0,0,.63-.98.49v-.49h-.49v.49h-.49v-.49h-1.96v.49h-4.41v.49l-1.96-.49v-.49l-1.96.49v-.49h-4.41v-.49h-.98v-.49h-4.41v-.49h-.98l-.49-.98c-1.04-.62-2.1.03-3.43-.49v-.49c-.98-.33-1.96-.65-2.94-.98v-.49h-2.45c-.33-.49-.65-.98-.98-1.47h-.98l-.49-.98h-.98l-.98-1.47h-1.47v-.49c-.74-.31-1.35-.24-1.96-.49v-1.47l-1.47-.49v-.49h-.98l-.49-.98c-.75-.44-1.54.21-1.96-.49v-.98c-2.34-.72-.53-.44-1.47-1.96l-1.96-1.47v-.49l-.98-.49-.49-.98h-1.47v-.49c-1.68-1.41-.18-.33-.98-1.96h-.49v-.98l-1.96-1.47v-1.47l-1.47-.98v-.98h-.49v-.98h-.49c-.44-.67-.35-.86-.49-1.96h-.98c-.16-.82-.33-1.63-.49-2.45h-.49c-.52-1.33.11-2.39-.49-3.43l-.98-.49.49-.98-1.47-.98v-3.43h-.49v-.98h-.49c-.15-.68.31.18.49-.49v-1.47h.49c.27-1.41-.88-1.15-.98-1.47-.31-1.04.82-1.68.98-2.45l-1.47-.98v-2.94h-.49v-.98h.49v-.98h.49c.16-1.8.33-3.59.49-5.39h-.49l-.49-1.47h.49v-.98h.49c.16-1.31.33-2.61.49-3.92h.98c-.03-.86-.49-3.43-.49-3.43l.98-.49v-2.94l.98-.49v-.98l1.47-.49c-.19-.58-.81-.91-.49-1.96h.49v-.98l.98-.49v-2.94l1.47-.98v-.98l.98-.49c.16-.65.33-1.31.49-1.96h.49c.3-.95-.49-1.47-.49-1.47l.49-1.96-.98-.49v-.98h-.49v-1.96h-.49c-.3-.54-.79-1.35-.49-2.45h.49c.16-.82.33-1.63.49-2.45h-.49v-6.86h.49v-1.47l.98-.49c-.16-1.14-.33-2.29-.49-3.43l.98-.49-.49-1.47,1.47-.98v-.98h.49l-.49-1.47.98-.49v-1.47h.49v-.98h.49v-.98c1.63-1.47,3.27-2.94,4.9-4.41l2.45.49s.19-.78.98-.49l.49.98,1.47.49v.49h.49v1.47h.49c.16.98.33,1.96.49,2.94h-.49c-.16.82-.33,1.63-.49,2.45l-.98.49v4.41l-.98.49c-.49,1.47-.98,2.94-1.47,4.41h.49v.49h-.49v3.43l-.98.49.49,1.47h.49c-.16,1.47-.33,2.94-.49,4.41h.49l-.49,1.47h.49v.98h.49v.98h.49v1.47h.49v.98h.49c.45,1.25-.48,3.01-.49,3.43l.49,1.47h-.49v1.47l-.98.49v.98l-1.47.98v2.45l-.98.49v.98h-.49v1.96l-1.96,1.47v2.94h-.49c-.86,1.29-.9,1.2-.98,3.43ZM435.43,329.46l.98-.06c.07,1.14.14,2.28.2,3.42l1.5.4c-.27,1-.54,2-.8,2.99l1.5.4c-.11,1.11-.72,1.94-.29,3.45,0,0,.76.4.58,1.44l-.49.03.15,2.45-.95.55.66,2.91-.49.03-.34,2.47-.49.03c-.12.66-.25,1.32-.37,1.99l-.49.03c.04.65.08,1.3.12,1.96l-.49.03c-.72,1.13-1.45,1.53-1.78,3.05-1.21.21-2.31.41-2.88,1.15l-.4,1.5-.98.06.03.49-1.41,1.07-.43,1.01-2.45.15.03.49-1.47.09.03.49-.98.06.03.49-2.93.17c-3.43,1.25-5.41,1.14-9.26,1.04-.38.58.07.07-.46.52.11,1.61.19,2.83-.26,3.94l-.49.03.09,1.47-.95.55.06.98-.49.03.12,1.96-.49.03.06.98-.49.03.06.98-.95.55c-.12.66-.25,1.32-.37,1.99l-.95.55c.04.65.08,1.3.12,1.96l-2.36,1.61c-.13.5-.27,1-.4,1.5l-.98.06.03.49c-1.28,1.31-1.55,2.57-3.74,3.17l.06.98-1.44.58c-.76,1.03-1.51,2.05-2.27,3.08l-2.45.15c-.63,3.14-1.34,1.16-3.8,2.19l.03.49-1.93.61.06.98-2.91.66s-.56-.76-1.5-.4l.03.49-1.93.61.03.49-1.47.09.03.49-2.93.17.03.49-2.45.15.03.49-1.5-.4.03.49c-2.13-.04-4.26-.07-6.39-.11-.08.03-.15.88-.92,1.04l-.03-.49-1.5-.4-.03-.49s-2.02.92-2.91.66l-.03-.49-.98.06-.03-.49-1.96.12-.03-.49-.98.06-.03-.49-.98.06-.03-.49-2.42.63-.03-.49c-.59-.52-.19,0-.55-.95-4.14.26-5.5-1.64-8.95-1.92l-.06-.98-.98.06-1.07-1.41-.98.06-1.07-1.41-.49.03.43-1.01-1.5-.4-.55-.95-.98.06-.15-2.45c-.4-.76-2.38-.86-1.67-3.34l.49-.03c.63-1.6,1.11-1.56,1.26-3.51,1.78-.27,3.57-.54,5.35-.81l1.58,1.87.98-.06c.36.47.71.94,1.07,1.41l1.47-.09,2.1,2.33,1.5.4.55.95c1.06.42,1.43-.76,1.93-.61l.03.49,1.5.4.55.95,1.96-.12.03.49,2.96.31.03.49,1.44-.58.03.49,2.93-.17.03.49,1.93-.61.03.49,1.47-.09.03.49.98-.06.03.49c1.03.28,2.81-.4,3.39-.69l-.03-.49,2.93-.17-.03-.49,1.96-.12-.03-.49,1.47-.09-.03-.49,1.47-.09-.03-.49,1.96-.12-.03-.49,1.96-.12-.03-.49.98-.06.43-1.01.98-.06.89-1.53,2.42-.63.89-1.53,1.47-.09c.58-.45.45-1.93.83-2.5l1.44-.58.86-2.01,1.44-.58c.1-1.15.19-2.3.29-3.45l1.41-1.07c-.04-.65-.08-1.3-.12-1.96l.95-.55c.11-.82.23-1.65.34-2.47l.49-.03.37-1.99.49-.03c.56-1.93-1.29-3.92-1.24-4.34l.49-.03c.12-.66.25-1.32.37-1.99l.95-.55c.7-.88,1.08-1.68,1.29-3.02l2.93-.17-.03-.49c.47-.3,1.8-1.04,2.91-.66l.55.95c2.29.03,4.58.05,6.88.08l.03.49,3.39-.69-.03-.49.98-.06-.03-.49,1.01.43-.03-.49.98-.06.43-1.01,1.47-.09-.03-.49,2.33-2.1-.06-.98.95-.55-.09-1.47.49-.03c-.04-.65-.08-1.3-.12-1.96l.49-.03c.37-.72.31-.86.37-1.99l-.49.03-.15-2.45-1.01-.43c.1-.99.21-1.98.31-2.96l-1.01-.43-.09-1.47-1.01-.43c-.02-.69.37.17.46-.52l-.09-1.47.49-.03-.66-2.91,1.44-.58c.31-.39.82-.97,1.41-1.07l.03.49.98-.06c.32-.13.29-1.56,1.9-1.09l.55.95,3.42-.2.03.49c.7.53.8.85,1.09,1.9Z"/>
</svg>