<?xml version="1.0" encoding="UTF-8"?>
<svg id="_レイヤー_1" data-name="レイヤー 1" xmlns="http://www.w3.org/2000/svg" viewBox="0 0 480 480">
  <defs>
    <style>
      .cls-1 {
        fill: #fff;
        fill-rule: evenodd;
      }
    </style>
  </defs>
  <path class="cls-1" d="M418.64,55.21v.98c1.73.19,1.49.61,2.94.98v.98c1.42.77,2.24,2,3.92,2.45v.98h1.47c1.14,1.7,1.79.46,1.96,3.43h1.47l.49,1.47h.49v.98l.98.49v.98c.49.33.98.65,1.47.98v1.47c.49.33.98.65,1.47.98v.98l.98.49.49,2.94h.49l.49,1.96h.49v.98h.49v1.96h.49v.98h.49c.25.77-.49.95-.49.98v.49h.49v1.96h.49v.98h.49c.14.56-.93.88-.49,1.96l.98.49v.98h.49v.49h-.49v6.37h-.49c-.13.68.38-.19.49.49.13.84-.45.82-.49.98l.49,3.43h-.49c-.33.98-.65,1.96-.98,2.94h.49c-.33.98-.65,1.96-.98,2.94h.49c.71,1.09,1.08.73,1.96,1.47l.49.98h1.47c.33.49.65.98.98,1.47l1.96.49v.49c1,.82,1.49,1.57,2.94,1.96v.98h1.47v.49c.7.64,1.57,3.19,1.96,3.43h.98c.24,1.96.63,1.7,1.47,2.94h.49c.49,1.02-.68,1.48-.49,1.96.49.33.98.65,1.47.98v2.45l1.96.98v1.47l.98.49v2.45h.49v1.47h.49v1.47l.98.49v2.94h.49v1.47h.49l-.49,3.92c.02.12.62.17.49.98h-.49v2.45l.98.49c-.33.98-.65,1.96-.98,2.94h.49l-.49,6.37h-.49v1.47h-.49v.98h-.49v1.96l-.98.49v3.92h-.98c-.29,1.33-.72,2.1-1.47,2.94l-.98.49c-.46.75.18,1.48-.49,1.96h-1.47c-1.06.7-.7,2.88-1.47,3.43h-1.47l-.49.98-1.96.49-.49.98h-.98v.49h-.98v.49c-1.27.68-2.52,1.01-3.92,1.47v.49s-1.28-.45-1.96-.49v1.47h-.49v.49h-1.47v-.49c-.79-.32-.93.48-.98.49h-4.9v-1.47h-.49v-.49l-2.45-.49v-3.43l1.47-.49c-.49-1.53-.27-.74,0-2.45l1.47-.49c.35-1.35.14-1.1,1.47-1.47v-.49h1.47l.49-.98,1.96-.49v.49h.49v-.49h.98l.49-1.47c1.51-.18,1.55-.34,2.45-.98v-.49h1.47v-.49l1.47-.49v-1.47c2.67-.7,1.04-.79,1.96-2.45l.98-.49v-.98h.49v-1.96l.98-.49-.49-1.96h.49v-.98h.49c.34-1.14-.44-1.3-.49-1.96h.49v-1.96c.14-.39,1.01-.19.98-.98-.03-.64-.85.26-.98-.98.27-.41.66,0,.49-1.47h-.49c-.07-.71,1.18-1.35.98-2.45h-.49v-1.47h-.49v-3.92h-.49v-.98h-.49v-2.45c-.82-.65-1.63-1.31-2.45-1.96l-.49-3.43h-.49c-.56-.56,0-.2-.98-.49l-.49-2.45s.77-.23.49-.98h-.49c-.82-1.31-1.19-.92-1.47-2.94h-.98v-.98c-2.85-.66-3.88-3.44-6.37-4.41h-2.45c-1.54-.5-3.05-.64-3.92-1.96h-.49v-1.47h-1.47v-.49h-.49v-2.94l-.98-.49c.49-1.47.98-2.94,1.47-4.41h.49v-1.96h.49v-2.94h.49v-1.96h.49v-.98h.49c.06-.69-.38.19-.49-.49v-4.9h.49v-3.43l-.98-.49v-4.41h-.49c-.33-1.47-.65-2.94-.98-4.41h-.49c-.56-.56,0-.2-.98-.49-.15-1.83-.66-3.14-1.47-4.41l-.98-.49v-1.47l-.98-.49v-.49h-.98l-.98-.98v-.98c-.82-.65-1.63-1.31-2.45-1.96l-.49-1.47h-1.96l-.49-1.47c-.68-.84-2.16-1.23-3.43-1.47-.3-1.17-.16-.91-.98-1.47v-.49l-.98.49-.49-.98h-2.94v-.49l-1.96-.49-.49-.98h-.98v-.49h-2.45l-.49-.98h-1.47l-.49-.98h-1.96v-.49h-.98v-.49l-3.92.49c-1.75-.32-6.84-1.72-9.31-.98v.49h-2.45c-.16.04-.14.63-.98.49v-.49h-3.43v.49h-2.45v.49c-1.62.7-1.65.28-2.94,0-.49.65-.98,1.31-1.47,1.96-.99.46-1.42-.43-1.96-.49v.49h-.98v.49h-1.96l-.49.98h-.98v.49h-.98l-.98.98h-.98l-.49.98h-1.47v.49h-.98v.49h-.98c-.33.49-.65.98-.98,1.47-1.06,1.03-3.81,3.03-5.39,3.43v1.96c-1.35.35-1.1.14-1.47,1.47h-.98c-.12.96.05,1.48-.49,1.96h-.98c-.33.49-.65.98-.98,1.47h-.49v.98h-.49c-.07.58.98.9.49,1.96-.65.49-1.31.98-1.96,1.47-.63.99.09,2.2-.49,3.43l-.98.49-.49,1.47h-.49v1.96h-.49v.98h-.49v1.47h-.49l-.49,1.47-1.47-.49v.49c-.56.56-.2,0-.49.98-1.04.07-1.66.49-1.96.49v-.49h-2.45s-.21.82-.98.49v-.49c-1.53-1.01-.22-.66-.98-1.96h-.49c-.56-.76-.7-.84-.98-1.96h.49l-.49-1.96h.49v-1.96h.49v-1.96h.49v-1.47h.49l-.49-1.47c1.11-2.28,3.25-3.09,3.43-6.37h.98l.49-3.43.98-.49.49-1.47h.98c.82-1.47,1.63-2.94,2.45-4.41,1.58-1.29,1.8-.18,2.45-2.94h1.47v-.98c.97-1.49,2.42.74,2.94-2.94l3.43-.98c.33-.49.65-.98.98-1.47l2.45-.49c.49-.65.98-1.31,1.47-1.96l2.94-.49c.33-.49.65-.98.98-1.47h1.47v-.49h.98v-.49l2.45-.49v-.49h1.96c.33-.49.65-.98.98-1.47l1.96.49v-.49l1.47-.49c.12.05.38.86,1.47.49v-.49h.98l.49-.98,2.94.49v-.49h1.96v-.49l3.43.49v-.49h1.96c.69-.1-.2-.41.49-.49.41.19.18,1,.98.98v-.49h1.47v-.49l2.94.49v-.49h.49c1.07.07,2.28,2,3.92,1.47l.49-.98,2.45.49v.49l2.45-.49v.49h.98l.49.98,4.41.49c.33.49.65.98.98,1.47h.98v.49l2.94-.49v.49l1.47.49.49.98h1.96v.49l1.96.49v.49h1.47l.49.98h.98v.49l1.47.49ZM101.83,139.16l.49,1.47h.49c.65,1.11.82,2.48.98,3.92h-.98c-.19,1.18-.58,2.9-.98,3.92l-4.9.49-.49.98-3.43-.49v.49c-1.71.54-1.49.14-2.94,0v.98h-3.43c-1.78.57-1.32,1.12-3.43.49l-.98,1.96h-3.43l-.49.98h-.98l-.98,1.47h-.98l-.49.98h-.98l-.49.98h-.98v.49c-.73.58-.87.68-1.96.98-.3,2.22-.43,1.23-1.47,2.45h-.49v.98h-.98c-.68,1.28-.87.83-.98,2.94h-.98c-.52,1.22-1.36,2.38-1.96,3.43v.98l-1.96,1.47v1.47h-.49v.98h-.49v1.47l-4.9,2.45v.49h-2.45v-.98h-1.96c-.15-1.13-.09-1.25-.49-1.96h-.49v-3.92c-.02-.1-.69-.16-.49-.98h.49v-.98l.98-.49v-2.94l.98-.49.49-1.96h.49l.49-1.47.98-.49-.49-1.47.98-.49v-.98h.49l.49-.98h.98l.98-1.47c1.58-1.55,3.08-2.01,3.43-4.9h.98l.98-1.96c1.43-1.01,1.23.87,1.96-1.47,1.1-.29,1.22-.41,1.96-.98v-.49l1.96-.49.98-1.47h1.96c.49-2.12,1.77-2.07,4.41-1.96v-.49h1.47l.49-1.47,6.37-.49v-.49h.98l.49-.98,4.41-.49.49-.98,2.45.49v.49l2.94-.49c.73.1.76.63,1.96.49,0,0,.22-.76.98-.49v.49c.84.51.8.68,1.96.98ZM56.91,295l1.42,4.2-.48.11c-.04,1.13-.13,1.3-.54,2.12l-.48.11-.16,1.54-.85.69c-.02.67-.04,1.35-.06,2.02-.66.81-1.32,1.63-1.97,2.44.18.8.35,1.6.53,2.39,0,.04-.66.58-.75,1.17l.58.37c-.53.62-1.07,1.24-1.6,1.86,0,0,1.1,1.38,1,2.29l-.48.11.21.96-.48.11c.44,1.24.88,2.48,1.32,3.72.07.69-.33-.11-.37.58.25,1.12.49,2.23.74,3.35l.48-.11c.3.6.6,1.21.9,1.81l.48-.11,1.21,3.25,1.06.27.9,1.81,1.06.27.21.96.48-.11c1.11,1.23,1.38,1.88,1.9,4.1l-.48.11.69.85-.48.11.21.96-.48.11.32,1.44-.85.69.21.96-.48.11-.27,1.06-.96.21-1.02,2.23-.96.21c-.23,2.85-1.04.71-2.08,1.96l.69.85s-.31.08-.27,1.06l-.96.21c-.02.67-.04,1.35-.06,2.02l-1.81.9-.91,2.71-.85.69c.18.8.35,1.6.53,2.39l-.85.69-.06,2.02-.85.69.32,1.44-.48.11.32,1.44-.48.11.21.96-.48.11.63,2.87c0,.17-.57.27-.27,1.06,0,0,.87.37.79,1.33l-.48.11.21.96-.48.11.32,1.44-.48.11c-.09,1.18.85,1.18.9,1.81l-.48.11c.51,1.56,1.02,3.12,1.53,4.68,0,.13-.64.29-.27,1.06l.48-.11.21.96.48-.11c.26.64-.43-.11-.37.58.09,1.09.79,1.33.79,1.33l-.27,1.06.48-.11.21.96.48-.11,1.42,4.2.48-.11.21.96,1.06.27.21.96.48-.11.42,1.91.48-.11.21.96,1.06.27.32,1.44,2.23,1.02.21.96,1.17.75,1.54.16.42,1.91,2.6.43c.62.55.14,1.53.9,1.81l1.91-.42.11.48.96-.21c1.01.78,2.02,1.56,3.02,2.35l1.91-.42,2.44,1.97,3.56.22.11.48,1.81-.9,1.27,1.23,5-.09-.11-.48.48-.11.11.48,7.66-1.68.27-1.06.48-.11.11.48c1.03-.3.83-.68.85-.69l2.39-.53.27-1.06c1.4-.47,2.8-.95,4.2-1.42l-.11-.48,1.81-.9-.11-.48.96-.21.27-1.06.96-.21-.11-.48,1.06.27c.21-.55.43-1.1.64-1.65.72-.98,2.52-2.75,3.78-3.34.04-1.31.42-1.73.91-2.71l.48-.11-.21-.96.85-.69-.21-.96,1.23-1.27-.32-1.44,1.6-1.86-.69-.85.48-.11-.11-.48c2.04-.61,4.08-1.23,6.12-1.84l.11.48,1.81-.9,1.27,1.23,1.44-.32.69.85,2.39-.53.11.48c.66.43.19-.04.69.85.86-.22,1.62-.88,1.81-.9l.11.48,1.54.16,1.33-.79.11.48.96-.21.11.48c.64-.07.62-.96,1.81-.9l.11.48,2.98-.15.27-1.06,2.5-.05.27-1.06,1.91-.42.64-1.65.96-.21-.11-.48,1.33-.79-.21-.96.96-.21c.53-1.63,1.87-1.87,2.35-3.02.02-.67.04-1.35.06-2.02l.85-.69-.32-1.44.85-.69c.11-1.03.22-2.05.33-3.08l.85-.69-.21-.96.85-.69c.34-1.57-1.32-2.21-1.21-3.25l.85-.69-.32-1.44.48-.11-.42-1.91-.48.11c-.79-1.28-1.79-4.33-1.26-5.74l.85-.69c.51-.78.17-1.37,1.33-.79.71-1.86-.78-2,1.87-2.92l.21.96c2.31-.73,2.15-.86,4.41-.47.41.46.97.55,1.17.75l.21.96.48-.11.21.96,1.06.27c.67.97-.23,1.43-.06,2.02l.48-.11.32,1.44.48-.11.11.48-.48.11c.28,1.28.56,2.55.84,3.83l-.48.11c.23,1.79.45,3.58.68,5.37l-.85.69c.18.8.35,1.6.53,2.39l-.85.69.42,1.91-.48.11c.02.83.03,1.67.05,2.5l-.85.69.21.96-.48.11.32,1.44-1.23,1.27c-.02.67-.04,1.35-.06,2.02l-1.7,1.38c-.81,1.76.54,2.22-1.76,3.4-.13,3.07-.78,1.07-2.45,2.54l.11.48c-1.2,1.45-1.06,2.74-3.2,3.71l.21.96c-1.84.74-3.69,1.48-5.53,2.22l.11.48-1.81.9.11.48-2.98.15.11.48-.96.21.11.48c-.58.31-4.48.13-5,.09l-3.35.74-.69-.85-2.77,1.11-.11-.48-1.44.32-.69-.85-5,.09c-.06,1.4.1,1.1-1.12,1.75-.43.66.04.19-.85.69-.1,2.82-1.96,3.74-3.26,5.73l-1.02,2.23-1.81.9c-.34.74-.68,1.49-1.02,2.23l-1.44.32.11.48-.96.21-.27,1.06-1.44.32-.64,1.65-1.06-.27-.27,1.06-1.81.9-.27,1.06s-2.69-.3-3.46.26l-.27,1.06-.96.21.11.48-2.29,1s-.41-.58-1.06-.27l.11.48-1.44.32-.27,1.06-4.79,1.05-.11-.48-1.33.79-.11-.48-1.81.9s-.31-.5-1.06-.27c0,0-.08.8-.85.69-.42-.41-.85-.82-1.27-1.23l-3.72,1.32-.69-.85-1.91.42-.69-.85-2.87.63-.69-.85-1.91.42-.69-.85-2.02-.06-.69-.85-1.44.32-.69-.85-2.98.15-1.86-1.6-4.83-1.45c-.6-1.24-.87-.95-1.48-2.18l-3.08-.33-.32-1.44-.48.11c-1-.92-1.8-1.07-2.54-2.45-2.08-.11-.62-.08-1.75-1.12l-1.06-.27-.32-1.44-.48.11c-1.12-.97-1.62-.98-2.17-3.04l-1.44.32-.11-.48-.48.11-.63-2.87-1.65-.64c-.83-.86-.4-2.12-1.21-3.25l-1.06-.27c-.32-1.44-.63-2.87-.95-4.31l-.48.11c-.86-1.37-.99-2.36-1.8-3.62l-.48.11c-.36-.76.27-.96.27-1.06-.03-1.66-1.16-2.24-1.21-3.25l.48-.11c-.46-2.07-.91-4.15-1.37-6.22l-.48.11c-.26-.6.27-1.06.27-1.06l-.79-1.33.48-.11c.02-.67.04-1.35.06-2.02l.48-.11c-.17-.56-1.19-1.07-1-2.29l.85-.69c-.37-.92-.74-1.84-1.11-2.77l1.23-1.27-.53-2.39.48-.11-.32-1.44.48-.11.06-2.02.48-.11c-.09-1.15-.17-2.3-.26-3.46.66-.81,1.32-1.63,1.97-2.44-.05-.99-.1-1.98-.15-2.98l3.3-3.23-.21-.96.48-.11-.42-1.91c.23-.78,1.93-2.19,2.93-2.65l-.21-.96c1.25-.64,1.04-.37,1.12-1.75-.57-.31-1.52-1-1.86-1.6.07-.24.81-.29.27-1.06l-1.06-.27-.32-1.44-.48.11-.32-1.44-.48.11-.63-2.87-.48.11c-1.12-1.91-3.04-8.62-2.9-10.9l.48-.11c.08-1.32-1.06-2.43-1.11-2.77l.48-.11-.21-.96.48-.11c-.33-.76-.67-1.53-1-2.29l.48-.11-.21-.96.85-.69c.49-1.39.48-3.83.28-5.58l.96-.21c.14-.57.7-1.02.75-1.17l-.05-2.5c1.03-1.4,2.06-2.79,3.09-4.19l.64-1.65,1.81-.9-.11-.48,1.54.16-.11-.48.96-.21c.39-.32-.02-1.41,1.23-1.27l.11.48c1.99-.03,2.87.89,4.73.97ZM439.24,328.35c-.16.49-.33.98-.49,1.47,3.31.06,2.05.23,3.43,1.96l.98.49c-.16.82-.33,1.63-.49,2.45l1.47.98v1.96h-.49v2.94h.49v3.43h-.49v.98l-.98.49-.49,2.45h-.49c-.84,1.18-.8.96-.98,2.94-2.33.62-2.07,2.29-4.41,2.94v.98l-.98.49c-.16.49-.33.98-.49,1.47h-1.47c-.33.49-.65.98-.98,1.47l-1.96.49v.49h-2.45l-.49.98h-.98v.49l-1.96-.49-.49.98c-1.34.32-1.29-.94-1.47-.98-1.41-.31-1.05.81-1.47.98h-2.45v.49h-.49v1.47l-1.47.98v.98h-.49v.98l-.98.49v1.47l-.98.49v.98l-1.47.98v.98l-.98.49v1.47l-1.47.98v.49h-.98l-3.43,4.41h-1.47l-.49,1.47-2.94,2.45c-.33.49-.65.98-.98,1.47h-.98c-.49.65-.98,1.31-1.47,1.96h-1.47l-.98,1.47h-.98c-.09.06-.57.69-.98.98v.49l-2.94.49-1.47,1.96h-2.94c-.37-.28.16-.73-.49-.49l-.98,1.47-3.92-.49v.49h-.98v.49l-3.43.49v.49h-.49v-.49l-1.47-.49v-.49h-.49v.49c-2.94-.33-5.88-.65-8.82-.98v-.49h-.98v-.49l-3.92-.49v-.49l-1.96-.49v-.49h-2.45v-.49c-1.96-.92-3.11-.82-3.43-3.43l-1.47-.49c.16-.49.33-.98.49-1.47h-.49c-.16-.82-.33-1.63-.49-2.45l.98-.49.49-2.94,2.94-.49v-.49c1.08-.31,2.78.21,3.43.49v.49l3.43.49v.49l2.94.49.49.98c1.63.16,3.27.33,4.9.49v.49c2.29.16,4.57.33,6.86.49.46.33-.18.68.49.49l.49-.98h1.96v-.49h.49v.49l4.41-.49,1.47-1.96h1.96v-.49c.92-.64.93-.79,2.45-.98.71-2.75,1.7-1.21,3.43-2.45v-.49h.49c.96-1.09-.53-.91,1.47-1.47.16-.65.33-1.31.49-1.96h.98c.47-.61,1.1-.52,1.47-.98.16-.49.33-.98.49-1.47l1.47-.49v-.98h.49c.33-.49.65-.98.98-1.47.65-.49,1.31-.98,1.96-1.47v-1.47h.49v-.98h.49v-1.47l1.47-.98v-1.47h.49v-.98l.98-.49v-3.43l.98-.49v-.98h.49v-.98l1.47-.49v-.49c.7-.48,1.22-.43,2.45-.49v-.49l2.45.49v-.49c.85-.13.98.49.98.49l1.96-.49v.49l2.94.49.49-.98,4.41-.49c.16-.49.33-.98.49-1.47h.49c.77-.87.57-1.09,1.96-1.47v-.98h1.47v-.49c.55-.63,1.68-5.14.98-6.86l-.98-.49v-2.94s-.81-.45-.49-1.47h.49v-.98l.98-.49v-1.96c.19-.31,2.46-1.33,3.43-.98l.49.98c.79.25.92-.48.98-.49l2.45.49Z"/>
</svg>