<svg width="193" height="29" viewBox="0 0 193 29" fill="none" xmlns="http://www.w3.org/2000/svg">
<path d="M150.074 17.3792V8.86814C150.074 7.8117 149.199 6.94869 148.129 6.94869C146.892 6.94869 145.385 6.94869 144.631 6.94869C144.284 6.94869 144.028 6.63622 144.103 6.30888C144.148 6.04105 144.374 5.86249 144.631 5.86249H151.19C152.396 5.86249 153.481 4.98461 153.587 3.79425C153.723 2.42535 152.637 1.27963 151.28 1.27963H127.668C127.276 1.27963 126.869 1.35403 126.522 1.54746C125.693 1.99384 125.241 2.85685 125.301 3.73474C125.301 3.73474 125.407 5.29708 125.407 7.67778C125.407 8.88302 125.376 10.2966 125.286 11.8291C125.015 16.531 124.05 19.864 123.19 21.9769C122.753 23.0334 122.346 23.7922 122.059 24.2683C121.924 24.5064 121.667 24.8784 121.667 24.8784C120.883 25.8604 121.049 27.2889 122.059 28.0775C123.055 28.8661 124.517 28.7024 125.316 27.7055C125.437 27.5567 126.447 26.2622 127.502 23.688C128.558 21.1288 129.643 17.2899 129.93 12.0821C130.02 10.4602 130.051 8.95741 130.051 7.67778C130.051 7.27604 130.051 6.90405 130.051 6.54695C130.051 6.17496 130.352 5.86249 130.729 5.86249H138.962C139.323 5.86249 139.58 6.18984 139.489 6.53207C139.429 6.78502 139.218 6.93381 138.962 6.93381L135.298 6.96357C134.227 6.96357 133.368 7.82658 133.368 8.88302L133.338 17.3792C133.338 18.4356 134.212 19.3135 135.283 19.3135H138.765C139.158 19.3135 139.489 19.626 139.489 20.0277V23.3458C139.489 23.7327 139.173 24.06 138.765 24.06H138.509C137.273 24.06 136.172 24.9528 136.052 26.1729C135.916 27.5716 137.032 28.747 138.419 28.747H140.017C140.56 28.747 141.118 28.6429 141.66 28.4346C142.068 28.2709 142.444 28.0328 142.776 27.7352C143.274 27.2889 143.666 26.7234 143.907 26.1134C144.148 25.5033 144.254 24.8635 144.254 24.2088V20.0426C144.254 19.6557 144.57 19.3284 144.978 19.3284H148.129C149.199 19.3284 150.074 18.4654 150.074 17.4089V17.3792ZM146.108 11.2935C146.108 11.5911 145.867 11.8143 145.581 11.8143H137.861C137.574 11.8143 137.333 11.5762 137.333 11.2935C137.333 10.9959 137.574 10.7727 137.861 10.7727H145.581C145.867 10.7727 146.108 11.0108 146.108 11.2935ZM137.861 14.433H145.581C145.867 14.433 146.108 14.6711 146.108 14.9538C146.108 15.2365 145.867 15.4746 145.581 15.4746H137.861C137.574 15.4746 137.333 15.2365 137.333 14.9538C137.333 14.6711 137.574 14.433 137.861 14.433ZM134.74 20.861C133.609 20.3402 132.267 20.8312 131.724 21.9472C131.724 21.9472 131.513 22.3787 131.136 22.8994C130.955 23.1673 130.714 23.45 130.458 23.7327C130.201 24.0154 129.9 24.2683 129.598 24.4915C128.588 25.2206 128.347 26.6193 129.086 27.6162C129.824 28.6131 131.242 28.8512 132.252 28.1221C132.87 27.6757 133.398 27.1996 133.835 26.7234C134.499 26.0092 134.981 25.3248 135.298 24.7891C135.629 24.2683 135.795 23.8964 135.825 23.8368C136.353 22.706 135.855 21.3817 134.71 20.861H134.74ZM153.074 25.2355C153.662 26.3217 153.255 27.6906 152.139 28.2709C151.039 28.8512 149.652 28.4495 149.064 27.3484C148.702 26.6788 148.219 25.9646 147.812 25.4141C147.405 24.8635 147.073 24.4618 146.998 24.3725V24.3576C146.184 23.4053 146.304 21.9918 147.269 21.2032C148.234 20.3997 149.667 20.5187 150.466 21.471C150.496 21.5008 150.873 21.9472 151.37 22.6167C151.883 23.3012 152.516 24.2088 153.074 25.2355ZM10.032 26.9466C9.77568 26.3068 9.77568 25.6373 10.0622 25.0272C10.3788 24.3427 10.8613 23.8368 11.4342 23.6285C11.6453 23.5541 11.8715 23.5095 12.0976 23.5095C12.3992 23.5095 12.7008 23.5839 12.9872 23.7178L13.4848 23.941C13.6657 24.0154 13.8768 24.0005 14.0427 23.8964C14.2085 23.7922 14.3141 23.5988 14.3141 23.4053V2.85685C14.3141 1.48794 15.083 0.342227 16.7416 0.342227C18.4001 0.342227 19.2596 1.54746 19.2596 2.78245V24.4469C19.2596 26.7086 18.0533 27.8245 17.3296 28.2858C16.9979 28.4941 16.048 29 14.5704 29C13.6054 29 12.5651 28.7917 11.4945 28.3751C10.8311 28.1221 10.3034 27.6013 10.032 26.9466ZM0.0957878 22.6762C-0.0851447 22.0662 -0.00975617 21.4264 0.321953 20.861C3.27718 15.7722 4.84527 9.53771 4.90558 9.26988C5.05635 8.65983 5.46345 8.15393 6.05148 7.85634C6.62444 7.57363 7.30293 7.49923 7.96635 7.6629C8.61469 7.8117 9.14241 8.16881 9.45905 8.65983C9.79076 9.16573 9.86614 9.7609 9.71537 10.4007C9.63998 10.6834 7.95127 17.5131 4.6191 23.2714C4.18185 24.0303 2.55345 24.7147 1.302 24.0749C0.713974 23.7773 0.291798 23.2714 0.110866 22.6614L0.0957878 22.6762ZM23.7527 11.1447C23.029 10.0139 23.3758 8.49615 24.5217 7.78194C24.9288 7.52899 25.3811 7.40995 25.8334 7.40995C26.6476 7.40995 27.4468 7.8117 27.9142 8.54079C28.0499 8.76398 31.382 13.9718 32.935 21.3966C33.0707 22.0364 32.935 22.6316 32.5883 23.1226C32.2415 23.5988 31.6836 23.941 31.0202 24.0749C30.8543 24.1047 30.6885 24.1195 30.5226 24.1195C29.2712 24.1195 28.3363 23.4351 28.1102 22.3787C26.7532 15.8912 23.7829 11.1893 23.7527 11.1447ZM46.897 26.2324V21.3073C46.897 21.1288 46.7915 20.9949 46.6256 20.9502C46.5954 20.9502 46.5653 20.9502 46.5201 20.9502C46.3844 20.9502 46.2637 21.0246 46.2034 21.1288C45.736 21.9174 45.3892 22.4531 45.2535 22.6465C44.8012 23.3458 43.5196 24.4469 41.9364 23.6583C40.5644 22.9738 40.3684 21.6347 41.1072 20.5038C42.3285 18.6439 45.3892 14.1503 46.2637 10.4007C46.309 10.2073 46.2637 9.99897 46.128 9.8353C45.9923 9.67163 45.7963 9.58235 45.5852 9.58235H44.5449C43.2482 9.58235 42.1174 9.00205 42.2078 7.14212C42.2983 5.29708 43.9116 4.95485 44.56 4.95485H46.1883C46.5653 4.95485 46.8819 4.65726 46.8819 4.27039V2.72293C46.8819 2.14264 47.093 1.63674 47.485 1.26475C47.9675 0.818368 48.6912 0.580298 49.4904 0.610056C50.787 0.669574 51.8123 1.72601 51.8123 3.02052V4.28527C51.8123 4.65726 52.1139 4.96973 52.5059 4.96973H53.7875C55.0993 4.96973 56.0492 5.74346 56.0492 7.14212C56.0492 7.78194 55.7928 8.37712 55.3254 8.83838C54.8429 9.31452 54.1946 9.58235 53.5312 9.58235H52.4456C52.2797 9.58235 52.129 9.65675 52.0234 9.79066C51.9179 9.92458 51.9028 10.0883 51.948 10.2519L52.0083 10.4305C52.5059 11.9035 54.6017 13.2278 55.1747 13.6147C56.2603 14.3438 56.4864 15.6234 55.823 16.784C55.4913 17.3643 54.6771 18.0636 53.7875 18.0636C53.2899 18.0636 52.8075 17.9148 52.4004 17.647C52.2797 17.5726 52.144 17.5577 52.0083 17.6321C51.8877 17.6916 51.8123 17.8256 51.8123 17.9595V26.4854C51.8123 27.7799 50.772 28.7173 49.3547 28.7173C48.7063 28.7173 48.1032 28.4643 47.6358 28.0031C47.1533 27.5269 46.8819 26.8871 46.8819 26.2324H46.897ZM71.6094 2.90149C72.2879 3.94305 72.3633 5.41611 71.142 6.18984C66.3472 9.255 60.9645 10.8471 60.7383 10.9066C60.5122 10.9661 60.2709 11.0108 60.0297 11.0108C59.0346 11.0108 58.2053 10.3114 57.8736 9.18061C57.4665 7.84146 58.0847 6.60647 59.321 6.23448C59.3663 6.23448 64.2665 4.76142 68.443 2.098C68.8351 1.84505 69.2422 1.72601 69.6342 1.72601C70.373 1.72601 71.0816 2.12776 71.5792 2.90149H71.6094ZM72.891 10.9661C73.5544 12.0523 73.5242 13.5998 72.3331 14.314C67.3424 17.3048 61.2208 19.254 60.9645 19.3284C60.7233 19.4028 60.4669 19.4474 60.2106 19.4474C59.2456 19.4474 58.5068 18.8225 58.145 17.7065C57.9339 17.0667 57.949 16.412 58.16 15.8615C58.3862 15.2812 58.8385 14.8794 59.4567 14.686C59.517 14.6711 65.3069 12.8112 69.7699 10.1478C70.9158 9.46332 72.1823 9.79066 72.906 10.9661H72.891ZM72.5743 22.7655C66.9051 25.8902 61.2057 27.7204 60.9645 27.7948C60.7233 27.8692 60.4669 27.9138 60.2106 27.9138C59.2456 27.9138 58.5219 27.2889 58.145 26.1432C57.6926 24.7742 58.2354 23.5393 59.4567 23.1524C59.517 23.1375 64.9601 21.3817 70.1619 18.51C70.5238 18.3017 70.9158 18.2124 71.2927 18.2124C71.5038 18.2124 71.7149 18.2422 71.926 18.3166C72.4839 18.4951 72.9814 18.9118 73.2981 19.492C74.0067 20.7419 73.6901 22.1555 72.5743 22.7804V22.7655ZM97.0907 12.3648H107.962C109.032 12.3648 109.907 11.5018 109.907 10.4454V2.66342C109.907 1.60698 109.032 0.743971 107.962 0.743971H97.0907C96.0202 0.743971 95.1457 1.60698 95.1457 2.66342V10.4454C95.1457 11.5018 96.0202 12.3648 97.0907 12.3648ZM99.0357 8.36224C99.0357 8.07953 99.277 7.84146 99.5634 7.84146H105.474C105.76 7.84146 106.002 8.07953 106.002 8.36224C106.002 8.64495 105.76 8.88302 105.474 8.88302H99.5634C99.277 8.88302 99.0357 8.64495 99.0357 8.36224ZM106.017 4.74654C106.017 5.02925 105.775 5.26732 105.489 5.26732H99.5785C99.292 5.26732 99.0508 5.02925 99.0508 4.74654C99.0508 4.46383 99.292 4.22576 99.5785 4.22576H105.489C105.775 4.22576 106.017 4.46383 106.017 4.74654ZM111.671 13.3915H93.472C92.492 13.3915 91.6627 14.195 91.6476 15.1621C91.6476 16.2335 92.2508 16.9774 93.3363 16.9774H94.045C94.3616 16.9774 94.5727 17.3048 94.437 17.5875C93.5324 19.4325 92.0849 20.4741 92.0397 20.5038C91.1652 21.099 90.6073 22.1555 91.5119 23.3012C92.4166 24.4469 93.5927 24.0898 94.241 23.6732C94.3315 23.6136 95.2964 22.959 96.3368 21.7091C96.4122 21.6049 96.5328 21.5603 96.6685 21.5603H97.0605C97.4073 21.5603 97.6184 21.9323 97.4224 22.215C96.0654 24.1642 94.2109 24.7891 94.0902 24.8338C93.08 25.1611 92.6277 26.1729 92.9594 27.1698C93.2308 27.9882 93.8791 28.5834 94.7084 28.5834C94.9044 28.5834 95.1155 28.5536 95.3115 28.4941C95.402 28.4643 96.3821 28.137 97.6033 27.2889C97.8597 27.1103 98.2215 27.1847 98.3723 27.4674L98.4477 27.6013C98.7643 28.1816 99.3373 28.5834 100.016 28.5834C100.136 28.5834 100.272 28.5834 100.393 28.5536C100.559 28.5239 101.9 28.2411 103.378 27.2442C103.559 27.1252 103.8 27.1252 103.966 27.2442C104.132 27.3633 104.313 27.4972 104.494 27.6162C105.655 28.3602 106.65 28.6131 107.464 28.6131C108.67 28.6131 109.485 28.0626 109.877 27.7204C112.922 25.057 112.455 20.3699 112.395 19.8194C112.289 18.8522 111.445 18.1083 110.465 18.1083H99.2167C98.8548 18.1083 98.5834 17.766 98.6889 17.4089C98.7492 17.156 98.9754 16.9923 99.2167 16.9923H111.55C112.53 16.9923 113.36 16.1888 113.375 15.2217C113.375 14.1503 112.772 13.4064 111.686 13.4064L111.671 13.3915ZM100.92 23.5839C101.222 23.0482 101.478 22.4679 101.704 21.8281C101.765 21.6644 101.931 21.5454 102.112 21.5454H102.624C102.956 21.5454 103.152 21.8876 103.001 22.1703C102.534 23.0185 101.931 23.5839 101.358 23.9856C101.086 24.1642 100.755 23.8666 100.92 23.5839ZM106.891 25.0123C106.725 24.9379 106.529 24.8189 106.318 24.6701C106.137 24.5511 106.077 24.313 106.167 24.1195C106.514 23.4649 106.816 22.7209 107.042 21.8579C107.087 21.6644 107.253 21.5305 107.464 21.5305H108.037C108.293 21.5305 108.505 21.7537 108.459 22.0067C108.309 22.9738 107.947 24.1791 107.404 24.8784C107.283 25.0272 107.072 25.0867 106.891 24.9974V25.0123ZM91.3159 4.1216C91.1501 5.32683 90.0946 6.23448 88.8733 6.23448C88.7678 6.23448 88.6472 6.23448 88.5416 6.2196L85.4658 5.81786C84.154 5.6393 83.2644 4.49359 83.4604 3.1098C83.5509 2.45511 83.8977 1.9492 84.3953 1.57722C84.7873 1.27963 85.2849 1.11596 85.7975 1.11596C85.9181 1.11596 86.0237 1.11596 86.1443 1.14572L89.2201 1.54746C90.5771 1.72601 91.4969 2.79733 91.3159 4.13648V4.1216ZM89.9589 10.5049C89.7931 11.7994 88.813 12.6773 87.637 12.6773C87.5314 12.6773 87.4259 12.6773 87.3203 12.6624L84.1239 12.2606C82.7669 12.097 81.817 10.862 81.9828 9.53771C82.1487 8.30272 83.1287 7.55875 84.35 7.55875C84.4556 7.55875 84.5611 7.55875 84.6667 7.57363L87.8631 7.97537C89.1598 8.13905 90.1248 9.12109 89.9439 10.5049H89.9589ZM89.7629 16.9179C88.3607 23.4797 84.7873 27.4823 84.6365 27.6609C84.1691 28.1816 83.4906 28.4792 82.797 28.4792C82.1939 28.4792 81.6059 28.256 81.1536 27.8543C80.1433 26.9615 80.0529 25.4289 80.9425 24.4171C80.9726 24.3874 83.8072 21.1139 84.923 15.921C85.1491 14.8943 86.0086 14.2694 87.1243 14.2694C87.3354 14.2694 87.5616 14.2991 87.7878 14.3438C89.2201 14.6414 90.0192 15.7127 89.7629 16.9328V16.9179ZM193 4.82093V8.58543C193 9.79066 192.005 10.7578 190.784 10.7281C189.562 10.6983 188.643 9.68651 188.643 8.51103V7.67778C188.643 7.29092 188.326 6.96357 187.919 6.96357H166.237C165.845 6.96357 165.513 7.27604 165.513 7.67778V8.58543C165.513 9.79066 164.518 10.7578 163.297 10.7281C162.076 10.6983 161.156 9.68651 161.156 8.51103V4.82093C161.156 4.25552 161.382 3.70498 161.789 3.30323C162.196 2.90149 162.754 2.6783 163.327 2.6783H174.138C174.439 2.6783 174.696 2.42535 174.696 2.12776C174.711 0.818368 175.796 0 177.123 0C178.45 0 179.521 0.714212 179.521 2.08312C179.521 2.41047 179.747 2.6783 180.018 2.6783H190.814C191.387 2.6783 191.945 2.90149 192.352 3.30323C192.759 3.70498 192.985 4.25552 192.985 4.82093H193ZM170.655 8.22832C169.434 7.93073 168.182 8.65983 167.881 9.86506C167.534 11.2191 167.006 12.5285 166.388 13.7188C165.468 15.5044 164.367 17.0369 163.508 18.1083C163.071 18.6439 162.709 19.0605 162.453 19.3284C162.317 19.4623 162.226 19.5664 162.166 19.6408C162.136 19.6706 162.106 19.7004 162.091 19.7152C161.186 20.5931 161.186 22.0216 162.061 22.8994C162.95 23.7922 164.398 23.8071 165.302 22.9292C165.317 22.9143 165.423 22.8102 165.589 22.6316C165.83 22.3787 166.252 22.5423 166.252 22.8994V26.4259C166.252 27.6757 167.232 28.7322 168.499 28.7619C169.765 28.7917 170.836 27.765 170.836 26.5003V15.2663C170.836 15.1324 170.851 15.0133 170.911 14.8943C171.484 13.6742 171.982 12.3648 172.344 10.9513C172.645 9.74602 171.906 8.51103 170.685 8.21344L170.655 8.22832ZM185.16 14.7158C184.617 14.7158 184.225 14.2396 184.33 13.7188C184.33 13.6891 184.33 13.6593 184.345 13.6296C184.421 13.2427 184.768 12.9451 185.175 12.9451H186.245C187.406 12.9451 188.401 12.0523 188.416 10.9066C188.431 9.7609 187.497 8.79374 186.321 8.79374H177.304C176.143 8.79374 175.148 9.68651 175.133 10.8322C175.118 11.9779 176.053 12.9451 177.229 12.9451H178.676C179.234 12.9451 179.641 13.4808 179.49 14.0164C179.49 14.0164 179.475 14.0908 179.46 14.1206C179.355 14.4777 179.023 14.7158 178.646 14.7158H176.595C175.465 14.7158 174.56 15.6234 174.56 16.7394V26.4854C174.56 27.6013 175.48 28.509 176.611 28.509H187.512C188.643 28.509 189.562 27.6013 189.562 26.4854V16.7394C189.562 15.6234 188.643 14.7158 187.512 14.7158H185.175H185.16ZM185.401 19.3284C185.401 19.7599 185.039 20.117 184.602 20.117H179.475C179.038 20.117 178.676 19.7599 178.676 19.3284C178.676 18.8969 179.038 18.5398 179.475 18.5398H184.602C185.039 18.5398 185.401 18.8969 185.401 19.3284ZM179.49 22.959H184.617C185.054 22.959 185.416 23.3161 185.416 23.7476V23.8815C185.416 24.313 185.054 24.6701 184.617 24.6701H179.49C179.053 24.6701 178.691 24.313 178.691 23.8815V23.7476C178.691 23.3161 179.053 22.959 179.49 22.959Z" fill="white"/>
</svg>
