<svg width="194" height="71" viewBox="0 0 194 71" fill="none" xmlns="http://www.w3.org/2000/svg">
<mask id="mask0_26_594" style="mask-type:luminance" maskUnits="userSpaceOnUse" x="0" y="0" width="194" height="71">
<path d="M194 0H0V70.9769H194V0Z" fill="white"/>
</mask>
<g mask="url(#mask0_26_594)">
<path d="M55.3939 5.53006C55.3939 6.68697 54.4586 7.62407 53.3038 7.62407C52.149 7.62407 51.2137 6.68697 51.2137 5.53006C51.2137 4.37314 52.149 3.43604 53.3038 3.43604C54.4586 3.43604 55.3939 4.37314 55.3939 5.53006Z" fill="#1A1311"/>
<path d="M55.3939 12.5525C55.3939 13.7094 54.4586 14.6465 53.3038 14.6465C52.149 14.6465 51.2137 13.7094 51.2137 12.5525C51.2137 11.3956 52.149 10.4585 53.3038 10.4585C54.4586 10.4585 55.3939 11.3956 55.3939 12.5525Z" fill="#1A1311"/>
<path d="M120.534 5.53006C120.534 6.68697 119.599 7.62407 118.444 7.62407C117.289 7.62407 116.354 6.68697 116.354 5.53006C116.354 4.37314 117.289 3.43604 118.444 3.43604C119.599 3.43604 120.534 4.37314 120.534 5.51849" fill="#1A1311"/>
<path d="M120.534 12.5525C120.534 13.7094 119.599 14.6465 118.444 14.6465C117.289 14.6465 116.354 13.7094 116.354 12.5525C116.354 11.3956 117.289 10.4585 118.444 10.4585C119.599 10.4585 120.534 11.3956 120.534 12.5525Z" fill="#1A1311"/>
<path d="M52.7726 18.9041C52.3223 18.9041 51.9527 19.2744 51.9412 19.7256C51.9412 22.1782 51.8257 29.999 50.9943 33.1921C50.5093 35.4596 49.5046 37.5884 48.0612 39.4047C47.8071 39.6824 47.7725 40.1104 47.9803 40.4228L48.5808 41.3252C48.8349 41.707 49.343 41.8227 49.724 41.5682C49.7702 41.5334 49.8164 41.4987 49.8626 41.464C51.7449 39.3006 53.0382 36.686 53.6156 33.8862C54.5509 30.3576 54.6549 22.2823 54.6549 19.7256C54.6549 19.2628 54.2853 18.8926 53.8234 18.8926H52.7726V18.9041Z" fill="#1A1311"/>
<path d="M75.7639 1.33057H65.4288C64.0662 1.33057 62.9576 2.44121 62.9576 3.80637V13.3509C62.9576 14.7161 64.0662 15.8267 65.4288 15.8267H75.7639C77.1265 15.8267 78.2351 14.7161 78.2351 13.3509V3.80637C78.2351 2.44121 77.1265 1.33057 75.7639 1.33057ZM75.5214 4.8823V6.36316C75.5214 6.82592 75.1519 7.19614 74.69 7.19614H66.5027C66.0408 7.19614 65.6713 6.82592 65.6713 6.36316V4.8823C65.6713 4.41953 66.0408 4.04932 66.5027 4.04932H74.69C75.1519 4.04932 75.5214 4.41953 75.5214 4.8823ZM65.6713 12.275V10.7594C65.6713 10.2967 66.0408 9.92646 66.5027 9.92646H74.69C75.1519 9.92646 75.5214 10.2967 75.5214 10.7594V12.275C75.5214 12.7378 75.1519 13.108 74.69 13.108H66.5027C66.0408 13.108 65.6713 12.7378 65.6713 12.275Z" fill="#1A1311"/>
<path d="M79.7247 25.0126H66.4103C65.9484 25.0126 65.5789 24.6424 65.5789 24.1796C65.5789 24.0639 65.602 23.9367 65.6597 23.8325C65.856 23.4045 66.0292 22.988 66.1563 22.6178C66.3641 22.0509 66.9069 21.6807 67.5073 21.6807H81.3183C81.7802 21.6807 82.1497 21.3105 82.1497 20.8477V19.7949C82.1497 19.3321 81.7802 18.9619 81.3183 18.9619H59.7935C59.3316 18.9619 58.9621 19.3321 58.9621 19.7949V20.8477C58.9621 21.3105 59.3316 21.6807 59.7935 21.6807H62.3571C62.819 21.6807 63.1885 22.0509 63.1885 22.5136C63.1885 22.6409 63.1654 22.7566 63.1077 22.8723C62.7266 23.6706 62.2532 24.4226 61.6758 25.1051C60.5326 26.3893 59.2161 27.5 57.7727 28.4024C57.4032 28.6337 57.2761 29.1081 57.484 29.5014L57.9805 30.4385C58.1884 30.8435 58.6965 31.0054 59.1007 30.7856C59.1238 30.7856 59.1353 30.7625 59.1584 30.7509C60.3132 30.0336 61.3986 29.2006 62.3917 28.2867C62.7728 27.9396 63.2694 27.7429 63.789 27.7429H64.9438C65.4057 27.7429 65.7752 28.1131 65.7752 28.5759C65.7752 28.6222 65.7752 28.68 65.7636 28.7263C65.5327 30.0336 65.1863 31.3178 64.7244 32.5557C63.9276 34.9736 62.5303 37.1487 60.6711 38.884C60.3709 39.1385 60.2901 39.5782 60.4979 39.9252L61.0291 40.8508C61.2485 41.2557 61.7566 41.3945 62.1608 41.1632C62.1954 41.14 62.2416 41.1169 62.2763 41.0822C64.5858 39.0344 66.3179 36.4198 67.2879 33.4928C67.8884 31.85 68.3272 30.1609 68.5928 28.4255C68.6505 28.0206 69.0085 27.7198 69.4127 27.7198H71.191C71.6529 27.7198 72.0224 28.09 72.0224 28.5528C72.0224 28.5875 72.0224 28.6337 72.0224 28.6684C71.8377 30.0105 71.5605 31.3294 71.191 32.6251C70.6367 34.8811 69.6552 37.0098 68.3157 38.9072C68.0732 39.208 68.0732 39.636 68.3157 39.9368L68.9854 40.7814C69.2741 41.14 69.7938 41.2094 70.1633 40.9202C70.2095 40.8855 70.2557 40.8392 70.2903 40.7929C71.9532 38.5832 73.1541 36.0611 73.8008 33.3887C74.2627 31.769 74.5976 30.1146 74.7939 28.4486C74.8401 28.0321 75.198 27.7198 75.6138 27.7198H78.6854C79.1473 27.7198 79.5169 28.09 79.5169 28.5412V28.5643C79.4707 30.265 79.3436 31.9541 79.1358 33.6316C78.9395 35.1935 78.5699 36.7322 78.0272 38.213C77.8771 38.6064 77.4729 38.8377 77.0572 38.7452L75.6484 38.4213C75.198 38.3171 74.7592 38.5948 74.6553 39.046L74.4243 40.0756C74.3204 40.5268 74.5976 40.9665 75.0479 41.0706L77.3574 41.5912C78.3967 41.8342 79.4707 41.3714 80.0134 40.469C80.025 40.4459 80.0365 40.4227 80.048 40.4112C80.0827 40.3302 80.1289 40.2492 80.1635 40.1682C81.018 38.2014 81.5723 36.1306 81.8264 34.0018C82.0689 32.1276 82.2075 30.2534 82.2421 28.3677C82.2421 28.1131 82.2421 27.8239 82.2536 27.5115C82.2652 26.1348 81.1566 25.001 79.7824 24.9895C79.7824 24.9895 79.7709 24.9895 79.7594 24.9895" fill="#1A1311"/>
<path d="M7.37889 8.59583C7.66758 8.19091 7.92163 7.77442 8.16413 7.3695C8.39508 6.97614 8.90317 6.86045 9.29579 7.09184C9.39972 7.16125 9.4921 7.24224 9.56139 7.34636C9.60758 7.42734 9.66532 7.49676 9.71151 7.57774C10.67 8.9082 11.8594 10.0651 13.2104 10.9906C13.5915 11.2452 14.0996 11.1526 14.3537 10.7708C14.3652 10.7477 14.3767 10.7361 14.3883 10.713L14.9079 9.77588C15.1158 9.40567 15.0119 8.93133 14.6654 8.68838C13.6146 7.95952 12.6792 7.05713 11.9287 6.0159C11.2589 4.99782 10.7277 3.88718 10.3582 2.71869C10.2542 2.38318 9.94246 2.1518 9.58448 2.1518L8.17567 2.12866C7.82925 2.12866 7.50591 2.33691 7.39044 2.66084C6.8246 4.19954 6.07401 5.66883 5.1502 7.03399C3.84532 8.73466 2.22865 10.1692 0.392579 11.2567C0.0230554 11.4881 -0.103968 11.9625 0.0923411 12.3442L0.357936 12.8533L0.588889 13.2929C0.796746 13.6978 1.30484 13.8598 1.70901 13.6516C1.72056 13.6516 1.74365 13.6284 1.7552 13.6284C3.94925 12.3442 5.86615 10.632 7.39044 8.6074" fill="#1A1311"/>
<path d="M5.11557 31.8499C5.04628 30.693 4.05319 29.8253 2.89842 29.8948C1.74366 29.9642 0.87759 30.9591 0.946876 32.116C1.01616 33.273 2.00926 34.1406 3.16402 34.0712C4.31878 34.0018 5.18485 33.0069 5.11557 31.8499Z" fill="#1A1311"/>
<path d="M14.1574 28.4023C13.0026 28.4023 12.0673 29.3394 12.0673 30.4964C12.0673 31.6533 13.0026 32.5904 14.1574 32.5904C15.3121 32.5904 16.2475 31.6533 16.2475 30.4964C16.2475 29.3394 15.3121 28.4023 14.1574 28.4023Z" fill="#1A1311"/>
<path d="M32.2063 4.17647C33.361 4.17647 34.2964 3.23937 34.2964 2.08245C34.2964 0.925534 33.361 0 32.2063 0C31.0515 0 30.1161 0.937103 30.1161 2.09402C30.1161 3.25094 31.0515 4.18804 32.2063 4.18804" fill="#1A1311"/>
<path d="M32.7144 37.4264C32.0677 36.5934 31.4557 35.7257 30.8898 34.8233C30.682 34.4878 30.7397 34.0597 31.0284 33.7936C32.3102 32.5442 33.5227 31.2253 34.6428 29.8254C34.92 29.4783 34.8622 28.9577 34.5158 28.6801C34.5158 28.6801 34.4927 28.6685 34.4812 28.6569L33.6151 28.0206C33.2687 27.7545 32.7721 27.824 32.495 28.1595C32.01 28.7726 31.167 29.7791 30.0584 30.9245C29.7466 31.2484 29.2154 31.26 28.8921 30.9361C28.8113 30.8666 28.7535 30.7741 28.7073 30.67C28.2801 29.6866 27.899 28.6801 27.5872 27.6504C27.3563 26.9216 27.1484 26.1696 26.9406 25.4176C26.8482 25.0821 27.056 24.735 27.3909 24.6424C27.5179 24.6077 27.645 24.6193 27.7604 24.654C30.3702 25.5333 33.2456 25.1168 35.4973 23.5318C35.8669 23.2657 35.9593 22.7567 35.6937 22.3864C35.6706 22.3517 35.6475 22.317 35.6128 22.2939L34.8507 21.4956C34.5735 21.2064 34.1347 21.1601 33.7998 21.3799C32.7721 22.0741 31.5481 22.4212 30.3125 22.3864C29.227 22.3517 28.1646 22.0278 27.2293 21.4493C26.3747 20.9056 25.7743 20.0379 25.5779 19.043C25.5087 18.638 25.4625 18.3835 25.4047 17.9786C25.347 17.6315 25.5895 17.3191 25.9244 17.2613C26.0514 17.2382 26.19 17.2613 26.3054 17.3191C26.7096 17.5158 27.1253 17.7241 27.3447 17.8051C28.3609 18.1984 29.4348 18.3951 30.5203 18.4066C32.2987 18.4066 34.0308 17.8513 35.4973 16.8448C35.8669 16.5787 35.9593 16.0697 35.6937 15.6995C35.6706 15.6648 35.6475 15.63 35.6128 15.6069L34.8391 14.8086C34.562 14.531 34.1232 14.4847 33.7998 14.7045C31.8368 15.9308 29.3887 16.0465 27.3216 15.0285C26.6288 14.7161 26.0168 14.2649 25.5087 13.7096C25.0583 13.1658 24.7581 12.5179 24.6426 11.8238C24.5964 11.4767 24.5733 11.1412 24.5502 10.8057C24.5156 10.4586 24.7581 10.1578 25.1045 10.1231C25.2084 10.1231 25.3239 10.1231 25.4163 10.1694C25.5779 10.2504 25.7512 10.3314 25.9244 10.4355C27.3216 11.2569 28.9152 11.6965 30.5319 11.7081C32.3102 11.7081 34.0423 11.1528 35.5089 10.1347C35.8784 9.8686 35.9708 9.35956 35.7052 8.98934C35.6821 8.95464 35.659 8.91993 35.6244 8.89679L34.8507 8.09852C34.5735 7.80929 34.1347 7.77458 33.8114 7.9944C31.8945 9.29014 29.4233 9.4174 27.3909 8.31833C26.6519 7.98283 25.9706 7.5432 25.3585 7.02259C24.6195 6.40942 24.1807 5.51859 24.146 4.55835C24.1114 3.63282 24.0998 3.04279 24.0883 2.52218C24.0883 2.07098 23.7188 1.71234 23.2684 1.72391H22.1829C21.7326 1.72391 21.3631 2.08255 21.3631 2.53375C21.3631 2.53375 21.3631 2.53375 21.3631 2.54532C21.3746 3.30888 21.4093 4.55835 21.4901 6.14333C21.5132 6.53668 21.2476 6.89532 20.8665 6.97631C19.7233 7.21926 18.6494 7.6936 17.6909 8.35304C17.3214 8.61913 17.229 9.12817 17.4946 9.49839C17.5177 9.5331 17.5408 9.5678 17.5754 9.59094L18.3376 10.3892C18.6147 10.6784 19.0535 10.7247 19.3884 10.5049C19.8041 10.2272 20.2429 10.0074 20.7048 9.84546C21.1321 9.69506 21.6056 9.91488 21.7557 10.3429C21.7788 10.4124 21.7903 10.4702 21.8019 10.5396C21.8596 11.2338 21.9289 11.9511 22.0097 12.6915C22.0559 13.1311 21.7557 13.5245 21.3284 13.5939C20.0235 13.8021 18.7764 14.2996 17.6909 15.0632C17.3214 15.3293 17.2406 15.8383 17.5062 16.2085C17.5293 16.2432 17.5523 16.2664 17.587 16.3011L18.3491 17.0993C18.6263 17.3886 19.0766 17.4348 19.4 17.2035C20.0697 16.7638 20.8088 16.463 21.594 16.3011C22.0328 16.2201 22.4485 16.5209 22.5294 16.9605C22.5294 16.9605 22.5294 16.9836 22.5294 16.9952C22.6333 17.7356 22.7488 18.4876 22.8758 19.2512C22.9566 19.7024 22.6448 20.1189 22.206 20.1999C22.1714 20.1999 22.1483 20.1999 22.1137 20.1999C20.5316 20.304 18.9958 20.8362 17.6909 21.7501C17.3214 22.0162 17.229 22.5253 17.4946 22.8955C17.5177 22.9302 17.5523 22.9649 17.5754 22.9996L18.3376 23.7863C18.6147 24.0755 19.0535 24.1218 19.3769 23.902C20.4277 23.1963 21.6748 22.8492 22.9451 22.9071C23.3146 22.9302 23.6264 23.1847 23.7072 23.5549C24.0768 25.2209 24.504 26.8637 25.0121 28.4603C25.5087 30.0337 26.1207 31.5724 26.8482 33.0648C27.0214 33.4119 26.9175 33.8284 26.6172 34.0713C26.4556 34.1986 26.2939 34.3374 26.1207 34.4531C24.6079 35.6447 22.9566 36.6744 21.2129 37.5073C20.8434 37.6809 20.6471 38.0974 20.7741 38.4907L21.0975 39.532C21.236 39.9716 21.6864 40.2145 22.1252 40.0757C22.1598 40.0757 22.1829 40.0526 22.2176 40.041C24.1922 39.1155 26.0514 37.9701 27.772 36.6165C28.0145 36.4314 28.257 36.2347 28.4879 36.0496C29.5734 37.8429 30.8437 39.5088 32.2756 41.0475C33.0723 41.8805 34.3888 41.9268 35.2202 41.1285C35.4281 40.9318 35.5897 40.7004 35.6937 40.4459L37.1602 37.0793C37.345 36.6628 37.1602 36.1769 36.7329 35.9918L35.7514 35.5637C35.3357 35.3786 34.8507 35.5637 34.6659 35.9918L34.1232 37.2297C33.95 37.6462 33.465 37.8313 33.0493 37.6577C32.9222 37.5999 32.8183 37.5189 32.7259 37.4148" fill="#1A1311"/>
<path d="M141.493 5.55327C142.648 5.55327 143.583 4.61617 143.583 3.45925C143.583 2.30234 142.648 1.36523 141.493 1.36523C140.338 1.36523 139.403 2.30234 139.403 3.45925C139.403 4.61617 140.338 5.55327 141.493 5.55327Z" fill="#1A1311"/>
<path d="M103.513 18.3255C104.552 17.0529 105.661 15.8381 106.839 14.6812C108.524 13.1541 109.945 11.3608 111.03 9.35938C111.943 7.46203 112.474 5.40272 112.601 3.29713C112.624 2.84593 112.277 2.45258 111.827 2.42944C111.804 2.42944 111.792 2.42944 111.769 2.42944H110.164C109.725 2.42944 109.367 2.76495 109.344 3.19301C109.24 4.82426 108.825 6.42081 108.132 7.90166C107.197 9.59076 105.984 11.1063 104.541 12.3905C103.282 13.6284 102.081 14.9241 100.972 16.3009C99.5866 17.99 98.4896 19.8989 97.6928 21.9351V21.9813C97.0461 23.7514 97.4734 25.7182 98.7667 27.0718L110.926 40.0524C111.238 40.3879 111.769 40.3995 112.093 40.0871L113.259 38.988C113.594 38.6757 113.605 38.155 113.294 37.8195L101.423 25.1513C100.764 24.4456 100.58 23.4159 100.961 22.5251C101.619 21.0211 102.474 19.6212 103.501 18.3486" fill="#1A1311"/>
<path d="M147.197 21.5186C144.16 21.2872 141.112 21.7963 138.306 23.011C137.89 23.173 137.405 22.9648 137.243 22.5483C137.197 22.421 137.174 22.2822 137.197 22.1549C137.74 18.0826 138.606 14.0565 139.784 10.123C139.911 9.69491 139.668 9.24372 139.253 9.10489L137.705 8.60741C137.278 8.46858 136.816 8.69996 136.678 9.12802C136.678 9.12802 136.678 9.13959 136.678 9.15116C135.119 14.23 134.126 19.4709 133.733 24.7695C133.698 26.1347 134.772 27.2801 136.135 27.3148C136.551 27.3148 136.955 27.2338 137.324 27.0487C139.218 26.0769 143.214 24.3299 146.816 24.758C149.045 24.9894 150.974 26.4008 151.874 28.4485C152.567 30.1376 152.255 32.0697 151.066 33.458C148.329 36.8825 143.202 36.9287 141.285 36.813C140.858 36.7899 140.488 37.0907 140.431 37.5188L140.2 39.1269C140.13 39.5781 140.442 39.9946 140.892 40.064C140.916 40.064 140.939 40.064 140.962 40.064C141.331 40.0871 141.805 40.1103 142.359 40.1103C145.315 40.1103 150.454 39.474 153.629 35.4942C155.569 33.1919 156.054 29.9988 154.911 27.2106C153.56 24.0523 150.627 21.8773 147.221 21.5186" fill="#1A1311"/>
<path d="M192.118 27.6272C191.714 27.419 191.229 27.5809 191.021 27.9743C188.896 31.9888 186.148 36.0033 181.933 36.8131C180.258 37.1602 178.526 36.7784 177.152 35.7603C175.755 34.6034 175.039 32.6135 175.039 29.8485C175.039 22.7103 175.674 8.05217 175.836 4.44259C175.859 3.99139 175.501 3.60961 175.05 3.58647L173.434 3.50549C172.983 3.48235 172.602 3.82942 172.579 4.29219C172.417 7.92491 171.782 22.6409 171.782 29.8485C171.782 33.6316 172.891 36.466 175.073 38.2824C176.667 39.555 178.653 40.2376 180.686 40.2029C181.309 40.2029 181.933 40.145 182.545 40.0294C188.122 38.965 191.552 33.9671 193.919 29.4783C194.127 29.0734 193.977 28.5874 193.573 28.3676L192.129 27.6388L192.118 27.6272Z" fill="#1A1311"/>
<path d="M10.1042 36.6395V24.9778C10.1042 24.515 10.4737 24.1448 10.9356 24.1448H13.3029C13.7648 24.1448 14.1343 23.7746 14.1343 23.3118V22.2474C14.1343 21.7847 13.7648 21.4145 13.3029 21.4145H10.9356C10.4737 21.4145 10.1042 21.0443 10.1042 20.5815V19.1932C10.1042 18.7304 10.4737 18.3602 10.9356 18.3602H13.3029C13.7648 18.3602 14.1343 17.99 14.1343 17.5272V16.4629C14.1343 16.0001 13.7648 15.6299 13.3029 15.6299H3.71833C3.25643 15.6299 2.8869 16.0001 2.8869 16.4629V17.5272C2.8869 17.99 3.25643 18.3602 3.71833 18.3602H6.55904C7.02095 18.3602 7.39047 18.7304 7.39047 19.1932V20.5815C7.39047 21.0443 7.02095 21.4145 6.55904 21.4145H3.72988C3.26797 21.4145 2.89845 21.7847 2.89845 22.2474V23.3118C2.89845 23.7746 3.26797 24.1448 3.72988 24.1448H6.57059C7.0325 24.1448 7.40202 24.515 7.40202 24.9778V37.8427C7.40202 38.2476 7.11333 38.5947 6.70916 38.6641C5.70452 38.8492 4.68833 38.9765 3.67214 39.0459C3.23333 39.069 2.89845 39.4392 2.89845 39.8789V40.9895C2.92154 41.4407 3.29107 41.8109 3.74143 41.8109C3.75297 41.8109 3.77607 41.8109 3.78762 41.8109C5.77381 41.6837 7.7369 41.3482 9.64226 40.8275C11.2474 40.3879 12.8063 39.8326 14.3306 39.1616C14.7463 38.9765 14.9311 38.479 14.7348 38.0741C14.7348 38.0509 14.7232 38.0394 14.7117 38.0162L14.1805 37.0328C13.9726 36.6511 13.5107 36.4891 13.1181 36.6742C12.6793 36.8709 12.0326 37.137 11.2127 37.4262C10.7855 37.5766 10.312 37.3452 10.1619 36.9172C10.1273 36.8246 10.1157 36.732 10.1157 36.6395" fill="#1A1311"/>
<path d="M41.3982 59.6854L42.4259 59.9399C42.2643 60.6688 42.7262 61.3861 43.4537 61.548C43.5114 61.5596 43.5807 61.5712 43.6384 61.5712C44.62 61.8141 45.1627 61.5249 45.3128 60.9117C45.4399 60.4027 45.1974 60.044 44.5969 59.7548L43.4537 59.1879C42.3566 58.6326 41.9871 57.9384 42.2181 57.0361C42.4952 55.9138 43.419 55.3701 44.9087 55.7287C46.1327 55.8676 47.0219 56.9666 46.8833 58.193C46.8833 58.2392 46.8718 58.2971 46.8602 58.3434L45.7978 58.0888C45.8671 57.3137 45.4976 56.8394 44.6431 56.6311C43.8925 56.446 43.3613 56.608 43.2227 57.1749C43.1188 57.5798 43.2689 57.9269 43.9502 58.2624L45.0472 58.8177C46.2251 59.4193 46.5946 60.125 46.3637 61.0621C46.0634 62.3116 44.9549 62.8669 43.3613 62.4736C42.1141 62.3347 41.2019 61.2125 41.3405 59.9631C41.3405 59.8705 41.3636 59.7664 41.3866 59.6738" fill="#1A1311"/>
<path d="M54.7819 61.6521L50.2321 60.7613C49.9896 62.219 50.5555 63.0751 51.6409 63.2949C52.4377 63.48 53.246 63.0751 53.5809 62.3347L54.5394 62.6586C54.0082 63.8618 52.7033 64.5328 51.4215 64.232C49.6085 63.8734 48.8118 62.2537 49.2044 60.2522C49.597 58.2508 50.9019 57.0939 52.7149 57.4525C54.4239 57.788 55.2553 59.211 54.8627 61.2356L54.7819 61.6637V61.6521ZM50.4053 59.9399L53.9389 60.634C54.0313 59.373 53.5463 58.5863 52.5532 58.4012C51.5716 58.2045 50.6247 58.8408 50.4284 59.8242C50.4284 59.8589 50.4169 59.9052 50.4053 59.9399Z" fill="#1A1311"/>
<path d="M63.1308 61.4206L62.4379 65.9442L61.3525 65.7822L62.0107 61.4901C62.1492 60.5877 61.8259 60.0555 61.006 59.9282C60.1861 59.801 59.1931 60.148 58.9506 61.7099L58.3963 65.331L57.3108 65.1691L58.3039 58.644L59.3201 58.806L59.1815 59.7315C59.7242 59.0952 60.5788 58.7944 61.3986 58.9564C62.4841 59.0374 63.2925 59.9861 63.2001 61.0736C63.2001 61.2008 63.1654 61.3281 63.1308 61.4438" fill="#1A1311"/>
<path d="M67.4496 64.9492C67.3919 65.4351 67.5189 65.5971 67.9693 65.6549L68.7661 65.7475L68.6506 66.7193L67.5305 66.5805C66.5836 66.4648 66.214 65.9673 66.3411 64.9492L66.8607 60.7149L65.9369 60.6571L66.0524 59.7547L66.9646 59.9051L67.2187 57.8689L68.3157 58.0077L68.0617 60.067L69.4705 60.1827L69.355 61.0851L67.9577 60.8653L67.4496 64.9492Z" fill="#1A1311"/>
<path d="M71.2719 63.7114C71.4682 61.5943 72.8192 60.3795 74.586 60.5415C76.3066 60.7035 77.4037 62.1265 77.2073 64.2205C77.011 66.2798 75.6369 67.6103 73.9047 67.4483C72.1379 67.2863 71.0756 65.7823 71.2603 63.723M76.1103 64.1164C76.2489 62.6239 75.6484 61.629 74.459 61.5249C73.2927 61.4092 72.5075 62.3347 72.3689 63.8156C72.2303 65.2964 72.8423 66.3492 74.0086 66.4649C75.1981 66.5806 75.9833 65.6088 76.1219 64.1164" fill="#1A1311"/>
<path d="M79.9455 64.0352L79.8784 65.0974L83.2321 65.31L83.2991 64.2477L79.9455 64.0352Z" fill="#1A1311"/>
<path d="M91.792 61.7215L91.5841 68.0961C91.7458 69.5307 90.7181 70.8265 89.2862 70.9884C89.0552 71.0116 88.8127 71.0116 88.5818 70.9769C87.1383 70.9306 86.1568 70.3059 86.0297 68.9638L87.1037 68.9985C87.2422 69.739 87.7619 70.0166 88.6395 70.0513C89.9097 70.0976 90.4525 69.5654 90.4987 68.1771L90.5218 67.321C90.0945 67.992 89.3439 68.3854 88.5471 68.3507C86.8727 68.2928 85.9027 66.7657 85.9604 64.7179C86.0182 62.728 87.1729 61.4207 88.7434 61.467C89.5748 61.467 90.337 61.9413 90.7065 62.6933L90.7412 61.6753L91.7804 61.71L91.792 61.7215ZM90.591 64.9031C90.6372 63.3412 89.9213 62.5314 88.8935 62.4967C87.8312 62.462 87.1383 63.2602 87.0921 64.7642C87.0459 66.2914 87.6464 67.3094 88.7088 67.3557C89.7365 67.3904 90.5333 66.4649 90.591 64.9146" fill="#1A1311"/>
<path d="M94.5519 65.065C94.5519 62.9478 95.7759 61.5942 97.5427 61.5942C99.2749 61.5942 100.499 62.9016 100.51 64.9956C100.51 67.0665 99.2749 68.5126 97.5427 68.5242C95.7644 68.5242 94.5634 67.1474 94.5519 65.065ZM99.4134 65.0071C99.4134 63.5147 98.7206 62.5776 97.5196 62.5892C96.3418 62.5892 95.6489 63.5841 95.6605 65.0766C95.672 66.569 96.3764 67.5524 97.5427 67.5524C98.7437 67.5524 99.425 66.5111 99.4134 65.0187" fill="#1A1311"/>
<path d="M102.97 65.0071C102.889 62.8899 104.079 61.5016 105.857 61.4438C107.578 61.3859 108.848 62.6585 108.929 64.7526C108.998 66.8235 107.809 68.3043 106.065 68.3737C104.286 68.4316 103.039 67.0895 102.97 65.0187M107.82 64.7873C107.762 63.2949 107.046 62.3809 105.857 62.4272C104.679 62.4734 104.021 63.48 104.079 64.9724C104.136 66.4648 104.875 67.425 106.042 67.3788C107.243 67.3325 107.889 66.2797 107.832 64.7873" fill="#1A1311"/>
<path d="M116.619 58.4937L117.255 67.564L116.296 67.6334L116.227 66.5922C115.892 67.3557 115.153 67.8648 114.321 67.9111C112.647 68.0267 111.527 66.6037 111.388 64.5676C111.25 62.5777 112.254 61.1662 113.825 61.0505C114.564 60.9811 115.28 61.2819 115.753 61.8488L115.522 58.5632L116.619 58.4822V58.4937ZM115.973 64.2783C115.869 62.7281 115.072 61.9876 114.044 62.0571C112.982 62.1265 112.381 62.9942 112.485 64.4981C112.589 66.0253 113.294 66.974 114.356 66.9045C115.384 66.8351 116.088 65.8402 115.973 64.2783Z" fill="#1A1311"/>
<path d="M123.352 60.1943L123.467 61.3397C123.34 61.3397 123.213 61.3513 123.074 61.3628C122.035 61.5364 121.342 62.5082 121.504 63.5494L121.862 67.1358L120.765 67.2515L120.107 60.6918L121.134 60.5877L121.262 61.9066C121.446 61.0042 122.197 60.31 123.121 60.2059C123.202 60.2059 123.271 60.1943 123.352 60.2059" fill="#1A1311"/>
<path d="M132.001 65.0534L132.116 65.9211L131.539 66.0021C131.031 66.1409 130.523 65.8401 130.384 65.331C130.373 65.2848 130.361 65.2269 130.361 65.1691C129.957 65.9674 129.172 66.5111 128.282 66.5805C127.301 66.835 126.285 66.245 126.031 65.2616C126.008 65.1575 125.984 65.0534 125.973 64.9493C125.834 63.8733 126.342 63.0288 127.797 62.6354L129.345 62.2189C129.587 62.1842 129.761 61.9644 129.726 61.7215C129.726 61.6983 129.726 61.6868 129.726 61.6636L129.691 61.386C129.599 60.7034 129.125 60.4257 128.179 60.553C127.301 60.6687 126.897 61.0157 126.943 61.895L125.857 62.0338C125.777 60.5761 126.562 59.7778 128.144 59.5696C129.668 59.3729 130.627 59.9167 130.823 61.3512L131.239 64.5675C131.296 64.9955 131.447 65.1228 131.851 65.065L132.024 65.0418L132.001 65.0534ZM129.992 63.8618L129.876 62.9478L128.086 63.48C127.243 63.7345 126.966 64.1741 127.047 64.7642C127.105 65.331 127.613 65.7591 128.179 65.7013C128.236 65.7013 128.294 65.6897 128.352 65.6665C129.287 65.5971 130.015 64.8104 129.992 63.8733" fill="#1A1311"/>
<path d="M134.068 63.5147L135.107 63.3412C135.246 64.0701 135.95 64.556 136.678 64.4171C136.747 64.4056 136.805 64.394 136.862 64.3709C137.855 64.2089 138.248 63.723 138.144 63.1098C138.063 62.5892 137.694 62.3578 137.036 62.3231L135.765 62.2537C134.541 62.1843 133.929 61.6868 133.779 60.7728C133.594 59.6391 134.241 58.7714 135.742 58.5169C136.92 58.1582 138.167 58.8177 138.525 59.9977C138.537 60.044 138.548 60.0903 138.56 60.1481L137.486 60.3216C137.301 59.6391 136.608 59.2341 135.939 59.4192C135.915 59.4192 135.892 59.4308 135.858 59.4424C135.084 59.5696 134.668 59.9283 134.772 60.5068C134.842 60.9232 135.119 61.1778 135.858 61.224L137.082 61.305C138.398 61.3976 139.01 61.9066 139.172 62.8553C139.38 64.1279 138.583 65.065 136.966 65.3311C135.765 65.7013 134.495 65.0187 134.126 63.8155C134.091 63.723 134.079 63.6304 134.056 63.5263" fill="#1A1311"/>
<path d="M146.897 58.5748L147.833 63.052L146.759 63.2718L145.87 59.0144C145.685 58.1236 145.2 57.7302 144.38 57.9038C143.56 58.0773 142.752 58.7483 143.075 60.287L143.826 63.8734L142.752 64.0933L140.904 55.185L141.978 54.9536L142.659 58.2161C142.971 57.4873 143.629 56.9551 144.415 56.8278C145.454 56.527 146.539 57.1286 146.84 58.1698C146.874 58.2855 146.897 58.4128 146.909 58.5401" fill="#1A1311"/>
<path d="M149.334 53.3455L150.408 53.0679L150.72 54.2942L149.646 54.5719L149.334 53.3455ZM149.946 55.7751L151.02 55.4974L152.636 61.8836L151.562 62.1612L149.946 55.7751Z" fill="#1A1311"/>
</g>
</svg>
