<svg width="131" height="39" viewBox="0 0 131 39" fill="none" xmlns="http://www.w3.org/2000/svg">
<path d="M10.2109 34.6732C10.2109 36.239 11.5668 37.6844 13.7214 37.6844C13.7214 37.6844 19.4919 37.6844 19.8083 37.6844C19.8083 37.6844 24.9912 37.5489 24.946 31.1351V3.28203C24.946 1.64096 23.3037 0.647278 21.4505 0.647278C19.5973 0.647278 18.2413 1.64096 18.2413 3.28203V30.292C18.2413 32.2041 16.4183 32.0234 16.4183 32.0234H12.8324C11.4463 32.0234 10.2109 33.1074 10.2109 34.6582V34.6732ZM35.1912 31.0599C35.583 32.445 36.5171 33.1526 37.8881 33.1526C38.1744 33.1526 38.4607 33.1074 38.7469 33.0322C40.4193 32.5654 41.7 31.0147 41.2329 29.3435C38.8072 20.7768 34.2119 12.1649 34.016 11.8337C33.1723 10.3131 31.3945 10.0119 29.8727 10.8551C28.351 11.6982 27.673 13.3543 28.5167 14.8749C28.5619 14.9502 32.9463 23.1857 35.1762 31.0599H35.1912ZM1.29144 33.0924C1.99957 33.5441 2.45157 33.6645 2.7077 33.7398C3.86783 34.1011 5.13342 33.3182 5.84155 32.2643C12.1092 22.8695 13.8268 14.1673 13.8871 13.7608C14.2035 11.8939 13.7063 10.9303 12.049 10.4486C10.3766 9.96678 8.77953 10.4034 8.31247 12.0595C8.28233 12.1499 5.76622 20.7919 0.658648 29.0424C-0.260413 30.5179 -0.365879 32.0084 1.30651 33.0773L1.29144 33.0924Z" fill="white"/>
<path d="M60.8345 22.5987C61.3768 22.5836 61.9042 22.3578 62.3562 22.0567C62.5219 21.9513 62.7479 21.9964 62.7931 22.1922C62.7931 22.2373 62.8232 22.2825 62.8383 22.3277C63.215 23.5923 64.3751 24.3903 65.6256 24.3903C65.9119 24.3903 66.1982 24.3451 66.4844 24.2698C72.7822 22.3578 82.8316 16.4409 83.2535 16.1849C84.6396 15.3719 84.715 13.6857 83.9014 12.3005C83.0878 10.9154 81.6715 10.3583 80.2854 11.1714C80.1799 11.2316 70.4168 16.9829 64.7819 18.6992C64.4354 18.8046 64.1792 18.91 63.908 19.1208C63.7574 19.2412 63.5314 19.166 63.4711 18.9853C63.3054 18.4583 62.9287 18.0368 62.4466 17.6905C61.0604 16.6667 59.2374 15.2966 58.0622 14.3933C57.8513 14.2277 57.7157 13.9717 57.7157 13.7158V12.9028C57.7157 12.6468 57.9115 12.4511 58.1677 12.4511H60.9399C61.7384 12.4511 62.3863 12.2403 62.8082 11.6833C62.9287 11.5176 63.1698 11.5478 63.2903 11.7134C63.8026 12.3758 64.586 12.7673 65.4298 12.7673C65.6859 12.7673 65.942 12.7372 66.1981 12.6468C72.4056 10.7799 80.3005 6.72991 80.6319 6.54925C81.9578 5.87174 82.2139 4.23066 81.5209 2.90576C80.8429 1.58085 79.4869 1.08401 78.161 1.76152C78.0857 1.80669 70.3716 5.76635 64.6463 7.4827C64.134 7.63326 63.6971 7.93437 63.3656 8.32582C63.2451 8.47638 63.0191 8.44627 62.9136 8.28065C62.4918 7.6182 61.7987 7.19664 60.9248 7.19664H58.1526C57.8965 7.19664 57.7006 6.98586 57.7006 6.72991V2.86059C57.7006 1.12918 56.2994 0 54.5517 0C52.804 0 51.4028 1.12918 51.4028 2.86059V6.72991C51.4028 6.98586 51.1918 7.19664 50.9357 7.19664H46.3103C44.8187 7.19664 43.8394 8.4011 43.8394 9.89162C43.8394 11.3821 44.8337 12.436 46.3103 12.436H50.6946C50.9056 12.436 51.0713 12.6318 50.996 12.8425C50.1974 15.0858 47.9827 21.0329 44.8639 25.5646C43.8846 26.9949 44.3064 28.8317 45.7377 29.8104C46.2801 30.1868 46.8979 30.3674 47.5156 30.3674C48.51 30.3674 49.4441 30.0061 50.0468 29.1329C50.4234 28.5758 50.8001 28.0037 51.1617 27.4316C51.237 27.3262 51.4028 27.3563 51.4028 27.4918V35.5165C51.4028 37.2479 53.1204 38.362 54.8681 38.362C56.6158 38.362 58.017 37.2479 58.017 35.5165V22.1319C58.017 21.9513 58.2279 21.8609 58.3635 21.9663C58.3635 21.9663 59.2826 22.689 60.8345 22.6288V22.5987ZM81.0086 22.96C80.9333 23.0052 73.2041 27.8832 66.153 30.5481C64.5258 31.1654 63.7122 32.9721 64.3299 34.5981C64.812 35.8477 66.0023 36.6306 67.2679 36.6306C67.6445 36.6306 68.0212 36.5704 68.3828 36.4198C76.0065 33.5291 84.0219 28.4704 84.3684 28.2596C85.8299 27.3262 85.9956 25.4442 85.0615 23.9838C84.1274 22.5234 82.4701 22.0265 81.0086 22.96Z" fill="white"/>
<path d="M94.7493 1.61093C94.1768 1.40015 93.6495 1.20443 93.2879 1.06893C91.7812 0.496809 90.38 1.3851 89.8075 2.89067C89.235 4.39624 89.702 5.94698 91.2087 6.5191C91.6004 6.66966 92.1428 6.86538 92.7605 7.09122C94.0412 7.55795 95.6232 8.13007 96.4368 8.4914C96.8436 8.67207 97.2655 8.74735 97.6723 8.7323C98.7721 8.70218 99.646 7.90423 100.113 6.83527C100.761 5.35981 100.249 3.79401 98.7721 3.14662C97.7777 2.71 96.1656 2.12283 94.7493 1.61093ZM128.574 15.9591L99.3597 16.0193C99.2241 16.0193 99.0885 16.0193 98.968 16.0494C98.8173 16.0795 98.6968 15.9289 98.757 15.7934C98.8474 15.6128 98.9077 15.4321 98.968 15.2213C99.3446 13.6555 98.3954 12.0747 96.8285 11.6983C96.2409 11.5477 95.0507 11.1563 94.3124 10.9455C93.2879 10.6444 92.9715 10.5691 92.2332 10.4035C90.4403 10.012 88.9186 10.5691 88.3762 12.0897C87.7132 13.9717 88.572 15.5375 90.4102 15.9289C90.9375 16.0343 91.8264 16.2903 92.7003 16.5462C93.4988 16.7721 94.7343 17.1786 95.4575 17.3592C95.7136 17.4195 95.9848 17.4496 96.2409 17.4496C96.6327 17.4496 96.9943 17.3442 97.3408 17.1936C97.4764 17.1334 97.5969 17.2689 97.5517 17.4044C97.4764 17.6453 97.4463 17.9163 97.4463 18.2174C97.4463 19.452 98.1393 20.5209 99.3748 20.5209H103.428C103.608 20.5209 103.699 20.7167 103.578 20.8522C102.78 21.7706 101.785 22.7793 100.655 23.7429C100.535 23.8483 100.339 23.7429 100.354 23.5773C100.52 22.1018 99.6761 21.1984 98.4105 20.6715C96.7984 20.009 94.9753 20.5962 94.3275 22.1921C93.5591 24.059 91.269 29.0726 88.0748 32.7161C86.9298 34.0259 87.1407 35.8477 88.4515 36.9919C89.0542 37.5189 89.7924 37.7748 90.5307 37.7748C91.4046 37.7748 92.188 37.5791 92.8057 36.8715C94.4781 34.9744 95.9095 32.8215 97.0997 30.7889C97.2202 30.5782 97.4764 30.5029 97.6873 30.6083C98.064 30.804 98.4858 30.9094 98.9077 30.9094C99.3296 30.9094 99.7816 30.804 100.188 30.5782C102.599 29.2834 104.633 27.567 106.26 25.9259C106.471 25.7152 106.757 25.5947 107.044 25.5947H108.159C108.324 25.5947 108.37 25.8055 108.264 25.9109C106.034 28.0789 102.614 30.6836 98.2297 32.8215C97.0093 33.4237 96.723 34.9293 97.3106 36.1488C97.7325 37.022 98.7872 37.4888 99.6912 37.4888C100.053 37.4888 100.414 37.3984 100.761 37.2479C109.153 33.514 113.658 27.9133 115.24 25.941C115.421 25.7302 115.677 25.5947 115.948 25.5947H116.325C116.521 25.5947 116.641 25.8055 116.536 25.9561C114.773 28.2144 111.835 31.4363 108.113 33.5291C106.923 34.1915 106.516 35.5917 107.179 36.7811C107.646 37.6092 108.505 38.0157 109.394 38.0006C109.786 38.0006 110.132 37.9103 110.494 37.6995C115.27 35.0196 119.082 31.3008 121.146 28.7113C121.327 28.4704 121.493 28.4252 121.643 28.4704C121.869 28.5456 121.854 29.1328 121.854 29.1328V31.2707C121.854 32.3698 120.468 32.4601 120.468 32.4601L119.338 32.5806C119.338 32.5806 116.807 32.686 116.792 34.9443C116.762 37.6544 119.971 37.564 119.971 37.564H122.11C128.242 37.278 128.544 31.1653 128.544 31.1653L128.514 23.9386C128.514 21.6049 126.977 21.0931 125.756 21.1382H110.509C110.373 21.1382 110.298 20.9726 110.373 20.8522C110.494 20.6564 110.705 20.536 110.946 20.536L128.619 20.5059C129.854 20.5059 130.532 19.4971 130.532 18.2626C130.532 17.028 129.854 16.0193 128.619 16.0193L128.574 15.9591ZM104.648 15.1159H123.436C124.672 15.1159 125.681 14.0921 125.681 12.8275V2.67989C125.681 1.41521 124.672 0.391418 123.436 0.391418H104.648C103.413 0.391418 102.403 1.41521 102.403 2.67989V12.8275C102.403 14.0921 103.413 15.1159 104.648 15.1159ZM109.213 5.45015C109.213 5.1942 109.394 4.96836 109.635 4.96836H118.675C118.931 4.96836 119.127 5.1942 119.127 5.45015C119.127 5.70609 118.946 5.93193 118.705 5.93193H109.665C109.409 5.93193 109.213 5.70609 109.213 5.45015ZM109.213 10.0572C109.213 9.80125 109.394 9.57542 109.635 9.57542H118.675C118.931 9.57542 119.127 9.80125 119.127 10.0572C119.127 10.3131 118.946 10.539 118.705 10.539H109.665C109.409 10.539 109.213 10.3131 109.213 10.0572Z" fill="white"/>
</svg>
