<svg width="159" height="58" viewBox="0 0 159 58" fill="none" xmlns="http://www.w3.org/2000/svg">
<mask id="mask0_52_2615" style="mask-type:luminance" maskUnits="userSpaceOnUse" x="0" y="0" width="159" height="58">
<path d="M158.221 0H0V57.8868H158.221V0Z" fill="white"/>
</mask>
<g mask="url(#mask0_52_2615)">
<path d="M45.1778 4.51019C45.1778 5.45374 44.415 6.21802 43.4732 6.21802C42.5314 6.21802 41.7686 5.45374 41.7686 4.51019C41.7686 3.56664 42.5314 2.80237 43.4732 2.80237C44.415 2.80237 45.1778 3.56664 45.1778 4.51019Z" fill="white"/>
<path d="M45.1778 10.2375C45.1778 11.1811 44.415 11.9454 43.4732 11.9454C42.5314 11.9454 41.7686 11.1811 41.7686 10.2375C41.7686 9.294 42.5314 8.52972 43.4732 8.52972C44.415 8.52972 45.1778 9.294 45.1778 10.2375Z" fill="white"/>
<path d="M98.3043 4.51019C98.3043 5.45374 97.5415 6.21802 96.5997 6.21802C95.6579 6.21802 94.895 5.45374 94.895 4.51019C94.895 3.56664 95.6579 2.80237 96.5997 2.80237C97.5415 2.80237 98.3043 3.56664 98.3043 4.50076" fill="white"/>
<path d="M98.3043 10.2375C98.3043 11.1811 97.5415 11.9454 96.5997 11.9454C95.6579 11.9454 94.895 11.1811 94.895 10.2375C94.895 9.294 95.6579 8.52972 96.5997 8.52972C97.5415 8.52972 98.3043 9.294 98.3043 10.2375Z" fill="white"/>
<path d="M43.0404 15.4176C42.6731 15.4176 42.3718 15.7195 42.3623 16.0875C42.3623 18.0878 42.2682 24.4662 41.5901 27.0704C41.1945 28.9198 40.3752 30.6559 39.1979 32.1373C38.9907 32.3637 38.9625 32.7128 39.132 32.9676L39.6217 33.7036C39.8289 34.0149 40.2433 34.1093 40.5541 33.9017C40.5918 33.8734 40.6294 33.8451 40.6671 33.8168C42.2022 32.0524 43.257 29.9199 43.7279 27.6365C44.4908 24.7587 44.5756 18.1727 44.5756 16.0875C44.5756 15.7101 44.2742 15.4081 43.8975 15.4081H43.0404V15.4176Z" fill="white"/>
<path d="M61.7916 1.08508H53.3626C52.2513 1.08508 51.3472 1.99089 51.3472 3.10428V10.8886C51.3472 12.002 52.2513 12.9078 53.3626 12.9078H61.7916C62.903 12.9078 63.8071 12.002 63.8071 10.8886V3.10428C63.8071 1.99089 62.903 1.08508 61.7916 1.08508ZM61.5939 3.98178V5.18952C61.5939 5.56694 61.2925 5.86888 60.9158 5.86888H54.2385C53.8618 5.86888 53.5604 5.56694 53.5604 5.18952V3.98178C53.5604 3.60436 53.8618 3.30242 54.2385 3.30242H60.9158C61.2925 3.30242 61.5939 3.60436 61.5939 3.98178ZM53.5604 10.0111V8.77501C53.5604 8.39759 53.8618 8.09566 54.2385 8.09566H60.9158C61.2925 8.09566 61.5939 8.39759 61.5939 8.77501V10.0111C61.5939 10.3885 61.2925 10.6904 60.9158 10.6904H54.2385C53.8618 10.6904 53.5604 10.3885 53.5604 10.0111Z" fill="white"/>
<path d="M65.022 20.3995H54.1631C53.7864 20.3995 53.485 20.0976 53.485 19.7202C53.485 19.6258 53.5039 19.522 53.551 19.4371C53.7111 19.088 53.8523 18.7483 53.9559 18.4464C54.1255 17.9841 54.5681 17.6821 55.0578 17.6821H66.3217C66.6984 17.6821 66.9998 17.3802 66.9998 17.0028V16.1441C66.9998 15.7667 66.6984 15.4648 66.3217 15.4648H48.7667C48.39 15.4648 48.0886 15.7667 48.0886 16.1441V17.0028C48.0886 17.3802 48.39 17.6821 48.7667 17.6821H50.8574C51.2342 17.6821 51.5355 17.9841 51.5355 18.3615C51.5355 18.4653 51.5167 18.5596 51.4696 18.654C51.1588 19.305 50.7727 19.9183 50.3018 20.475C49.3694 21.5224 48.2958 22.4282 47.1185 23.1641C46.8172 23.3529 46.7136 23.7397 46.8831 24.0605L47.2881 24.8248C47.4576 25.155 47.872 25.2871 48.2016 25.1079C48.2204 25.1079 48.2298 25.089 48.2487 25.0796C49.1905 24.4946 50.0758 23.8152 50.8857 23.0698C51.1965 22.7867 51.6015 22.6263 52.0253 22.6263H52.9671C53.3438 22.6263 53.6452 22.9283 53.6452 23.3057C53.6452 23.3434 53.6452 23.3906 53.6357 23.4283C53.4474 24.4946 53.1648 25.5419 52.7881 26.5515C52.1383 28.5235 50.9987 30.2974 49.4824 31.7127C49.2376 31.9203 49.1716 32.2788 49.3412 32.5619L49.7744 33.3167C49.9533 33.647 50.3677 33.7602 50.6973 33.5715C50.7256 33.5526 50.7633 33.5338 50.7915 33.5055C52.6751 31.8354 54.0878 29.7029 54.8789 27.3158C55.3686 25.9759 55.7265 24.5983 55.9431 23.183C55.9902 22.8528 56.2822 22.6075 56.6118 22.6075H58.0622C58.4389 22.6075 58.7402 22.9094 58.7402 23.2868C58.7402 23.3151 58.7402 23.3529 58.7402 23.3812C58.5896 24.4757 58.3635 25.5513 58.0622 26.6081C57.6101 28.448 56.8096 30.1842 55.7171 31.7316C55.5193 31.9769 55.5193 32.326 55.7171 32.5713L56.2633 33.2601C56.4988 33.5526 56.9226 33.6092 57.224 33.3734C57.2616 33.345 57.2993 33.3073 57.3276 33.2696C58.6837 31.4674 59.6632 29.4104 60.1906 27.2308C60.5673 25.9099 60.8404 24.5606 61.0005 23.2019C61.0382 22.8622 61.3302 22.6075 61.6692 22.6075H64.1744C64.5511 22.6075 64.8525 22.9094 64.8525 23.2774V23.2962C64.8148 24.6833 64.7112 26.0608 64.5417 27.429C64.3816 28.7028 64.0802 29.9577 63.6376 31.1654C63.5151 31.4863 63.1855 31.675 62.8465 31.5995L61.6975 31.3353C61.3302 31.2504 60.9723 31.4768 60.8875 31.8448L60.6992 32.6846C60.6144 33.0525 60.8404 33.4111 61.2077 33.496L63.0913 33.9206C63.9389 34.1188 64.8148 33.7413 65.2574 33.0054C65.2669 32.9865 65.2763 32.9676 65.2857 32.9582C65.314 32.8921 65.3516 32.8261 65.3799 32.76C66.0768 31.156 66.5289 29.4671 66.7361 27.7309C66.9338 26.2024 67.0469 24.6738 67.0751 23.1358C67.0751 22.9283 67.0751 22.6924 67.0845 22.4376C67.0939 21.3148 66.1898 20.3901 65.0691 20.3807C65.0691 20.3807 65.0597 20.3807 65.0503 20.3807" fill="white"/>
<path d="M6.01855 7.01059C6.25399 6.68034 6.46119 6.34067 6.65897 6.01042C6.84732 5.68962 7.26171 5.59526 7.58192 5.78397C7.66668 5.84059 7.74203 5.90663 7.79853 5.99155C7.83621 6.0576 7.8833 6.11422 7.92097 6.18026C8.70265 7.26535 9.6727 8.2089 10.7746 8.96374C11.0854 9.17132 11.4998 9.09583 11.707 8.78446C11.7164 8.76559 11.7258 8.75615 11.7352 8.73728L12.159 7.97301C12.3286 7.67107 12.2438 7.28422 11.9613 7.08607C11.1042 6.49164 10.3414 5.75567 9.72921 4.90647C9.18297 4.07615 8.74974 3.17034 8.44837 2.21736C8.36361 1.94373 8.10933 1.75502 7.81737 1.75502L6.66838 1.73615C6.38585 1.73615 6.12214 1.90598 6.02797 2.17018C5.56649 3.4251 4.95432 4.62341 4.20089 5.7368C3.13666 7.12381 1.81815 8.29381 0.320705 9.18075C0.0193319 9.36946 -0.0842652 9.75632 0.0758394 10.0677L0.292452 10.4829L0.48081 10.8414C0.650333 11.1716 1.06472 11.3037 1.39435 11.1339C1.40377 11.1339 1.4226 11.115 1.43202 11.115C3.22142 10.0677 4.7848 8.67123 6.02797 7.02002" fill="white"/>
<path d="M4.17257 25.9759C4.11606 25.0324 3.30612 24.3247 2.36433 24.3813C1.42253 24.438 0.71619 25.2494 0.772698 26.193C0.829205 27.1365 1.63915 27.8442 2.58094 27.7876C3.52273 27.7309 4.22907 26.9195 4.17257 25.9759Z" fill="white"/>
<path d="M11.5464 23.1642C10.6046 23.1642 9.8418 23.9285 9.8418 24.872C9.8418 25.8156 10.6046 26.5798 11.5464 26.5798C12.4882 26.5798 13.2511 25.8156 13.2511 24.872C13.2511 23.9285 12.4882 23.1642 11.5464 23.1642Z" fill="white"/>
<path d="M26.2671 3.40621C27.2089 3.40621 27.9718 2.64194 27.9718 1.69839C27.9718 0.75484 27.2089 0 26.2671 0C25.3254 0 24.5625 0.764275 24.5625 1.70782C24.5625 2.65137 25.3254 3.41565 26.2671 3.41565" fill="white"/>
<path d="M26.6815 30.5238C26.1541 29.8444 25.6549 29.1368 25.1934 28.4008C25.0239 28.1272 25.071 27.7781 25.3065 27.5611C26.3519 26.542 27.3407 25.4664 28.2543 24.3247C28.4803 24.0416 28.4332 23.617 28.1507 23.3906C28.1507 23.3906 28.1318 23.3811 28.1224 23.3717L27.4161 22.8527C27.1335 22.6357 26.7286 22.6923 26.5025 22.966C26.107 23.4661 25.4195 24.2869 24.5154 25.2211C24.2611 25.4852 23.8279 25.4947 23.5641 25.2305C23.4982 25.1739 23.4511 25.0984 23.4135 25.0135C23.065 24.2115 22.7542 23.3906 22.4999 22.5508C22.3116 21.9564 22.142 21.3431 21.9725 20.7298C21.8972 20.4561 22.0667 20.1731 22.3398 20.0976C22.4434 20.0693 22.547 20.0787 22.6412 20.107C24.7696 20.8241 27.1147 20.4844 28.9512 19.1918C29.2526 18.9748 29.3279 18.5596 29.1113 18.2577C29.0925 18.2294 29.0736 18.201 29.0454 18.1822L28.4238 17.5311C28.1978 17.2952 27.8399 17.2575 27.5668 17.4368C26.7286 18.0029 25.7303 18.286 24.7226 18.2577C23.8373 18.2294 22.9708 17.9652 22.208 17.4934C21.511 17.0499 21.0213 16.3423 20.8612 15.5308C20.8047 15.2006 20.767 14.993 20.7199 14.6627C20.6728 14.3797 20.8706 14.1249 21.1437 14.0777C21.2473 14.0589 21.3604 14.0777 21.4545 14.1249C21.7842 14.2853 22.1232 14.4552 22.3021 14.5212C23.1309 14.842 24.0068 15.0024 24.8921 15.0118C26.3424 15.0118 27.7551 14.5589 28.9512 13.7381C29.2526 13.521 29.3279 13.1059 29.1113 12.8039C29.0925 12.7756 29.0736 12.7473 29.0454 12.7285L28.4144 12.0774C28.1883 11.851 27.8305 11.8132 27.5668 11.9925C25.9657 12.9927 23.9691 13.087 22.2833 12.2567C21.7182 12.0019 21.2191 11.6339 20.8047 11.181C20.4374 10.7376 20.1925 10.2092 20.0984 9.64305C20.0607 9.35998 20.0418 9.08636 20.023 8.81273C19.9948 8.52966 20.1925 8.28434 20.4751 8.25603C20.5598 8.25603 20.654 8.25603 20.7294 8.29377C20.8612 8.35982 21.0025 8.42587 21.1437 8.51079C22.2833 9.18071 23.583 9.53926 24.9015 9.54869C26.3519 9.54869 27.7645 9.09579 28.9606 8.26547C29.262 8.04845 29.3373 7.63329 29.1207 7.33135C29.1019 7.30305 29.0831 7.27474 29.0548 7.25587L28.4238 6.60482C28.1978 6.36893 27.8399 6.34063 27.5762 6.5199C26.0128 7.57668 23.9974 7.68047 22.3398 6.78409C21.7371 6.51047 21.1814 6.15192 20.6823 5.72732C20.0795 5.22724 19.7216 4.5007 19.6934 3.71756C19.6651 2.96272 19.6557 2.48151 19.6463 2.05691C19.6463 1.68893 19.3449 1.39643 18.9776 1.40586H18.0923C17.725 1.40586 17.4237 1.69836 17.4237 2.06635C17.4237 2.06635 17.4237 2.06635 17.4237 2.07578C17.4331 2.69852 17.4613 3.71756 17.5273 5.01022C17.5461 5.33103 17.3295 5.62353 17.0187 5.68958C16.0863 5.88772 15.2105 6.27458 14.4288 6.8124C14.1274 7.02942 14.052 7.44458 14.2687 7.74652C14.2875 7.77482 14.3063 7.80313 14.3346 7.822L14.9562 8.47305C15.1822 8.70894 15.5401 8.74668 15.8132 8.5674C16.1522 8.34095 16.5101 8.16168 16.8868 8.02958C17.2353 7.90692 17.6214 8.08619 17.7439 8.43531C17.7627 8.49192 17.7721 8.5391 17.7815 8.59571C17.8286 9.16184 17.8851 9.74684 17.9511 10.3507C17.9887 10.7093 17.7439 11.0301 17.3954 11.0867C16.3312 11.2565 15.3141 11.6622 14.4288 12.285C14.1274 12.502 14.0615 12.9172 14.2781 13.2191C14.2969 13.2474 14.3158 13.2663 14.344 13.2946L14.9656 13.9456C15.1916 14.1815 15.5589 14.2193 15.8226 14.0306C16.3689 13.672 16.9716 13.4267 17.612 13.2946C17.9699 13.2285 18.309 13.4739 18.3749 13.8324C18.3749 13.8324 18.3749 13.8513 18.3749 13.8607C18.4596 14.4646 18.5538 15.0779 18.6574 15.7006C18.7233 16.0686 18.4691 16.4083 18.1112 16.4743C18.0829 16.4743 18.0641 16.4743 18.0358 16.4743C16.7456 16.5593 15.493 16.9933 14.4288 17.7387C14.1274 17.9557 14.052 18.3709 14.2687 18.6728C14.2875 18.7011 14.3158 18.7294 14.3346 18.7577L14.9562 19.3994C15.1822 19.6352 15.5401 19.673 15.8038 19.4937C16.6608 18.9181 17.678 18.6351 18.7139 18.6823C19.0153 18.7011 19.2696 18.9087 19.3355 19.2106C19.6369 20.5694 19.9853 21.9092 20.3997 23.2113C20.8047 24.4945 21.3038 25.7494 21.8972 26.9666C22.0384 27.2497 21.9537 27.5894 21.7088 27.7875C21.577 27.8913 21.4451 28.0045 21.3038 28.0989C20.0701 29.0707 18.7233 29.9105 17.3012 30.5898C16.9999 30.7314 16.8398 31.0711 16.9434 31.3919L17.2071 32.2411C17.3201 32.5996 17.6874 32.7978 18.0452 32.6845C18.0735 32.6845 18.0923 32.6657 18.1206 32.6562C19.7311 31.9014 21.2473 30.9673 22.6506 29.8633C22.8484 29.7123 23.0462 29.5519 23.2345 29.401C24.1198 30.8635 25.1558 32.2222 26.3236 33.4771C26.9734 34.1565 28.0471 34.1942 28.7252 33.5432C28.8947 33.3828 29.0265 33.194 29.1113 32.9865L30.3074 30.2407C30.4581 29.9011 30.3074 29.5048 29.9589 29.3538L29.1584 29.0047C28.8193 28.8537 28.4238 29.0047 28.2731 29.3538L27.8305 30.3634C27.6892 30.7031 27.2936 30.854 26.9546 30.7125C26.851 30.6653 26.7662 30.5993 26.6909 30.5144" fill="white"/>
<path d="M115.398 4.52905C116.34 4.52905 117.103 3.76478 117.103 2.82123C117.103 1.87768 116.34 1.1134 115.398 1.1134C114.457 1.1134 113.694 1.87768 113.694 2.82123C113.694 3.76478 114.457 4.52905 115.398 4.52905Z" fill="white"/>
<path d="M84.4223 14.9458C85.2699 13.9079 86.174 12.9172 87.1346 11.9736C88.5096 10.7282 89.6681 9.26565 90.5533 7.63331C91.2974 6.08589 91.7306 4.40637 91.8342 2.68911C91.853 2.32112 91.5705 2.00032 91.2032 1.98145C91.1843 1.98145 91.1749 1.98145 91.1561 1.98145H89.847C89.4891 1.98145 89.1972 2.25507 89.1783 2.60419C89.0936 3.93459 88.7545 5.23669 88.1894 6.44444C87.4266 7.82202 86.4377 9.05807 85.2605 10.1054C84.2339 11.115 83.2545 12.1718 82.3503 13.2946C81.2202 14.6722 80.3255 16.229 79.6756 17.8897V17.9274C79.1482 19.3711 79.4967 20.9751 80.5515 22.0791L90.4686 32.6657C90.7229 32.9393 91.1561 32.9487 91.4198 32.694L92.371 31.7976C92.6441 31.5429 92.6535 31.1183 92.3993 30.8446L82.7176 20.5128C82.1808 19.9372 82.0301 19.0974 82.3409 18.3709C82.8777 17.1443 83.5747 16.0026 84.4129 14.9647" fill="white"/>
<path d="M120.051 17.55C117.574 17.3613 115.088 17.7765 112.799 18.7672C112.46 18.8993 112.064 18.7295 111.933 18.3898C111.895 18.286 111.876 18.1728 111.895 18.069C112.338 14.7477 113.044 11.4641 114.005 8.25608C114.108 7.90696 113.91 7.53898 113.571 7.42575L112.309 7.02003C111.961 6.9068 111.584 7.09551 111.471 7.44463C111.471 7.44463 111.471 7.45406 111.471 7.4635C110.2 11.6057 109.39 15.88 109.07 20.2014C109.041 21.3148 109.917 22.2489 111.028 22.2772C111.367 22.2772 111.697 22.2112 111.998 22.0602C113.543 21.2676 116.802 19.8429 119.74 20.192C121.558 20.3807 123.13 21.5318 123.865 23.2019C124.43 24.5795 124.176 26.1552 123.206 27.2875C120.974 30.0804 116.792 30.1181 115.229 30.0238C114.88 30.0049 114.579 30.2502 114.532 30.5993L114.344 31.9109C114.287 32.2789 114.541 32.6185 114.909 32.6751C114.927 32.6751 114.946 32.6751 114.965 32.6751C115.267 32.694 115.653 32.7129 116.105 32.7129C118.516 32.7129 122.707 32.1939 125.297 28.9481C126.879 27.0705 127.274 24.4663 126.342 22.1923C125.24 19.6164 122.848 17.8425 120.07 17.55" fill="white"/>
<path d="M156.687 22.532C156.357 22.3622 155.961 22.4943 155.792 22.8151C154.059 26.0892 151.817 29.3633 148.38 30.0238C147.014 30.3068 145.602 29.9955 144.481 29.1651C143.341 28.2216 142.757 26.5987 142.757 24.3436C142.757 18.5219 143.275 6.56713 143.407 3.62326C143.426 3.25528 143.134 2.9439 142.767 2.92503L141.448 2.85898C141.081 2.84011 140.77 3.12318 140.751 3.5006C140.62 6.46334 140.102 18.4653 140.102 24.3436C140.102 27.429 141.006 29.7407 142.786 31.2221C144.085 32.26 145.705 32.8167 147.363 32.7884C147.871 32.7884 148.38 32.7412 148.879 32.6468C153.428 31.7788 156.225 27.7026 158.156 24.0417C158.325 23.7114 158.203 23.3151 157.873 23.1359L156.696 22.5414L156.687 22.532Z" fill="white"/>
<path d="M8.24118 29.8822V20.3713C8.24118 19.9938 8.54255 19.6919 8.91927 19.6919H10.8499C11.2267 19.6919 11.528 19.39 11.528 19.0125V18.1445C11.528 17.7671 11.2267 17.4651 10.8499 17.4651H8.91927C8.54255 17.4651 8.24118 17.1632 8.24118 16.7858V15.6535C8.24118 15.2761 8.54255 14.9742 8.91927 14.9742H10.8499C11.2267 14.9742 11.528 14.6722 11.528 14.2948V13.4267C11.528 13.0493 11.2267 12.7474 10.8499 12.7474H3.03307C2.65635 12.7474 2.35498 13.0493 2.35498 13.4267V14.2948C2.35498 14.6722 2.65635 14.9742 3.03307 14.9742H5.34988C5.7266 14.9742 6.02797 15.2761 6.02797 15.6535V16.7858C6.02797 17.1632 5.7266 17.4651 5.34988 17.4651H3.04249C2.66577 17.4651 2.3644 17.7671 2.3644 18.1445V19.0125C2.3644 19.39 2.66577 19.6919 3.04249 19.6919H5.3593C5.73601 19.6919 6.03739 19.9938 6.03739 20.3713V30.8635C6.03739 31.1938 5.80194 31.4768 5.47231 31.5334C4.65295 31.6844 3.82418 31.7882 2.9954 31.8448C2.63752 31.8637 2.3644 32.1656 2.3644 32.5242V33.43C2.38323 33.798 2.68461 34.0999 3.05191 34.0999C3.06132 34.0999 3.08016 34.0999 3.08958 34.0999C4.70946 33.9961 6.31051 33.7225 7.86446 33.2979C9.17355 32.9393 10.445 32.4864 11.6881 31.9392C12.0272 31.7882 12.1779 31.3825 12.0178 31.0522C12.0178 31.0334 12.0083 31.0239 11.9989 31.0051L11.5657 30.203C11.3962 29.8917 11.0195 29.7596 10.6993 29.9105C10.3414 30.0709 9.81397 30.288 9.1453 30.5238C8.79684 30.6465 8.4107 30.4578 8.28827 30.1087C8.26002 30.0332 8.2506 29.9577 8.2506 29.8822" fill="white"/>
<path d="M33.7635 48.6778L34.6017 48.8854C34.4699 49.4798 34.8466 50.0648 35.4399 50.1969C35.487 50.2063 35.5435 50.2158 35.5906 50.2158C36.3911 50.4139 36.8338 50.178 36.9562 49.6779C37.0598 49.2628 36.862 48.9703 36.3723 48.7344L35.4399 48.272C34.5452 47.8191 34.2438 47.253 34.4322 46.517C34.6582 45.6018 35.4117 45.1583 36.6266 45.4508C37.6249 45.5641 38.35 46.4604 38.237 47.4606C38.237 47.4983 38.2276 47.5455 38.2182 47.5833L37.3517 47.3757C37.4083 46.7435 37.1069 46.3566 36.41 46.1868C35.7978 46.0358 35.3646 46.1679 35.2516 46.6303C35.1668 46.9605 35.2892 47.2436 35.8449 47.5172L36.7396 47.9701C37.7002 48.4608 38.0016 49.0363 37.8132 49.8006C37.5684 50.8196 36.6642 51.2725 35.3646 50.9517C34.3474 50.8385 33.6034 49.9233 33.7164 48.9042C33.7164 48.8287 33.7353 48.7438 33.7541 48.6683" fill="white"/>
<path d="M44.6791 50.2818L40.9684 49.5552C40.7706 50.7441 41.2321 51.4423 42.1174 51.6216C42.7672 51.7726 43.4265 51.4423 43.6996 50.8385L44.4813 51.1027C44.0481 52.084 42.9838 52.6312 41.9385 52.3859C40.4598 52.0934 39.81 50.7724 40.1302 49.1401C40.4504 47.5077 41.5147 46.5642 42.9933 46.8567C44.3871 47.1303 45.0652 48.2909 44.745 49.9421L44.6791 50.2912V50.2818ZM41.1097 48.8853L43.9916 49.4515C44.0669 48.423 43.6714 47.7814 42.8614 47.6304C42.0609 47.47 41.2886 47.9889 41.1285 48.791C41.1285 48.8193 41.1191 48.857 41.1097 48.8853Z" fill="white"/>
<path d="M51.4878 50.093L50.9228 53.7823L50.0375 53.6502L50.5743 50.1496C50.6873 49.4137 50.4236 48.9796 49.7549 48.8758C49.0863 48.772 48.2763 49.0551 48.0786 50.3289L47.6265 53.2822L46.7412 53.1501L47.5512 47.8285L48.3799 47.9606L48.2669 48.7154C48.7096 48.1965 49.4065 47.9512 50.0752 48.0833C50.9604 48.1493 51.6197 48.923 51.5443 49.8099C51.5443 49.9137 51.5161 50.0175 51.4878 50.1119" fill="white"/>
<path d="M55.0101 52.9709C54.963 53.3672 55.0666 53.4993 55.4339 53.5465L56.0838 53.622L55.9896 54.4146L55.076 54.3013C54.3038 54.207 54.0024 53.8013 54.106 52.9709L54.5298 49.5175L53.7764 49.4704L53.8705 48.7344L54.6146 48.8571L54.8218 47.1964L55.7165 47.3096L55.5093 48.9892L56.6583 49.0835L56.5641 49.8195L55.4245 49.6402L55.0101 52.9709Z" fill="white"/>
<path d="M58.1274 51.9613C58.2875 50.2346 59.3894 49.2439 60.8304 49.376C62.2336 49.5081 63.1283 50.6687 62.9682 52.3765C62.8081 54.056 61.6874 55.1411 60.2747 55.009C58.8338 54.8769 57.9673 53.6503 58.118 51.9708M62.0735 52.2916C62.1865 51.0744 61.6968 50.2629 60.7268 50.178C59.7756 50.0837 59.1351 50.8385 59.0221 52.0462C58.9091 53.254 59.4083 54.1126 60.3595 54.207C61.3295 54.3013 61.9699 53.5087 62.0829 52.2916" fill="white"/>
<path d="M65.2017 52.2253L65.147 53.0917L67.8821 53.265L67.9368 52.3987L65.2017 52.2253Z" fill="white"/>
<path d="M74.8635 50.3384L74.694 55.5374C74.8258 56.7074 73.9876 57.7642 72.8198 57.8963C72.6315 57.9151 72.4337 57.9151 72.2453 57.8868C71.0681 57.8491 70.2676 57.3396 70.164 56.2451L71.0398 56.2734C71.1528 56.8772 71.5767 57.1037 72.2924 57.132C73.3284 57.1697 73.771 56.7357 73.8087 55.6034L73.8275 54.9052C73.4791 55.4525 72.8669 55.7733 72.2171 55.745C70.8515 55.6978 70.0604 54.4523 70.1075 52.7822C70.1545 51.1593 71.0963 50.0931 72.3772 50.1309C73.0553 50.1309 73.6769 50.5177 73.9782 51.131L74.0065 50.3007L74.8541 50.329L74.8635 50.3384ZM73.884 52.9332C73.9217 51.6594 73.3378 50.9989 72.4996 50.9706C71.6332 50.9423 71.0681 51.5934 71.0304 52.82C70.9927 54.0655 71.4825 54.8958 72.3489 54.9335C73.1871 54.9618 73.8369 54.207 73.884 52.9426" fill="white"/>
<path d="M77.1143 53.0653C77.1143 51.3386 78.1126 50.2346 79.5535 50.2346C80.9662 50.2346 81.9645 51.3008 81.9739 53.0087C81.9739 54.6976 80.9662 55.877 79.5535 55.8865C78.1031 55.8865 77.1237 54.7637 77.1143 53.0653ZM81.0792 53.0181C81.0792 51.8009 80.5141 51.0366 79.5347 51.0461C78.574 51.0461 78.009 51.8575 78.0184 53.0747C78.0278 54.2919 78.6023 55.0939 79.5535 55.0939C80.533 55.0939 81.0886 54.2447 81.0792 53.0275" fill="white"/>
<path d="M83.9802 53.018C83.9143 51.2913 84.8843 50.1591 86.3347 50.1119C87.738 50.0647 88.7739 51.1026 88.8399 52.8104C88.8964 54.4994 87.9263 55.7071 86.5042 55.7638C85.0539 55.8109 84.0367 54.7164 83.9802 53.0275M87.9357 52.8388C87.8887 51.6216 87.3047 50.8762 86.3347 50.9139C85.3741 50.9517 84.8372 51.7725 84.8843 52.9897C84.9314 54.2069 85.5342 54.99 86.4854 54.9523C87.4648 54.9146 87.9922 54.0559 87.9452 52.8388" fill="white"/>
<path d="M95.1121 47.7058L95.6301 55.1033L94.8484 55.1599L94.7919 54.3107C94.5188 54.9334 93.9161 55.3486 93.238 55.3863C91.8724 55.4807 90.9588 54.3201 90.8458 52.6595C90.7328 51.0366 91.5522 49.8854 92.833 49.7911C93.4358 49.7345 94.0197 49.9798 94.4058 50.4421L94.2174 47.7625L95.1121 47.6964V47.7058ZM94.5847 52.4236C94.5 51.1592 93.8501 50.5554 93.012 50.612C92.1455 50.6686 91.6558 51.3763 91.7405 52.6029C91.8253 53.8484 92.3998 54.6221 93.2662 54.5655C94.1044 54.5088 94.6789 53.6974 94.5847 52.4236Z" fill="white"/>
<path d="M100.602 49.0929L100.697 50.027C100.593 50.027 100.489 50.0364 100.376 50.0459C99.5288 50.1874 98.9638 50.98 99.0956 51.8292L99.3876 54.7542L98.4929 54.8486L97.9561 49.4986L98.7942 49.4137L98.8978 50.4893C99.0485 49.7534 99.6607 49.1873 100.414 49.1023C100.48 49.1023 100.537 49.0929 100.602 49.1023" fill="white"/>
<path d="M107.657 53.0557L107.751 53.7634L107.28 53.8294C106.865 53.9427 106.451 53.6973 106.338 53.2822C106.329 53.2444 106.319 53.1973 106.319 53.1501C105.99 53.8011 105.349 54.2446 104.624 54.3012C103.823 54.5088 102.995 54.0276 102.787 53.2256C102.769 53.1407 102.75 53.0557 102.74 52.9708C102.627 52.0933 103.042 51.4045 104.228 51.0837L105.49 50.744C105.688 50.7157 105.829 50.5365 105.801 50.3383C105.801 50.3194 105.801 50.31 105.801 50.2911L105.773 50.0647C105.698 49.508 105.311 49.2815 104.539 49.3853C103.823 49.4797 103.494 49.7627 103.532 50.4798L102.646 50.5931C102.58 49.4042 103.221 48.7531 104.511 48.5833C105.754 48.4229 106.536 48.8664 106.696 50.0364L107.035 52.6594C107.082 53.0086 107.204 53.1123 107.534 53.0652L107.675 53.0463L107.657 53.0557ZM106.018 52.0839L105.924 51.3385L104.464 51.7725C103.776 51.9801 103.55 52.3386 103.616 52.8198C103.663 53.2822 104.078 53.6313 104.539 53.5841C104.586 53.5841 104.633 53.5747 104.68 53.5558C105.443 53.4992 106.037 52.8576 106.018 52.0933" fill="white"/>
<path d="M109.342 51.8008L110.19 51.6593C110.303 52.2537 110.877 52.65 111.471 52.5368C111.527 52.5273 111.574 52.5179 111.621 52.499C112.431 52.3669 112.751 51.9706 112.667 51.4706C112.601 51.046 112.299 50.8573 111.762 50.8289L110.727 50.7723C109.728 50.7157 109.229 50.31 109.107 49.5646C108.956 48.6399 109.483 47.9323 110.708 47.7247C111.668 47.4322 112.685 47.97 112.977 48.9324C112.987 48.9702 112.996 49.0079 113.006 49.0551L112.13 49.1966C111.979 48.6399 111.414 48.3097 110.868 48.4606C110.849 48.4606 110.83 48.4701 110.802 48.4795C110.171 48.5833 109.832 48.8758 109.917 49.3476C109.973 49.6873 110.199 49.8948 110.802 49.9326L111.8 49.9986C112.874 50.0741 113.373 50.4893 113.505 51.263C113.674 52.3009 113.024 53.0652 111.706 53.2822C110.727 53.5841 109.691 53.0274 109.389 52.0461C109.361 51.9706 109.351 51.8952 109.333 51.8102" fill="white"/>
<path d="M119.806 47.7719L120.569 51.4235L119.693 51.6027L118.968 48.1305C118.817 47.4039 118.421 47.0831 117.753 47.2247C117.084 47.3662 116.425 47.9134 116.689 49.1684L117.301 52.0934L116.425 52.2726L114.918 45.0073L115.794 44.8186L116.349 47.4794C116.604 46.885 117.141 46.4509 117.781 46.3472C118.629 46.1018 119.514 46.5925 119.759 47.4417C119.787 47.536 119.806 47.6398 119.815 47.7436" fill="white"/>
<path d="M121.793 43.5071L122.669 43.2806L122.923 44.2808L122.047 44.5073L121.793 43.5071ZM122.292 45.4885L123.168 45.2621L124.486 50.4705L123.611 50.6969L122.292 45.4885Z" fill="white"/>
</g>
</svg>
