<svg width="253" height="38" viewBox="0 0 253 38" fill="none" xmlns="http://www.w3.org/2000/svg">
<path d="M196.729 22.7727V11.6203C196.729 10.236 195.582 9.10518 194.179 9.10518C192.558 9.10518 190.582 9.10518 189.594 9.10518C189.139 9.10518 188.803 8.69574 188.902 8.2668C188.961 7.91585 189.258 7.68189 189.594 7.68189H198.191C199.773 7.68189 201.196 6.53155 201.334 4.97178C201.512 3.17804 200.089 1.67676 198.31 1.67676H167.358C166.844 1.67676 166.31 1.77424 165.856 2.02771C164.769 2.61262 164.176 3.74346 164.255 4.89379C164.255 4.89379 164.393 6.941 164.393 10.0605C164.393 11.6398 164.354 13.492 164.235 15.5003C163.879 21.6614 162.614 26.0287 161.488 28.7973C160.914 30.1816 160.381 31.176 160.005 31.7999C159.827 32.1119 159.491 32.5993 159.491 32.5993C158.464 33.8861 158.681 35.7578 160.005 36.7912C161.31 37.8245 163.227 37.6101 164.275 36.3037C164.433 36.1088 165.757 34.4125 167.14 31.0395C168.524 27.686 169.947 22.6557 170.323 15.8317C170.441 13.7065 170.481 11.7373 170.481 10.0605C170.481 9.53412 170.481 9.04669 170.481 8.57876C170.481 8.09133 170.876 7.68189 171.37 7.68189H182.162C182.636 7.68189 182.972 8.11083 182.854 8.55926C182.775 8.89071 182.498 9.08568 182.162 9.08568L177.359 9.12468C175.956 9.12468 174.829 10.2555 174.829 11.6398L174.79 22.7727C174.79 24.157 175.936 25.3073 177.339 25.3073H181.905C182.419 25.3073 182.854 25.7168 182.854 26.2432V30.5911C182.854 31.098 182.439 31.5269 181.905 31.5269H181.569C179.948 31.5269 178.505 32.6968 178.347 34.2955C178.169 36.1283 179.632 37.6685 181.45 37.6685H183.546C184.257 37.6685 184.988 37.5321 185.7 37.2591C186.234 37.0446 186.728 36.7327 187.163 36.3427C187.815 35.7578 188.329 35.0169 188.645 34.2175C188.961 33.4182 189.1 32.5798 189.1 31.7219V26.2627C189.1 25.7558 189.515 25.3268 190.048 25.3268H194.179C195.582 25.3268 196.729 24.196 196.729 22.8117V22.7727ZM191.531 14.7984C191.531 15.1883 191.214 15.4808 190.839 15.4808H180.719C180.344 15.4808 180.027 15.1688 180.027 14.7984C180.027 14.4084 180.344 14.116 180.719 14.116H190.839C191.214 14.116 191.531 14.4279 191.531 14.7984ZM180.719 18.9123H190.839C191.214 18.9123 191.531 19.2242 191.531 19.5947C191.531 19.9651 191.214 20.2771 190.839 20.2771H180.719C180.344 20.2771 180.027 19.9651 180.027 19.5947C180.027 19.2242 180.344 18.9123 180.719 18.9123ZM176.628 27.335C175.145 26.6526 173.386 27.2961 172.675 28.7583C172.675 28.7583 172.398 29.3238 171.904 30.0062C171.667 30.3571 171.35 30.7276 171.014 31.098C170.678 31.4684 170.283 31.7999 169.888 32.0924C168.564 33.0477 168.247 34.8805 169.216 36.1868C170.184 37.4931 172.042 37.805 173.367 36.8497C174.177 36.2648 174.869 35.6408 175.442 35.0169C176.312 34.0811 176.944 33.1842 177.359 32.4823C177.794 31.7999 178.011 31.3125 178.051 31.2345C178.743 29.7527 178.09 28.0174 176.588 27.335H176.628ZM200.662 33.0672C201.433 34.4905 200.899 36.2842 199.437 37.0446C197.994 37.805 196.175 37.2786 195.405 35.8358C194.93 34.9584 194.298 34.0226 193.764 33.3012C193.23 32.5798 192.796 32.0534 192.697 31.9364V31.9169C191.629 30.6691 191.788 28.8168 193.053 27.7835C194.317 26.7306 196.195 26.8866 197.243 28.1344C197.282 28.1734 197.776 28.7583 198.429 29.6357C199.101 30.5326 199.931 31.7219 200.662 33.0672ZM13.1508 35.3094C12.8147 34.471 12.8147 33.5936 13.1903 32.7943C13.6054 31.8974 14.2378 31.2345 14.9889 30.9615C15.2656 30.864 15.5621 30.8055 15.8586 30.8055C16.2539 30.8055 16.6492 30.903 17.0247 31.0785L17.677 31.371C17.9141 31.4684 18.1909 31.4489 18.4083 31.3125C18.6257 31.176 18.764 30.9225 18.764 30.6691V3.74346C18.764 1.94972 19.7721 0.448435 21.9462 0.448435C24.1204 0.448435 25.247 2.02771 25.247 3.64597V32.0339C25.247 34.9974 23.6658 36.4597 22.7171 37.0641C22.2822 37.3371 21.037 38 19.1 38C17.8351 38 16.4713 37.727 15.068 37.1811C14.1983 36.8497 13.5065 36.1673 13.1508 35.3094ZM0.125566 29.7137C-0.111615 28.9143 -0.0127892 28.0759 0.422043 27.335C4.296 20.667 6.35157 12.4977 6.43063 12.1467C6.62828 11.3474 7.16194 10.6845 7.93277 10.2945C8.68385 9.92406 9.57328 9.82658 10.4429 10.041C11.2928 10.236 11.9846 10.704 12.3997 11.3474C12.8345 12.0103 12.9333 12.7901 12.7357 13.6285C12.6369 13.999 10.4232 22.9482 6.05509 30.4936C5.4819 31.4879 3.34727 32.3848 1.70677 31.5464C0.935935 31.1565 0.382512 30.4936 0.145331 29.6942L0.125566 29.7137ZM31.137 14.6034C30.1883 13.1216 30.6428 11.1329 32.145 10.197C32.6787 9.86557 33.2716 9.70959 33.8646 9.70959C34.9319 9.70959 35.9794 10.236 36.5921 11.1914C36.77 11.4838 41.1381 18.3079 43.1739 28.0369C43.3518 28.8753 43.1739 29.6552 42.7193 30.2986C42.2647 30.9225 41.5334 31.371 40.6637 31.5464C40.4463 31.5854 40.2289 31.6049 40.0115 31.6049C38.371 31.6049 37.1456 30.7081 36.8491 29.3238C35.0702 20.823 31.1765 14.6619 31.137 14.6034ZM61.4764 34.3735V27.92C61.4764 27.686 61.338 27.5105 61.1206 27.452C61.0811 27.452 61.0415 27.452 60.9822 27.452C60.8044 27.452 60.6462 27.5495 60.5672 27.686C59.9545 28.7193 59.4999 29.4212 59.322 29.6747C58.729 30.5911 57.049 32.0339 54.9737 31.0005C53.175 30.1036 52.9181 28.3489 53.8866 26.8671C55.4876 24.43 59.4999 18.5418 60.6462 13.6285C60.7055 13.3751 60.6462 13.1021 60.4684 12.8876C60.2905 12.6732 60.0335 12.5562 59.7568 12.5562H58.393C56.6932 12.5562 55.2108 11.7958 55.3294 9.35865C55.448 6.941 57.5629 6.49256 58.4128 6.49256H60.5474C61.0415 6.49256 61.4566 6.10262 61.4566 5.59569V3.56798C61.4566 2.80759 61.7333 2.14469 62.2472 1.65726C62.8797 1.07234 63.8284 0.76039 64.876 0.799384C66.5758 0.877373 67.9198 2.26167 67.9198 3.95793V5.61519C67.9198 6.10262 68.3151 6.51206 68.829 6.51206H70.509C72.2286 6.51206 73.4738 7.52591 73.4738 9.35865C73.4738 10.197 73.1378 10.9769 72.525 11.5813C71.8926 12.2052 71.0427 12.5562 70.173 12.5562H68.7499C68.5325 12.5562 68.3349 12.6537 68.1965 12.8291C68.0581 13.0046 68.0384 13.2191 68.0977 13.4336L68.1767 13.6675C68.829 15.5977 71.5763 17.333 72.3274 17.8399C73.7505 18.7953 74.047 20.472 73.1773 21.9928C72.7425 22.7532 71.6751 23.6696 70.509 23.6696C69.8568 23.6696 69.2243 23.4746 68.6906 23.1237C68.5325 23.0262 68.3546 23.0067 68.1767 23.1042C68.0186 23.1821 67.9198 23.3576 67.9198 23.5331V34.705C67.9198 36.4012 66.556 37.6296 64.6981 37.6296C63.8482 37.6296 63.0576 37.2981 62.4449 36.6937C61.8124 36.0698 61.4566 35.2314 61.4566 34.3735H61.4764ZM93.8713 3.80195C94.7608 5.16675 94.8596 7.09697 93.2586 8.11083C86.9733 12.1272 79.9172 14.2134 79.6207 14.2914C79.3242 14.3694 79.008 14.4279 78.6918 14.4279C77.3873 14.4279 76.3002 13.5115 75.8654 12.0298C75.3317 10.275 76.1421 8.65675 77.7628 8.16932C77.8221 8.16932 84.2457 6.2391 89.7207 2.7491C90.2346 2.41765 90.7682 2.26167 91.2821 2.26167C92.2506 2.26167 93.1796 2.7881 93.8318 3.80195H93.8713ZM95.5514 14.3694C96.421 15.7927 96.3815 17.8204 94.8201 18.7563C88.2778 22.6752 80.2532 25.2293 79.9172 25.3268C79.601 25.4243 79.2649 25.4828 78.9289 25.4828C77.664 25.4828 76.6955 24.6639 76.2211 23.2016C75.9444 22.3633 75.9642 21.5054 76.2409 20.784C76.5374 20.0236 77.1303 19.4972 77.9407 19.2437C78.0197 19.2242 85.6095 16.7871 91.46 13.2971C92.9622 12.4002 94.6224 12.8291 95.5711 14.3694H95.5514ZM95.1363 29.8307C87.7046 33.9251 80.2334 36.3232 79.9172 36.4207C79.601 36.5182 79.2649 36.5767 78.9289 36.5767C77.664 36.5767 76.7153 35.7578 76.2211 34.2565C75.6282 32.4628 76.3397 30.8445 77.9407 30.3376C78.0197 30.3181 85.1549 28.0174 91.9739 24.2545C92.4482 23.9815 92.9621 23.8645 93.4563 23.8645C93.733 23.8645 94.0097 23.9035 94.2864 24.001C95.0177 24.235 95.67 24.7809 96.085 25.5413C97.014 27.1791 96.5989 29.0313 95.1363 29.8502V29.8307ZM127.274 16.2022H141.525C142.928 16.2022 144.075 15.0713 144.075 13.687V3.49C144.075 2.1057 142.928 0.974859 141.525 0.974859H127.274C125.871 0.974859 124.725 2.1057 124.725 3.49V13.687C124.725 15.0713 125.871 16.2022 127.274 16.2022ZM129.824 10.9574C129.824 10.587 130.14 10.275 130.516 10.275H138.264C138.639 10.275 138.956 10.587 138.956 10.9574C138.956 11.3279 138.639 11.6398 138.264 11.6398H130.516C130.14 11.6398 129.824 11.3279 129.824 10.9574ZM138.975 6.2196C138.975 6.59005 138.659 6.902 138.283 6.902H130.536C130.16 6.902 129.844 6.59005 129.844 6.2196C129.844 5.84915 130.16 5.5372 130.536 5.5372H138.283C138.659 5.5372 138.975 5.84915 138.975 6.2196ZM146.387 17.5475H122.531C121.246 17.5475 120.159 18.6003 120.139 19.8676C120.139 21.2714 120.93 22.2463 122.353 22.2463H123.282C123.697 22.2463 123.974 22.6752 123.796 23.0457C122.61 25.4633 120.712 26.8281 120.653 26.8671C119.507 27.647 118.775 29.0313 119.961 30.5326C121.147 32.0339 122.689 31.5659 123.539 31.02C123.657 30.942 124.922 30.0841 126.286 28.4464C126.385 28.3099 126.543 28.2514 126.721 28.2514H127.235C127.689 28.2514 127.966 28.7388 127.709 29.1093C125.93 31.6634 123.499 32.4823 123.341 32.5408C122.017 32.9697 121.424 34.2955 121.859 35.6018C122.214 36.6742 123.064 37.4541 124.151 37.4541C124.408 37.4541 124.685 37.4151 124.942 37.3371C125.061 37.2981 126.345 36.8692 127.946 35.7578C128.282 35.5239 128.757 35.6213 128.954 35.9918L129.053 36.1673C129.468 36.9277 130.219 37.4541 131.109 37.4541C131.267 37.4541 131.445 37.4541 131.603 37.4151C131.82 37.3761 133.579 37.0056 135.516 35.6993C135.754 35.5434 136.07 35.5434 136.287 35.6993C136.505 35.8553 136.742 36.0308 136.979 36.1868C138.501 37.1616 139.805 37.4931 140.873 37.4931C142.454 37.4931 143.521 36.7717 144.035 36.3232C148.028 32.8332 147.415 26.6916 147.336 25.9702C147.198 24.7029 146.091 23.7281 144.806 23.7281H130.061C129.587 23.7281 129.231 23.2796 129.369 22.8117C129.448 22.4802 129.745 22.2658 130.061 22.2658H146.229C147.514 22.2658 148.601 21.2129 148.621 19.9456C148.621 18.5418 147.83 17.567 146.407 17.567L146.387 17.5475ZM132.295 30.903C132.69 30.2011 133.026 29.4407 133.322 28.6024C133.402 28.3879 133.619 28.2319 133.856 28.2319H134.528C134.963 28.2319 135.22 28.6803 135.022 29.0508C134.41 30.1621 133.619 30.903 132.868 31.4295C132.512 31.6634 132.077 31.2735 132.295 30.903ZM140.122 32.7748C139.904 32.6773 139.647 32.5213 139.371 32.3263C139.133 32.1703 139.054 31.8584 139.173 31.6049C139.628 30.747 140.023 29.7722 140.319 28.6414C140.379 28.3879 140.596 28.2124 140.873 28.2124H141.624C141.96 28.2124 142.236 28.5049 142.177 28.8363C141.98 30.1036 141.505 31.6829 140.794 32.5993C140.636 32.7943 140.359 32.8722 140.122 32.7553V32.7748ZM119.704 5.40072C119.487 6.97999 118.103 8.16932 116.502 8.16932C116.364 8.16932 116.206 8.16932 116.068 8.14982L112.035 7.6234C110.316 7.38943 109.15 5.88815 109.407 4.07491C109.525 3.21703 109.98 2.55413 110.632 2.0667C111.146 1.67676 111.798 1.46229 112.47 1.46229C112.628 1.46229 112.767 1.46229 112.925 1.50128L116.957 2.02771C118.736 2.26167 119.941 3.66547 119.704 5.42022V5.40072ZM117.925 13.765C117.708 15.4613 116.423 16.6116 114.882 16.6116C114.743 16.6116 114.605 16.6116 114.467 16.5921L110.276 16.0657C108.498 15.8512 107.252 14.2329 107.47 12.4977C107.687 10.8794 108.972 9.90457 110.573 9.90457C110.711 9.90457 110.85 9.90457 110.988 9.92406L115.178 10.4505C116.878 10.665 118.143 11.9518 117.906 13.765H117.925ZM117.668 22.1683C115.83 30.7665 111.146 36.0113 110.948 36.2453C110.336 36.9277 109.446 37.3176 108.537 37.3176C107.746 37.3176 106.976 37.0251 106.383 36.4987C105.058 35.3289 104.94 33.3207 106.106 31.9949C106.145 31.9559 109.861 27.6665 111.324 20.862C111.62 19.5167 112.747 18.6978 114.21 18.6978C114.486 18.6978 114.783 18.7368 115.079 18.7953C116.957 19.1852 118.005 20.589 117.668 22.1878V22.1683ZM253 6.31709V11.2499C253 12.8291 251.696 14.0965 250.095 14.0575C248.494 14.0185 247.288 12.6927 247.288 11.1524V10.0605C247.288 9.55362 246.873 9.12468 246.339 9.12468H217.917C217.403 9.12468 216.968 9.53412 216.968 10.0605V11.2499C216.968 12.8291 215.664 14.0965 214.063 14.0575C212.462 14.0185 211.256 12.6927 211.256 11.1524V6.31709C211.256 5.57619 211.553 4.8548 212.086 4.32837C212.62 3.80195 213.351 3.50949 214.102 3.50949H228.274C228.669 3.50949 229.005 3.17804 229.005 2.7881C229.025 1.07234 230.448 0 232.187 0C233.927 0 235.33 0.935865 235.33 2.7296C235.33 3.15854 235.626 3.50949 235.982 3.50949H250.134C250.885 3.50949 251.616 3.80195 252.15 4.32837C252.684 4.8548 252.98 5.57619 252.98 6.31709H253ZM223.708 10.7819C222.107 10.392 220.467 11.3474 220.071 12.9266C219.617 14.7009 218.925 16.4166 218.115 17.9764C216.909 20.3161 215.466 22.3243 214.34 23.7281C213.766 24.43 213.292 24.9759 212.956 25.3268C212.778 25.5023 212.659 25.6388 212.58 25.7363C212.541 25.7753 212.501 25.8143 212.482 25.8338C211.296 26.9841 211.296 28.8558 212.442 30.0062C213.608 31.176 215.506 31.1955 216.692 30.0452C216.711 30.0257 216.85 29.8892 217.067 29.6552C217.383 29.3238 217.937 29.5382 217.937 30.0062V34.627C217.937 36.2648 219.221 37.6491 220.882 37.688C222.542 37.727 223.945 36.3817 223.945 34.7245V20.0041C223.945 19.8286 223.965 19.6727 224.044 19.5167C224.795 17.9179 225.447 16.2022 225.922 14.3499C226.317 12.7707 225.349 11.1524 223.748 10.7624L223.708 10.7819ZM242.722 19.2827C242.011 19.2827 241.497 18.6588 241.635 17.9764C241.635 17.9374 241.635 17.8984 241.655 17.8594C241.754 17.3525 242.208 16.9625 242.742 16.9625H244.145C245.667 16.9625 246.972 15.7927 246.991 14.2914C247.011 12.7901 245.786 11.5228 244.244 11.5228H232.425C230.903 11.5228 229.598 12.6927 229.578 14.1939C229.559 15.6952 230.784 16.9625 232.326 16.9625H234.223C234.954 16.9625 235.488 17.6644 235.29 18.3663C235.29 18.3663 235.271 18.4638 235.251 18.5028C235.113 18.9708 234.678 19.2827 234.184 19.2827H231.496C230.013 19.2827 228.827 20.472 228.827 21.9343V34.705C228.827 36.1673 230.033 37.3566 231.515 37.3566H245.806C247.288 37.3566 248.494 36.1673 248.494 34.705V21.9343C248.494 20.472 247.288 19.2827 245.806 19.2827H242.742H242.722ZM243.038 25.3268C243.038 25.8923 242.564 26.3602 241.991 26.3602H235.271C234.698 26.3602 234.223 25.8923 234.223 25.3268C234.223 24.7614 234.698 24.2935 235.271 24.2935H241.991C242.564 24.2935 243.038 24.7614 243.038 25.3268ZM235.29 30.0841H242.011C242.584 30.0841 243.058 30.5521 243.058 31.1175V31.293C243.058 31.8584 242.584 32.3263 242.011 32.3263H235.29C234.717 32.3263 234.243 31.8584 234.243 31.293V31.1175C234.243 30.5521 234.717 30.0841 235.29 30.0841Z" fill="#005BAB"/>
</svg>
