<svg width="161" height="48" viewBox="0 0 161 48" fill="none" xmlns="http://www.w3.org/2000/svg">
<path d="M12.5199 42.514C12.5199 44.4339 14.1825 46.2061 16.8242 46.2061C16.8242 46.2061 23.8996 46.2061 24.2876 46.2061C24.2876 46.2061 30.6425 46.04 30.5871 38.1759V4.02426C30.5871 2.01208 28.5734 0.793701 26.3012 0.793701C24.0289 0.793701 22.3663 2.01208 22.3663 4.02426V37.1421C22.3663 39.4866 20.131 39.265 20.131 39.265H15.7343C14.0347 39.265 12.5199 40.5942 12.5199 42.4956V42.514ZM43.1491 38.0836C43.6294 39.7819 44.7748 40.6496 46.4559 40.6496C46.8069 40.6496 47.1579 40.5942 47.5089 40.5019C49.5595 39.9296 51.1297 38.0282 50.557 35.9791C47.5828 25.4752 41.9483 14.9159 41.7082 14.5097C40.6737 12.6452 38.4938 12.276 36.6279 13.3098C34.7621 14.3436 33.9308 16.3742 34.9653 18.2387C35.0207 18.331 40.3966 28.4288 43.1306 38.0836H43.1491ZM1.58348 40.5757C2.45174 41.1295 3.00595 41.2772 3.32 41.3695C4.74247 41.8126 6.29425 40.8526 7.16251 39.5604C14.8475 28.0412 16.9535 17.3711 17.0274 16.8727C17.4154 14.5836 16.8057 13.4021 14.7736 12.8114C12.7231 12.2206 10.7649 12.756 10.1922 14.7866C10.1552 14.8974 7.07015 25.4936 0.80759 35.6099C-0.319301 37.419 -0.448616 39.2466 1.60196 40.5573L1.58348 40.5757Z" fill="#003461"/>
<path d="M74.5912 27.709C75.2562 27.6905 75.9028 27.4136 76.457 27.0444C76.6602 26.9152 76.9373 26.9705 76.9927 27.2105C76.9927 27.2659 77.0297 27.3213 77.0482 27.3767C77.51 28.9273 78.9325 29.9057 80.4658 29.9057C80.8168 29.9057 81.1678 29.8504 81.5188 29.7581C89.2407 27.4136 101.563 20.1587 102.08 19.8449C103.779 18.848 103.872 16.7804 102.874 15.0821C101.877 13.3837 100.14 12.7007 98.4406 13.6976C98.3113 13.7714 86.3404 20.8233 79.4313 22.9277C79.0064 23.057 78.6923 23.1862 78.3598 23.4446C78.175 23.5923 77.8979 23.5 77.8241 23.2785C77.6208 22.6324 77.159 22.1155 76.5678 21.6909C74.8683 20.4356 72.633 18.7557 71.192 17.6481C70.9334 17.445 70.7671 17.1312 70.7671 16.8174V15.8205C70.7671 15.5067 71.0073 15.2667 71.3213 15.2667H74.7205C75.6996 15.2667 76.4939 15.0082 77.0112 14.3252C77.159 14.1222 77.4546 14.1591 77.6024 14.3621C78.2305 15.1744 79.1911 15.6544 80.2256 15.6544C80.5397 15.6544 80.8537 15.6174 81.1678 15.5067C88.7789 13.2176 98.4591 8.25177 98.8655 8.03024C100.491 7.19953 100.805 5.18735 99.9554 3.56284C99.1241 1.93833 97.4615 1.32914 95.8358 2.15986C95.7435 2.21524 86.285 7.07031 79.265 9.17478C78.6369 9.35939 78.1012 9.72859 77.6947 10.2086C77.547 10.3932 77.2698 10.3562 77.1405 10.1532C76.6233 9.34093 75.7735 8.82404 74.702 8.82404H71.3029C70.9888 8.82404 70.7487 8.56559 70.7487 8.25177V3.50746C70.7487 1.38452 69.0306 0 66.8877 0C64.7447 0 63.0267 1.38452 63.0267 3.50746V8.25177C63.0267 8.56559 62.7681 8.82404 62.454 8.82404H56.7826C54.9537 8.82404 53.7529 10.3009 53.7529 12.1284C53.7529 13.956 54.9722 15.2482 56.7826 15.2482H62.1584C62.4171 15.2482 62.6203 15.4882 62.5279 15.7467C61.5488 18.4973 58.8332 25.7891 55.0091 31.3456C53.8084 33.0994 54.3256 35.3515 56.0806 36.5515C56.7457 37.013 57.5031 37.2345 58.2605 37.2345C59.4798 37.2345 60.6251 36.7914 61.3641 35.7207C61.8259 35.0377 62.2877 34.3362 62.7311 33.6347C62.8235 33.5055 63.0267 33.5424 63.0267 33.7086V43.5479C63.0267 45.6709 65.1327 47.0369 67.2756 47.0369C69.4186 47.0369 71.1366 45.6709 71.1366 43.5479V27.1367C71.1366 26.9152 71.3952 26.8044 71.5615 26.9336C71.5615 26.9336 72.6884 27.8197 74.5912 27.7459V27.709ZM99.3273 28.152C99.235 28.2074 89.758 34.1885 81.1124 37.456C79.1172 38.2129 78.1196 40.4281 78.8771 42.4218C79.4682 43.954 80.9276 44.914 82.4794 44.914C82.9412 44.914 83.4031 44.8401 83.8465 44.6555C93.1941 41.1112 103.022 34.9085 103.447 34.65C105.239 33.5055 105.442 31.198 104.297 29.4073C103.151 27.6167 101.119 27.0075 99.3273 28.152Z" fill="#003461"/>
<path d="M116.175 1.97527C115.473 1.71682 114.827 1.47684 114.383 1.3107C112.536 0.609203 110.818 1.69836 110.116 3.5444C109.414 5.39043 109.987 7.29184 111.834 7.99333C112.314 8.17794 112.979 8.41792 113.737 8.69483C115.307 9.2671 117.247 9.96859 118.244 10.4116C118.743 10.6332 119.26 10.7255 119.759 10.707C121.108 10.6701 122.179 9.69168 122.752 8.381C123.546 6.57189 122.918 4.65202 121.108 3.85822C119.889 3.32287 117.912 2.60292 116.175 1.97527ZM157.649 19.568L121.828 19.6418C121.662 19.6418 121.496 19.6418 121.348 19.6787C121.163 19.7156 121.015 19.531 121.089 19.3649C121.2 19.1434 121.274 18.9219 121.348 18.6634C121.81 16.7435 120.646 14.8052 118.725 14.3437C118.004 14.1591 116.545 13.6791 115.64 13.4207C114.383 13.0515 113.995 12.9592 113.09 12.7561C110.892 12.2761 109.026 12.9592 108.361 14.8237C107.548 17.1312 108.601 19.0511 110.855 19.531C111.502 19.6603 112.591 19.9741 113.663 20.2879C114.642 20.5648 116.157 21.0632 117.044 21.2848C117.358 21.3586 117.69 21.3955 118.004 21.3955C118.485 21.3955 118.928 21.2663 119.353 21.0817C119.519 21.0079 119.667 21.174 119.611 21.3402C119.519 21.6355 119.482 21.9678 119.482 22.337C119.482 23.8508 120.332 25.1614 121.847 25.1614H126.816C127.038 25.1614 127.149 25.4014 127.001 25.5676C126.022 26.6937 124.803 27.9305 123.417 29.112C123.269 29.2412 123.029 29.112 123.048 28.9089C123.251 27.0998 122.216 25.9922 120.664 25.346C118.688 24.5338 116.452 25.2537 115.658 27.2105C114.716 29.4996 111.908 35.6469 107.992 40.1143C106.588 41.7204 106.846 43.9541 108.453 45.357C109.192 46.0032 110.098 46.317 111.003 46.317C112.074 46.317 113.035 46.077 113.792 45.2094C115.843 42.8834 117.598 40.2435 119.057 37.7514C119.205 37.4929 119.519 37.4006 119.778 37.5299C120.24 37.7698 120.757 37.8991 121.274 37.8991C121.791 37.8991 122.346 37.7698 122.844 37.4929C125.8 35.9054 128.294 33.8009 130.289 31.7887C130.548 31.5303 130.899 31.3826 131.25 31.3826H132.617C132.82 31.3826 132.875 31.641 132.746 31.7702C130.012 34.4285 125.819 37.6222 120.443 40.2435C118.946 40.9819 118.595 42.828 119.316 44.3233C119.833 45.394 121.126 45.9662 122.235 45.9662C122.678 45.9662 123.121 45.8555 123.546 45.6709C133.836 41.0927 139.36 34.2255 141.299 31.8072C141.521 31.5487 141.835 31.3826 142.168 31.3826H142.63C142.87 31.3826 143.018 31.641 142.888 31.8256C140.727 34.5947 137.124 38.5452 132.561 41.1112C131.102 41.9234 130.603 43.6402 131.416 45.0986C131.989 46.1139 133.042 46.6123 134.132 46.5939C134.612 46.5939 135.037 46.4831 135.48 46.2247C141.336 42.9387 146.01 38.379 148.541 35.2039C148.763 34.9085 148.966 34.8531 149.151 34.9085C149.428 35.0008 149.409 35.7208 149.409 35.7208V38.3421C149.409 39.6897 147.71 39.8005 147.71 39.8005L146.324 39.9482C146.324 39.9482 143.221 40.0774 143.202 42.8464C143.165 46.1693 147.1 46.0585 147.1 46.0585H149.723C157.242 45.7078 157.612 38.2129 157.612 38.2129L157.575 29.3519C157.575 26.4906 155.69 25.8629 154.194 25.9183H135.499C135.332 25.9183 135.24 25.7153 135.332 25.5676C135.48 25.3276 135.739 25.1799 136.034 25.1799L157.704 25.143C159.219 25.143 160.05 23.9061 160.05 22.3924C160.05 20.8786 159.219 19.6418 157.704 19.6418L157.649 19.568ZM128.313 18.5342H151.349C152.864 18.5342 154.102 17.2789 154.102 15.7282V3.28595C154.102 1.73528 152.864 0.47998 151.349 0.47998H128.313C126.798 0.47998 125.56 1.73528 125.56 3.28595V15.7282C125.56 17.2789 126.798 18.5342 128.313 18.5342ZM133.91 6.68265C133.91 6.36883 134.132 6.09192 134.427 6.09192H145.511C145.825 6.09192 146.066 6.36883 146.066 6.68265C146.066 6.99648 145.844 7.27338 145.548 7.27338H134.464C134.15 7.27338 133.91 6.99648 133.91 6.68265ZM133.91 12.3315C133.91 12.0177 134.132 11.7408 134.427 11.7408H145.511C145.825 11.7408 146.066 12.0177 146.066 12.3315C146.066 12.6453 145.844 12.9222 145.548 12.9222H134.464C134.15 12.9222 133.91 12.6453 133.91 12.3315Z" fill="#003461"/>
</svg>
